ZillaSlabHighlight-Regular.ufo
<glyph name="numbersign" format="1">
  <advance width="587"/>
  <unicode hex="0023"/>
  <outline>
    <contour>
      <point x="518" y="182" type="line"/>
      <point x="426" y="182" type="line"/>
      <point x="457" y="346" type="line"/>
      <point x="548" y="346" type="line"/>
      <point x="548" y="403" type="line"/>
      <point x="468" y="403" type="line"/>
      <point x="491" y="521" type="line"/>
      <point x="428" y="521" type="line"/>
      <point x="405" y="403" type="line"/>
      <point x="229" y="403" type="line"/>
      <point x="252" y="521" type="line"/>
      <point x="189" y="521" type="line"/>
      <point x="166" y="403" type="line"/>
      <point x="66" y="403" type="line"/>
      <point x="66" y="346" type="line"/>
      <point x="155" y="346" type="line"/>
      <point x="124" y="182" type="line"/>
      <point x="36" y="182" type="line"/>
      <point x="36" y="125" type="line"/>
      <point x="113" y="125" type="line"/>
      <point x="89" y="0" type="line"/>
      <point x="152" y="0" type="line"/>
      <point x="176" y="125" type="line"/>
      <point x="352" y="125" type="line"/>
      <point x="328" y="0" type="line"/>
      <point x="391" y="0" type="line"/>
      <point x="415" y="125" type="line"/>
      <point x="518" y="125" type="line"/>
    </contour>
    <contour>
      <point x="218" y="346" type="line"/>
      <point x="394" y="346" type="line"/>
      <point x="363" y="182" type="line"/>
      <point x="187" y="182" type="line"/>
    </contour>
    <contour>
      <point x="-12" y="917" type="line"/>
      <point x="599" y="917" type="line"/>
      <point x="599" y="-213" type="line"/>
      <point x="-12" y="-213" type="line"/>
    </contour>
  </outline>
</glyph>
<glyph name="percent" format="1">
  <advance width="683"/>
  <unicode hex="0025"/>
  <outline>
    <contour>
      <point x="504" y="521" type="line"/>
      <point x="330" y="287" type="line"/>
      <point x="100" y="0" type="line"/>
      <point x="175" y="0" type="line"/>
      <point x="377" y="267" type="line"/>
      <point x="579" y="521" type="line"/>
    </contour>
    <contour>
      <point x="173" y="244" type="curve" smooth="yes"/>
      <point x="267" y="244"/>
      <point x="320" y="301"/>
      <point x="320" y="392" type="curve" smooth="yes"/>
      <point x="320" y="486"/>
      <point x="264" y="531"/>
      <point x="181" y="531" type="curve" smooth="yes"/>
      <point x="95" y="531"/>
      <point x="34" y="480"/>
      <point x="34" y="383" type="curve" smooth="yes"/>
      <point x="34" y="289"/>
      <point x="93" y="244"/>
    </contour>
    <contour>
      <point x="174" y="294" type="curve" smooth="yes"/>
      <point x="121" y="294"/>
      <point x="94" y="325"/>
      <point x="94" y="384" type="curve" smooth="yes"/>
      <point x="94" y="453"/>
      <point x="127" y="481"/>
      <point x="179" y="481" type="curve" smooth="yes"/>
      <point x="233" y="481"/>
      <point x="260" y="452"/>
      <point x="260" y="391" type="curve" smooth="yes"/>
      <point x="260" y="330"/>
      <point x="233" y="294"/>
    </contour>
    <contour>
      <point x="504" y="-10" type="curve" smooth="yes"/>
      <point x="597" y="-10"/>
      <point x="651" y="47"/>
      <point x="651" y="138" type="curve" smooth="yes"/>
      <point x="651" y="232"/>
      <point x="594" y="277"/>
      <point x="512" y="277" type="curve" smooth="yes"/>
      <point x="425" y="277"/>
      <point x="365" y="226"/>
      <point x="365" y="129" type="curve" smooth="yes"/>
      <point x="365" y="34"/>
      <point x="423" y="-10"/>
    </contour>
    <contour>
      <point x="504" y="40" type="curve" smooth="yes"/>
      <point x="451" y="40"/>
      <point x="425" y="70"/>
      <point x="425" y="130" type="curve" smooth="yes"/>
      <point x="425" y="199"/>
      <point x="457" y="227"/>
      <point x="510" y="227" type="curve" smooth="yes"/>
      <point x="563" y="227"/>
      <point x="591" y="198"/>
      <point x="591" y="137" type="curve" smooth="yes"/>
      <point x="591" y="75"/>
      <point x="564" y="40"/>
    </contour>
    <contour>
      <point x="-12" y="917" type="line"/>
      <point x="695" y="917" type="line"/>
      <point x="695" y="-213" type="line"/>
      <point x="-12" y="-213" type="line"/>
    </contour>
  </outline>
</glyph>
<glyph name="ampersand" format="1">
  <advance width="727"/>
  <unicode hex="0026"/>
  <outline>
    <contour>
      <point x="425" y="299" type="line"/>
      <point x="523" y="299" type="line"/>
      <point x="505" y="239"/>
      <point x="470" y="174"/>
      <point x="422" y="127" type="curve"/>
      <point x="356" y="176"/>
      <point x="296" y="246"/>
      <point x="257" y="319" type="curve"/>
      <point x="367" y="374"/>
      <point x="476" y="424"/>
      <point x="476" y="525" type="curve" smooth="yes"/>
      <point x="476" y="606"/>
      <point x="410" y="660"/>
      <point x="316" y="660" type="curve" smooth="yes"/>
      <point x="203" y="660"/>
      <point x="136" y="583"/>
      <point x="136" y="479" type="curve" smooth="yes"/>
      <point x="136" y="431"/>
      <point x="150" y="378"/>
      <point x="174" y="324" type="curve"/>
      <point x="105" y="286"/>
      <point x="45" y="241"/>
      <point x="45" y="154" type="curve" smooth="yes"/>
      <point x="45" y="46"/>
      <point x="138" y="-10"/>
      <point x="235" y="-10" type="curve" smooth="yes"/>
      <point x="298" y="-10"/>
      <point x="356" y="14"/>
      <point x="407" y="50" type="curve"/>
      <point x="465" y="13"/>
      <point x="528" y="-10"/>
      <point x="589" y="-10" type="curve" smooth="yes"/>
      <point x="628" y="-10"/>
      <point x="663" y="-1"/>
      <point x="697" y="18" type="curve"/>
      <point x="680" y="79" type="line"/>
      <point x="656" y="66"/>
      <point x="629" y="58"/>
      <point x="599" y="58" type="curve" smooth="yes"/>
      <point x="555" y="58"/>
      <point x="510" y="74"/>
      <point x="467" y="99" type="curve"/>
      <point x="529" y="160"/>
      <point x="575" y="237"/>
      <point x="600" y="299" type="curve"/>
      <point x="705" y="299" type="line"/>
      <point x="705" y="362" type="line"/>
      <point x="425" y="362" type="line"/>
    </contour>
    <contour>
      <point x="208" y="485" type="curve" smooth="yes"/>
      <point x="208" y="552"/>
      <point x="246" y="602"/>
      <point x="314" y="602" type="curve" smooth="yes"/>
      <point x="376" y="602"/>
      <point x="403" y="561"/>
      <point x="403" y="522" type="curve" smooth="yes"/>
      <point x="403" y="450"/>
      <point x="322" y="402"/>
      <point x="238" y="358" type="curve"/>
      <point x="219" y="402"/>
      <point x="208" y="445"/>
    </contour>
    <contour>
      <point x="253" y="52" type="curve" smooth="yes"/>
      <point x="180" y="52"/>
      <point x="117" y="86"/>
      <point x="117" y="165" type="curve" smooth="yes"/>
      <point x="117" y="220"/>
      <point x="148" y="256"/>
      <point x="193" y="285" type="curve"/>
      <point x="234" y="210"/>
      <point x="293" y="137"/>
      <point x="360" y="84" type="curve"/>
      <point x="328" y="64"/>
      <point x="292" y="52"/>
    </contour>
    <contour>
      <point x="-12" y="917" type="line"/>
      <point x="739" y="917" type="line"/>
      <point x="739" y="-213" type="line"/>
      <point x="-12" y="-213" type="line"/>
    </contour>
  </outline>
</glyph>
<glyph name="quotesingle" format="1">
  <advance width="187"/>
  <unicode hex="0027"/>
  <outline>
    <contour>
      <point x="124" y="377" type="line"/>
      <point x="129" y="650" type="line"/>
      <point x="58" y="650" type="line"/>
      <point x="63" y="377" type="line"/>
    </contour>
    <contour>
      <point x="-12" y="917" type="line"/>
      <point x="199" y="917" type="line"/>
      <point x="199" y="-213" type="line"/>
      <point x="-12" y="-213" type="line"/>
    </contour>
  </outline>
</glyph>
<glyph name="asterisk" format="1">
  <advance width="411"/>
  <unicode hex="002A"/>
  <outline>
    <contour>
      <point x="338" y="601" type="line"/>
      <point x="227" y="528" type="line"/>
      <point x="233" y="650" type="line"/>
      <point x="178" y="650" type="line"/>
      <point x="183" y="529" type="line"/>
      <point x="74" y="601" type="line"/>
      <point x="45" y="556" type="line"/>
      <point x="162" y="489" type="line"/>
      <point x="45" y="424" type="line"/>
      <point x="74" y="379" type="line"/>
      <point x="183" y="449" type="line"/>
      <point x="178" y="333" type="line"/>
      <point x="233" y="333" type="line"/>
      <point x="228" y="450" type="line"/>
      <point x="338" y="379" type="line"/>
      <point x="367" y="424" type="line"/>
      <point x="249" y="489" type="line"/>
      <point x="367" y="556" type="line"/>
    </contour>
    <contour>
      <point x="-12" y="917" type="line"/>
      <point x="423" y="917" type="line"/>
      <point x="423" y="-213" type="line"/>
      <point x="-12" y="-213" type="line"/>
    </contour>
  </outline>
</glyph>
<glyph name="plus" format="1">
  <advance width="417"/>
  <unicode hex="002B"/>
  <outline>
    <contour>
      <point x="35" y="254" type="line"/>
      <point x="185" y="254" type="line"/>
      <point x="185" y="108" type="line"/>
      <point x="238" y="108" type="line"/>
      <point x="238" y="254" type="line"/>
      <point x="382" y="254" type="line"/>
      <point x="382" y="308" type="line"/>
      <point x="238" y="308" type="line"/>
      <point x="238" y="455" type="line"/>
      <point x="185" y="455" type="line"/>
      <point x="185" y="308" type="line"/>
      <point x="35" y="308" type="line"/>
    </contour>
    <contour>
      <point x="-12" y="917" type="line"/>
      <point x="429" y="917" type="line"/>
      <point x="429" y="-213" type="line"/>
      <point x="-12" y="-213" type="line"/>
    </contour>
  </outline>
</glyph>
<glyph name="period" format="1">
  <advance width="207"/>
  <unicode hex="002E"/>
  <outline>
    <contour>
      <point x="55" y="108" type="line"/>
      <point x="152" y="108" type="line"/>
      <point x="152" y="0" type="line"/>
      <point x="55" y="0" type="line"/>
    </contour>
    <contour>
      <point x="-12" y="-213" type="line"/>
      <point x="219" y="-213" type="line"/>
      <point x="219" y="917" type="line"/>
      <point x="-12" y="917" type="line"/>
    </contour>
  </outline>
</glyph>
<glyph name="slash" format="1">
  <advance width="335"/>
  <unicode hex="002F"/>
  <outline>
    <contour>
      <point x="314" y="688" type="line"/>
      <point x="99" y="0" type="line"/>
      <point x="30" y="0" type="line"/>
      <point x="245" y="688" type="line"/>
    </contour>
    <contour>
      <point x="-12" y="-213" type="line"/>
      <point x="347" y="-213" type="line"/>
      <point x="347" y="917" type="line"/>
      <point x="-12" y="917" type="line"/>
    </contour>
  </outline>
</glyph>
<glyph name="two" format="1">
  <advance width="511"/>
  <unicode hex="0032"/>
  <outline>
    <contour>
      <point x="74" y="487" type="curve"/>
      <point x="57" y="377" type="line"/>
      <point x="115" y="370" type="line"/>
      <point x="131" y="445" type="line"/>
      <point x="165" y="460"/>
      <point x="209" y="468"/>
      <point x="237" y="468" type="curve" smooth="yes"/>
      <point x="313" y="468"/>
      <point x="356" y="430"/>
      <point x="356" y="368" type="curve" smooth="yes"/>
      <point x="356" y="269"/>
      <point x="236" y="185"/>
      <point x="46" y="57" type="curve"/>
      <point x="54" y="0" type="line"/>
      <point x="460" y="0" type="line"/>
      <point x="471" y="139" type="line"/>
      <point x="410" y="144" type="line"/>
      <point x="401" y="64" type="line"/>
      <point x="141" y="64" type="line"/>
      <point x="250" y="130"/>
      <point x="434" y="238"/>
      <point x="434" y="376" type="curve" smooth="yes"/>
      <point x="434" y="449"/>
      <point x="384" y="531"/>
      <point x="253" y="531" type="curve" smooth="yes"/>
      <point x="194" y="531"/>
      <point x="122" y="515"/>
    </contour>
    <contour>
      <point x="-12" y="917" type="line"/>
      <point x="523" y="917" type="line"/>
      <point x="523" y="-213" type="line"/>
      <point x="-12" y="-213" type="line"/>
    </contour>
  </outline>
</glyph>
<glyph name="three" format="1">
  <advance width="486"/>
  <unicode hex="0033"/>
  <outline>
    <contour>
      <point x="64" y="479" type="curve"/>
      <point x="47" y="369" type="line"/>
      <point x="105" y="362" type="line"/>
      <point x="123" y="443" type="line"/>
      <point x="153" y="459"/>
      <point x="191" y="468"/>
      <point x="219" y="468" type="curve" smooth="yes"/>
      <point x="294" y="468"/>
      <point x="338" y="428"/>
      <point x="338" y="363" type="curve" smooth="yes"/>
      <point x="338" y="307"/>
      <point x="302" y="242"/>
      <point x="176" y="236" type="curve"/>
      <point x="176" y="182" type="line"/>
      <point x="316" y="178"/>
      <point x="365" y="133"/>
      <point x="365" y="54" type="curve" smooth="yes"/>
      <point x="365" y="-12"/>
      <point x="336" y="-78"/>
      <point x="230" y="-78" type="curve" smooth="yes"/>
      <point x="146" y="-78"/>
      <point x="108" y="-33"/>
      <point x="89" y="20" type="curve"/>
      <point x="32" y="0" type="line"/>
      <point x="48" y="-79"/>
      <point x="109" y="-141"/>
      <point x="232" y="-141" type="curve" smooth="yes"/>
      <point x="363" y="-141"/>
      <point x="443" y="-66"/>
      <point x="443" y="50" type="curve" smooth="yes"/>
      <point x="443" y="126"/>
      <point x="409" y="194"/>
      <point x="290" y="214" type="curve"/>
      <point x="290" y="218" type="line"/>
      <point x="384" y="247"/>
      <point x="415" y="307"/>
      <point x="415" y="372" type="curve" smooth="yes"/>
      <point x="415" y="475"/>
      <point x="338" y="531"/>
      <point x="233" y="531" type="curve" smooth="yes"/>
      <point x="166" y="531"/>
      <point x="101" y="504"/>
    </contour>
    <contour>
      <point x="-12" y="917" type="line"/>
      <point x="498" y="917" type="line"/>
      <point x="498" y="-213" type="line"/>
      <point x="-12" y="-213" type="line"/>
    </contour>
  </outline>
</glyph>
<glyph name="five" format="1">
  <advance width="508"/>
  <unicode hex="0035"/>
  <outline>
    <contour>
      <point x="468" y="64" type="curve" smooth="yes"/>
      <point x="468" y="234"/>
      <point x="333" y="268"/>
      <point x="194" y="268" type="curve" smooth="yes"/>
      <point x="178" y="268"/>
      <point x="160" y="268"/>
      <point x="144" y="267" type="curve"/>
      <point x="144" y="458" type="line"/>
      <point x="376" y="458" type="line"/>
      <point x="386" y="377" type="line"/>
      <point x="447" y="383" type="line"/>
      <point x="438" y="521" type="line"/>
      <point x="76" y="521" type="line"/>
      <point x="76" y="227" type="line"/>
      <point x="101" y="203" type="line"/>
      <point x="128" y="205"/>
      <point x="159" y="206"/>
      <point x="185" y="206" type="curve" smooth="yes"/>
      <point x="293" y="206"/>
      <point x="390" y="186"/>
      <point x="390" y="61" type="curve" smooth="yes"/>
      <point x="390" y="-24"/>
      <point x="345" y="-78"/>
      <point x="249" y="-78" type="curve" smooth="yes"/>
      <point x="177" y="-78"/>
      <point x="131" y="-39"/>
      <point x="112" y="20" type="curve"/>
      <point x="55" y="0" type="line"/>
      <point x="71" y="-79"/>
      <point x="136" y="-140"/>
      <point x="255" y="-140" type="curve" smooth="yes"/>
      <point x="389" y="-140"/>
      <point x="468" y="-65"/>
    </contour>
    <contour>
      <point x="-12" y="917" type="line"/>
      <point x="520" y="917" type="line"/>
      <point x="520" y="-213" type="line"/>
      <point x="-12" y="-213" type="line"/>
    </contour>
  </outline>
</glyph>
<glyph name="seven" format="1">
  <advance width="467"/>
  <unicode hex="0037"/>
  <outline>
    <contour>
      <point x="453" y="479" type="line"/>
      <point x="443" y="521" type="line"/>
      <point x="32" y="521" type="line"/>
      <point x="32" y="347" type="line"/>
      <point x="98" y="347" type="line"/>
      <point x="98" y="458" type="line"/>
      <point x="375" y="458" type="line"/>
      <point x="133" y="-130" type="line"/>
      <point x="206" y="-130" type="line"/>
    </contour>
    <contour>
      <point x="-12" y="917" type="line"/>
      <point x="479" y="917" type="line"/>
      <point x="479" y="-213" type="line"/>
      <point x="-12" y="-213" type="line"/>
    </contour>
  </outline>
</glyph>
<glyph name="nine" format="1">
  <advance width="528"/>
  <unicode hex="0039"/>
  <outline>
    <contour>
      <point x="46" y="316" type="curve" smooth="yes"/>
      <point x="46" y="209"/>
      <point x="97" y="118"/>
      <point x="229" y="118" type="curve" smooth="yes"/>
      <point x="334" y="118"/>
      <point x="385" y="174"/>
      <point x="405" y="228" type="curve"/>
      <point x="405" y="226"/>
      <point x="405" y="209"/>
      <point x="404" y="207" type="curve" smooth="yes"/>
      <point x="402" y="26"/>
      <point x="368" y="-76"/>
      <point x="244" y="-76" type="curve" smooth="yes"/>
      <point x="187" y="-76"/>
      <point x="135" y="-51"/>
      <point x="100" y="-7" type="curve"/>
      <point x="57" y="-51" type="line"/>
      <point x="105" y="-110"/>
      <point x="160" y="-139"/>
      <point x="243" y="-139" type="curve" smooth="yes"/>
      <point x="418" y="-139"/>
      <point x="481" y="14"/>
      <point x="481" y="214" type="curve" smooth="yes"/>
      <point x="481" y="396"/>
      <point x="430" y="531"/>
      <point x="256" y="531" type="curve" smooth="yes"/>
      <point x="109" y="531"/>
      <point x="46" y="434"/>
    </contour>
    <contour>
      <point x="120" y="319" type="curve" smooth="yes"/>
      <point x="120" y="410"/>
      <point x="158" y="465"/>
      <point x="254" y="465" type="curve" smooth="yes"/>
      <point x="352" y="465"/>
      <point x="388" y="406"/>
      <point x="400" y="321" type="curve"/>
      <point x="395" y="260"/>
      <point x="356" y="181"/>
      <point x="247" y="181" type="curve" smooth="yes"/>
      <point x="157" y="181"/>
      <point x="120" y="231"/>
    </contour>
    <contour>
      <point x="-12" y="917" type="line"/>
      <point x="540" y="917" type="line"/>
      <point x="540" y="-213" type="line"/>
      <point x="-12" y="-213" type="line"/>
    </contour>
  </outline>
</glyph>
<glyph name="semicolon" format="1">
  <advance width="227"/>
  <unicode hex="003B"/>
  <outline>
    <contour>
      <point x="152" y="114" type="line"/>
      <point x="83" y="114" type="line"/>
      <point x="30" y="-102" type="line"/>
      <point x="99" y="-102" type="line"/>
    </contour>
    <contour>
      <point x="77" y="337" type="line"/>
      <point x="171" y="337" type="line"/>
      <point x="171" y="445" type="line"/>
      <point x="77" y="445" type="line"/>
    </contour>
    <contour>
      <point x="-12" y="917" type="line"/>
      <point x="239" y="917" type="line"/>
      <point x="239" y="-213" type="line"/>
      <point x="-12" y="-213" type="line"/>
    </contour>
  </outline>
</glyph>
<glyph name="less" format="1">
  <advance width="404"/>
  <unicode hex="003C"/>
  <outline>
    <contour>
      <point x="347" y="14" type="line"/>
      <point x="347" y="83" type="line"/>
      <point x="105" y="280" type="line"/>
      <point x="346" y="480" type="line"/>
      <point x="346" y="549" type="line"/>
      <point x="28" y="289" type="line"/>
      <point x="28" y="269" type="line"/>
    </contour>
    <contour>
      <point x="-12" y="917" type="line"/>
      <point x="416" y="917" type="line"/>
      <point x="416" y="-213" type="line"/>
      <point x="-12" y="-213" type="line"/>
    </contour>
  </outline>
</glyph>
<glyph name="equal" format="1">
  <advance width="574"/>
  <unicode hex="003D"/>
  <outline>
    <contour>
      <point x="59" y="364" type="line"/>
      <point x="516" y="364" type="line"/>
      <point x="516" y="418" type="line"/>
      <point x="59" y="418" type="line"/>
    </contour>
    <contour>
      <point x="59" y="144" type="line"/>
      <point x="516" y="144" type="line"/>
      <point x="516" y="196" type="line"/>
      <point x="59" y="196" type="line"/>
    </contour>
    <contour>
      <point x="-12" y="917" type="line"/>
      <point x="586" y="917" type="line"/>
      <point x="586" y="-213" type="line"/>
      <point x="-12" y="-213" type="line"/>
    </contour>
  </outline>
</glyph>
<glyph name="greater" format="1">
  <advance width="404"/>
  <unicode hex="003E"/>
  <outline>
    <contour>
      <point x="375" y="269" type="line"/>
      <point x="375" y="289" type="line"/>
      <point x="57" y="549" type="line"/>
      <point x="57" y="480" type="line"/>
      <point x="298" y="280" type="line"/>
      <point x="56" y="83" type="line"/>
      <point x="56" y="14" type="line"/>
    </contour>
    <contour>
      <point x="-12" y="917" type="line"/>
      <point x="416" y="917" type="line"/>
      <point x="416" y="-213" type="line"/>
      <point x="-12" y="-213" type="line"/>
    </contour>
  </outline>
</glyph>
<glyph name="A" format="1">
  <advance width="622"/>
  <unicode hex="0041"/>
  <outline>
    <contour>
      <point x="-12" y="917" type="line"/>
      <point x="-12" y="64" type="line"/>
      <point x="67" y="64" type="line"/>
      <point x="260" y="586" type="line"/>
      <point x="156" y="586" type="line"/>
      <point x="156" y="650" type="line"/>
      <point x="342" y="650" type="line"/>
      <point x="555" y="64" type="line"/>
      <point x="634" y="64" type="line"/>
      <point x="634" y="917" type="line"/>
    </contour>
    <contour>
      <point x="316" y="544" type="line"/>
      <point x="311" y="544" type="line"/>
      <point x="203" y="246" type="line"/>
      <point x="422" y="246" type="line"/>
    </contour>
    <contour>
      <point x="634" y="-213" type="line"/>
      <point x="634" y="0" type="line"/>
      <point x="409" y="0" type="line"/>
      <point x="409" y="64" type="line"/>
      <point x="486" y="64" type="line"/>
      <point x="442" y="189" type="line"/>
      <point x="182" y="189" type="line"/>
      <point x="136" y="64" type="line"/>
      <point x="216" y="64" type="line"/>
      <point x="216" y="0" type="line"/>
      <point x="-12" y="0" type="line"/>
      <point x="-12" y="-213" type="line"/>
    </contour>
  </outline>
</glyph>
<glyph name="F" format="1">
  <advance width="554"/>
  <unicode hex="0046"/>
  <outline>
    <contour>
      <point x="467" y="456" type="line"/>
      <point x="447" y="586" type="line"/>
      <point x="195" y="586" type="line"/>
      <point x="195" y="333" type="line"/>
      <point x="494" y="333" type="line"/>
      <point x="494" y="269" type="line"/>
      <point x="195" y="269" type="line"/>
      <point x="195" y="64" type="line"/>
      <point x="310" y="64" type="line"/>
      <point x="310" y="0" type="line"/>
      <point x="40" y="0" type="line"/>
      <point x="40" y="64" type="line"/>
      <point x="122" y="64" type="line"/>
      <point x="122" y="586" type="line"/>
      <point x="40" y="586" type="line"/>
      <point x="40" y="650" type="line"/>
      <point x="512" y="650" type="line"/>
      <point x="533" y="463" type="line"/>
    </contour>
    <contour>
      <point x="-12" y="-213" type="line"/>
      <point x="566" y="-213" type="line"/>
      <point x="566" y="917" type="line"/>
      <point x="-12" y="917" type="line"/>
    </contour>
  </outline>
</glyph>
<glyph name="H" format="1">
  <advance width="752"/>
  <unicode hex="0048"/>
  <outline>
    <contour>
      <point x="474" y="0" type="line"/>
      <point x="474" y="64" type="line"/>
      <point x="556" y="64" type="line"/>
      <point x="556" y="300" type="line"/>
      <point x="195" y="300" type="line"/>
      <point x="195" y="64" type="line"/>
      <point x="277" y="64" type="line"/>
      <point x="277" y="0" type="line"/>
      <point x="40" y="0" type="line"/>
      <point x="40" y="64" type="line"/>
      <point x="122" y="64" type="line"/>
      <point x="122" y="586" type="line"/>
      <point x="40" y="586" type="line"/>
      <point x="40" y="650" type="line"/>
      <point x="277" y="650" type="line"/>
      <point x="277" y="586" type="line"/>
      <point x="195" y="586" type="line"/>
      <point x="195" y="362" type="line"/>
      <point x="556" y="362" type="line"/>
      <point x="556" y="586" type="line"/>
      <point x="474" y="586" type="line"/>
      <point x="474" y="650" type="line"/>
      <point x="711" y="650" type="line"/>
      <point x="711" y="586" type="line"/>
      <point x="629" y="586" type="line"/>
      <point x="629" y="64" type="line"/>
      <point x="711" y="64" type="line"/>
      <point x="711" y="0" type="line"/>
    </contour>
    <contour>
      <point x="-12" y="-213" type="line"/>
      <point x="764" y="-213" type="line"/>
      <point x="764" y="917" type="line"/>
      <point x="-12" y="917" type="line"/>
    </contour>
  </outline>
</glyph>
<glyph name="L" format="1">
  <advance width="540"/>
  <unicode hex="004C"/>
  <outline>
    <contour>
      <point x="40" y="0" type="line"/>
      <point x="40" y="64" type="line"/>
      <point x="122" y="64" type="line"/>
      <point x="122" y="586" type="line"/>
      <point x="40" y="586" type="line"/>
      <point x="40" y="650" type="line"/>
      <point x="304" y="650" type="line"/>
      <point x="304" y="586" type="line"/>
      <point x="195" y="586" type="line"/>
      <point x="195" y="64" type="line"/>
      <point x="434" y="64" type="line"/>
      <point x="454" y="213" type="line"/>
      <point x="519" y="208" type="line"/>
      <point x="499" y="0" type="line"/>
    </contour>
    <contour>
      <point x="-12" y="-213" type="line"/>
      <point x="552" y="-213" type="line"/>
      <point x="552" y="917" type="line"/>
      <point x="-12" y="917" type="line"/>
    </contour>
  </outline>
</glyph>
<glyph name="Q" format="1">
  <advance width="732"/>
  <unicode hex="0051"/>
  <outline>
    <contour>
      <point x="688" y="325" type="curve" smooth="yes"/>
      <point x="688" y="233"/>
      <point x="654" y="150"/>
      <point x="598" y="89" type="curve"/>
      <point x="673" y="13" type="line"/>
      <point x="627" y="-33" type="line"/>
      <point x="548" y="47" type="line"/>
      <point x="497" y="11"/>
      <point x="433" y="-10"/>
      <point x="360" y="-10" type="curve" smooth="yes"/>
      <point x="164" y="-10"/>
      <point x="37" y="141"/>
      <point x="37" y="325" type="curve" smooth="yes"/>
      <point x="37" y="512"/>
      <point x="170" y="660"/>
      <point x="362" y="660" type="curve" smooth="yes"/>
      <point x="557" y="660"/>
      <point x="688" y="510"/>
    </contour>
    <contour>
      <point x="609" y="324" type="curve" smooth="yes"/>
      <point x="609" y="480"/>
      <point x="513" y="594"/>
      <point x="362" y="594" type="curve" smooth="yes"/>
      <point x="208" y="594"/>
      <point x="116" y="475"/>
      <point x="116" y="326" type="curve" smooth="yes"/>
      <point x="116" y="179"/>
      <point x="206" y="56"/>
      <point x="364" y="56" type="curve" smooth="yes"/>
      <point x="416" y="56"/>
      <point x="463" y="70"/>
      <point x="500" y="96" type="curve"/>
      <point x="379" y="218" type="line"/>
      <point x="426" y="264" type="line"/>
      <point x="548" y="140" type="line"/>
      <point x="588" y="187"/>
      <point x="609" y="252"/>
    </contour>
    <contour>
      <point x="-12" y="-213" type="line"/>
      <point x="744" y="-213" type="line"/>
      <point x="744" y="917" type="line"/>
      <point x="-12" y="917" type="line"/>
    </contour>
  </outline>
</glyph>
<glyph name="S" format="1">
  <advance width="529"/>
  <unicode hex="0053"/>
  <outline>
    <contour>
      <point x="488" y="182" type="curve" smooth="yes"/>
      <point x="488" y="57"/>
      <point x="388" y="-10"/>
      <point x="256" y="-10" type="curve" smooth="yes"/>
      <point x="169" y="-10"/>
      <point x="91" y="11"/>
      <point x="47" y="43" type="curve"/>
      <point x="61" y="171" type="line"/>
      <point x="121" y="165" type="line"/>
      <point x="117" y="83" type="line"/>
      <point x="161" y="61"/>
      <point x="204" y="54"/>
      <point x="252" y="54" type="curve" smooth="yes"/>
      <point x="338" y="54"/>
      <point x="409" y="87"/>
      <point x="409" y="175" type="curve" smooth="yes"/>
      <point x="409" y="274"/>
      <point x="327" y="290"/>
      <point x="247" y="308" type="curve" smooth="yes"/>
      <point x="155" y="327"/>
      <point x="51" y="352"/>
      <point x="51" y="480" type="curve" smooth="yes"/>
      <point x="51" y="602"/>
      <point x="146" y="660"/>
      <point x="258" y="660" type="curve" smooth="yes"/>
      <point x="330" y="660"/>
      <point x="412" y="638"/>
      <point x="453" y="606" type="curve"/>
      <point x="459" y="477" type="line"/>
      <point x="399" y="471" type="line"/>
      <point x="389" y="568" type="line"/>
      <point x="348" y="590"/>
      <point x="303" y="595"/>
      <point x="265" y="595" type="curve" smooth="yes"/>
      <point x="184" y="595"/>
      <point x="129" y="558"/>
      <point x="129" y="488" type="curve" smooth="yes"/>
      <point x="129" y="407"/>
      <point x="201" y="389"/>
      <point x="274" y="372" type="curve" smooth="yes"/>
      <point x="361" y="352"/>
      <point x="488" y="331"/>
    </contour>
    <contour>
      <point x="-12" y="-213" type="line"/>
      <point x="541" y="-213" type="line"/>
      <point x="541" y="917" type="line"/>
      <point x="-12" y="917" type="line"/>
    </contour>
  </outline>
</glyph>
<glyph name="U" format="1">
  <advance width="714"/>
  <unicode hex="0055"/>
  <outline>
    <contour>
      <point x="615" y="586" type="line"/>
      <point x="615" y="267" type="line" smooth="yes"/>
      <point x="615" y="129"/>
      <point x="555" y="-10"/>
      <point x="355" y="-10" type="curve" smooth="yes"/>
      <point x="162" y="-10"/>
      <point x="101" y="116"/>
      <point x="101" y="256" type="curve" smooth="yes"/>
      <point x="101" y="586" type="line"/>
      <point x="34" y="586" type="line"/>
      <point x="34" y="650" type="line"/>
      <point x="265" y="650" type="line"/>
      <point x="265" y="586" type="line"/>
      <point x="175" y="586" type="line"/>
      <point x="175" y="258" type="line" smooth="yes"/>
      <point x="175" y="130"/>
      <point x="234" y="56"/>
      <point x="359" y="56" type="curve" smooth="yes"/>
      <point x="480" y="56"/>
      <point x="546" y="128"/>
      <point x="546" y="267" type="curve" smooth="yes"/>
      <point x="546" y="586" type="line"/>
      <point x="453" y="586" type="line"/>
      <point x="453" y="650" type="line"/>
      <point x="678" y="650" type="line"/>
      <point x="678" y="586" type="line"/>
    </contour>
    <contour>
      <point x="-12" y="-213" type="line"/>
      <point x="726" y="-213" type="line"/>
      <point x="726" y="917" type="line"/>
      <point x="-12" y="917" type="line"/>
    </contour>
  </outline>
</glyph>
<glyph name="backslash" format="1">
  <advance width="335"/>
  <unicode hex="005C"/>
  <outline>
    <contour>
      <point x="21" y="688" type="line"/>
      <point x="236" y="0" type="line"/>
      <point x="305" y="0" type="line"/>
      <point x="90" y="688" type="line"/>
    </contour>
    <contour>
      <point x="347" y="-213" type="line"/>
      <point x="-12" y="-213" type="line"/>
      <point x="-12" y="917" type="line"/>
      <point x="347" y="917" type="line"/>
    </contour>
  </outline>
</glyph>
<glyph name="bracketright" format="1">
  <advance width="295"/>
  <unicode hex="005D"/>
  <outline>
    <contour>
      <point x="213" y="750" type="line"/>
      <point x="36" y="750" type="line"/>
      <point x="36" y="698" type="line"/>
      <point x="150" y="698" type="line"/>
      <point x="150" y="-154" type="line"/>
      <point x="36" y="-154" type="line"/>
      <point x="36" y="-206" type="line"/>
      <point x="213" y="-206" type="line"/>
    </contour>
    <contour>
      <point x="307" y="-213" type="line"/>
      <point x="-12" y="-213" type="line"/>
      <point x="-12" y="917" type="line"/>
      <point x="307" y="917" type="line"/>
    </contour>
  </outline>
</glyph>
<glyph name="asciicircum" format="1">
  <advance width="448"/>
  <unicode hex="005E"/>
  <outline>
    <contour>
      <point x="200" y="656" type="line"/>
      <point x="39" y="373" type="line"/>
      <point x="105" y="373" type="line"/>
      <point x="222" y="587" type="line"/>
      <point x="345" y="373" type="line"/>
      <point x="411" y="373" type="line"/>
      <point x="245" y="656" type="line"/>
    </contour>
    <contour>
      <point x="-12" y="917" type="line"/>
      <point x="460" y="917" type="line"/>
      <point x="460" y="-213" type="line"/>
      <point x="-12" y="-213" type="line"/>
    </contour>
  </outline>
</glyph>
<glyph name="grave" format="1">
  <advance width="170"/>
  <unicode hex="0060"/>
  <outline>
    <contour>
      <point x="161" y="520" type="line"/>
      <point x="-12" y="624" type="line"/>
      <point x="28" y="683" type="line"/>
      <point x="182" y="551" type="line"/>
    </contour>
  </outline>
</glyph>
<glyph name="e" format="1">
  <advance width="466"/>
  <unicode hex="0065"/>
  <outline>
    <contour>
      <point x="433" y="128" type="line"/>
      <point x="421" y="52"/>
      <point x="356" y="-10"/>
      <point x="246" y="-10" type="curve" smooth="yes"/>
      <point x="120" y="-10"/>
      <point x="36" y="72"/>
      <point x="36" y="216" type="curve" smooth="yes"/>
      <point x="36" y="354"/>
      <point x="114" y="454"/>
      <point x="240" y="454" type="curve" smooth="yes"/>
      <point x="362" y="454"/>
      <point x="428" y="364"/>
      <point x="429" y="259" type="curve" smooth="yes"/>
      <point x="429" y="242"/>
      <point x="427" y="224"/>
      <point x="423" y="206" type="curve"/>
      <point x="110" y="206" type="line"/>
      <point x="114" y="107"/>
      <point x="163" y="50"/>
      <point x="251" y="50" type="curve" smooth="yes"/>
      <point x="321" y="50"/>
      <point x="360" y="86"/>
      <point x="374" y="141" type="curve"/>
    </contour>
    <contour>
      <point x="355" y="258" type="line"/>
      <point x="362" y="324"/>
      <point x="325" y="396"/>
      <point x="238" y="396" type="curve" smooth="yes"/>
      <point x="156" y="396"/>
      <point x="120" y="333"/>
      <point x="111" y="258" type="curve"/>
    </contour>
    <contour>
      <point x="-12" y="-213" type="line"/>
      <point x="478" y="-213" type="line"/>
      <point x="478" y="917" type="line"/>
      <point x="-12" y="917" type="line"/>
    </contour>
  </outline>
</glyph>
<glyph name="f" format="1">
  <advance width="335"/>
  <unicode hex="0066"/>
  <outline>
    <contour>
      <point x="-12" y="-213" type="line"/>
      <point x="347" y="-213" type="line"/>
      <point x="347" y="622" type="line"/>
      <point x="325" y="631"/>
      <point x="283" y="637"/>
      <point x="253" y="637" type="curve" smooth="yes"/>
      <point x="203" y="637"/>
      <point x="172" y="602"/>
      <point x="172" y="532" type="curve" smooth="yes"/>
      <point x="172" y="445" type="line"/>
      <point x="287" y="445" type="line"/>
      <point x="287" y="389" type="line"/>
      <point x="172" y="389" type="line"/>
      <point x="172" y="57" type="line"/>
      <point x="273" y="57" type="line"/>
      <point x="273" y="0" type="line"/>
      <point x="24" y="0" type="line"/>
      <point x="24" y="57" type="line"/>
      <point x="101" y="57" type="line"/>
      <point x="101" y="389" type="line"/>
      <point x="37" y="389" type="line"/>
      <point x="37" y="445" type="line"/>
      <point x="101" y="445" type="line"/>
      <point x="101" y="528" type="line" smooth="yes"/>
      <point x="101" y="632"/>
      <point x="172" y="698"/>
      <point x="258" y="698" type="curve" smooth="yes"/>
      <point x="284" y="698"/>
      <point x="326" y="696"/>
      <point x="347" y="687" type="curve"/>
      <point x="347" y="917" type="line"/>
      <point x="-12" y="917" type="line"/>
    </contour>
  </outline>
</glyph>
<glyph name="i" format="1">
  <advance width="277"/>
  <unicode hex="0069"/>
  <outline>
    <contour>
      <point x="32" y="0" type="line"/>
      <point x="32" y="57" type="line"/>
      <point x="110" y="57" type="line"/>
      <point x="110" y="388" type="line"/>
      <point x="30" y="388" type="line"/>
      <point x="30" y="445" type="line"/>
      <point x="180" y="445" type="line"/>
      <point x="180" y="57" type="line"/>
      <point x="258" y="57" type="line"/>
      <point x="258" y="0" type="line"/>
    </contour>
    <contour>
      <point x="103" y="651" type="line"/>
      <point x="179" y="651" type="line"/>
      <point x="179" y="560" type="line"/>
      <point x="103" y="560" type="line"/>
    </contour>
    <contour>
      <point x="-12" y="-213" type="line"/>
      <point x="289" y="-213" type="line"/>
      <point x="289" y="917" type="line"/>
      <point x="-12" y="917" type="line"/>
    </contour>
    <contour>
      <point x="300" y="566" type="move" name="top"/>
    </contour>
  </outline>
</glyph>
<glyph name="j" format="1">
  <advance width="247"/>
  <unicode hex="006A"/>
  <outline>
    <contour>
      <point x="-12" y="917" type="line"/>
      <point x="259" y="917" type="line"/>
      <point x="259" y="-213" type="line"/>
      <point x="15" y="-213" type="line"/>
      <point x="108" y="-210"/>
      <point x="175" y="-157"/>
      <point x="175" y="-4" type="curve" smooth="yes"/>
      <point x="175" y="445" type="line"/>
      <point x="5" y="445" type="line"/>
      <point x="5" y="388" type="line"/>
      <point x="104" y="388" type="line"/>
      <point x="104" y="-4" type="line" smooth="yes"/>
      <point x="104" y="-148"/>
      <point x="43" y="-158"/>
      <point x="-12" y="-158" type="curve"/>
    </contour>
    <contour>
      <point x="99" y="560" type="line"/>
      <point x="175" y="560" type="line"/>
      <point x="175" y="651" type="line"/>
      <point x="99" y="651" type="line"/>
    </contour>
  </outline>
</glyph>
<glyph name="l" format="1">
  <advance width="262"/>
  <unicode hex="006C"/>
  <outline>
    <contour>
      <point x="18" y="0" type="line"/>
      <point x="18" y="57" type="line"/>
      <point x="96" y="57" type="line"/>
      <point x="96" y="631" type="line"/>
      <point x="17" y="631" type="line"/>
      <point x="17" y="688" type="line"/>
      <point x="166" y="688" type="line"/>
      <point x="166" y="57" type="line"/>
      <point x="244" y="57" type="line"/>
      <point x="244" y="0" type="line"/>
    </contour>
    <contour>
      <point x="-12" y="-213" type="line"/>
      <point x="274" y="-213" type="line"/>
      <point x="274" y="917" type="line"/>
      <point x="-12" y="917" type="line"/>
    </contour>
    <contour>
      <point x="287" y="566" type="move" name="top"/>
    </contour>
  </outline>
</glyph>
<glyph name="n" format="1">
  <advance width="570"/>
  <unicode hex="006E"/>
  <outline>
    <contour>
      <point x="337" y="0" type="line"/>
      <point x="337" y="57" type="line"/>
      <point x="414" y="57" type="line"/>
      <point x="414" y="264" type="line" smooth="yes"/>
      <point x="414" y="360"/>
      <point x="371" y="395"/>
      <point x="311" y="395" type="curve" smooth="yes"/>
      <point x="231" y="395"/>
      <point x="179" y="333"/>
      <point x="176" y="265" type="curve"/>
      <point x="176" y="57" type="line"/>
      <point x="254" y="57" type="line"/>
      <point x="254" y="0" type="line"/>
      <point x="28" y="0" type="line"/>
      <point x="28" y="57" type="line"/>
      <point x="106" y="57" type="line"/>
      <point x="106" y="388" type="line"/>
      <point x="26" y="388" type="line"/>
      <point x="26" y="445" type="line"/>
      <point x="176" y="445" type="line"/>
      <point x="176" y="366" type="line"/>
      <point x="206" y="421"/>
      <point x="261" y="454"/>
      <point x="332" y="454" type="curve" smooth="yes"/>
      <point x="419" y="454"/>
      <point x="485" y="403"/>
      <point x="485" y="285" type="curve" smooth="yes"/>
      <point x="485" y="57" type="line"/>
      <point x="562" y="57" type="line"/>
      <point x="562" y="0" type="line"/>
    </contour>
    <contour>
      <point x="-12" y="-213" type="line"/>
      <point x="582" y="-213" type="line"/>
      <point x="582" y="917" type="line"/>
      <point x="-12" y="917" type="line"/>
    </contour>
    <contour>
      <point x="291" y="566" type="move" name="top"/>
    </contour>
  </outline>
</glyph>
<glyph name="p" format="1">
  <advance width="545"/>
  <unicode hex="0070"/>
  <outline>
    <contour>
      <point x="90" y="-156" type="line"/>
      <point x="90" y="388" type="line"/>
      <point x="10" y="388" type="line"/>
      <point x="10" y="445" type="line"/>
      <point x="160" y="445" type="line"/>
      <point x="160" y="352" type="line"/>
      <point x="187" y="406"/>
      <point x="236" y="454"/>
      <point x="318" y="454" type="curve" smooth="yes"/>
      <point x="432" y="454"/>
      <point x="510" y="373"/>
      <point x="510" y="235" type="curve" smooth="yes"/>
      <point x="510" y="116"/>
      <point x="452" y="-10"/>
      <point x="307" y="-10" type="curve" smooth="yes"/>
      <point x="244" y="-10"/>
      <point x="190" y="16"/>
      <point x="160" y="65" type="curve"/>
      <point x="160" y="-156" type="line"/>
      <point x="263" y="-156" type="line"/>
      <point x="263" y="-213" type="line"/>
      <point x="557" y="-213" type="line"/>
      <point x="557" y="917" type="line"/>
      <point x="-12" y="917" type="line"/>
      <point x="-12" y="-213" type="line"/>
      <point x="11" y="-213" type="line"/>
      <point x="11" y="-156" type="line"/>
    </contour>
    <contour>
      <point x="436" y="229" type="curve" smooth="yes"/>
      <point x="436" y="336"/>
      <point x="378" y="394"/>
      <point x="300" y="394" type="curve" smooth="yes"/>
      <point x="220" y="394"/>
      <point x="163" y="316"/>
      <point x="160" y="248" type="curve"/>
      <point x="160" y="182" type="line" smooth="yes"/>
      <point x="160" y="107"/>
      <point x="219" y="50"/>
      <point x="293" y="50" type="curve" smooth="yes"/>
      <point x="393" y="50"/>
      <point x="436" y="134"/>
    </contour>
    <contour>
      <point x="292" y="566" type="move" name="top"/>
    </contour>
  </outline>
</glyph>
<glyph name="z" format="1">
  <advance width="461"/>
  <unicode hex="007A"/>
  <outline>
    <contour>
      <point x="37" y="0" type="line"/>
      <point x="34" y="43" type="line"/>
      <point x="314" y="388" type="line"/>
      <point x="104" y="388" type="line"/>
      <point x="91" y="299" type="line"/>
      <point x="35" y="306" type="line"/>
      <point x="47" y="445" type="line"/>
      <point x="405" y="445" type="line"/>
      <point x="408" y="403" type="line"/>
      <point x="126" y="57" type="line"/>
      <point x="355" y="57" type="line"/>
      <point x="378" y="147" type="line"/>
      <point x="435" y="138" type="line"/>
      <point x="411" y="0" type="line"/>
    </contour>
    <contour>
      <point x="-12" y="-213" type="line"/>
      <point x="473" y="-213" type="line"/>
      <point x="473" y="917" type="line"/>
      <point x="-12" y="917" type="line"/>
    </contour>
    <contour>
      <point x="191" y="505" type="move" name="top"/>
    </contour>
  </outline>
</glyph>
<glyph name="braceleft" format="1">
  <advance width="292"/>
  <unicode hex="007B"/>
  <outline>
    <contour>
      <point x="108" y="269" type="curve"/>
      <point x="179" y="257"/>
      <point x="206" y="222"/>
      <point x="206" y="185" type="curve" smooth="yes"/>
      <point x="206" y="119"/>
      <point x="120" y="-1"/>
      <point x="120" y="-89" type="curve" smooth="yes"/>
      <point x="120" y="-133"/>
      <point x="141" y="-153"/>
      <point x="183" y="-153" type="curve" smooth="yes"/>
      <point x="247" y="-153" type="line"/>
      <point x="247" y="-205" type="line"/>
      <point x="183" y="-205" type="line" smooth="yes"/>
      <point x="101" y="-205"/>
      <point x="60" y="-158"/>
      <point x="60" y="-89" type="curve" smooth="yes"/>
      <point x="60" y="10"/>
      <point x="145" y="127"/>
      <point x="145" y="187" type="curve" smooth="yes"/>
      <point x="145" y="239"/>
      <point x="78" y="249"/>
      <point x="47" y="249" type="curve" smooth="yes"/>
      <point x="28" y="249" type="line"/>
      <point x="28" y="288" type="line"/>
      <point x="47" y="288" type="line" smooth="yes"/>
      <point x="77" y="288"/>
      <point x="145" y="298"/>
      <point x="145" y="350" type="curve" smooth="yes"/>
      <point x="145" y="409"/>
      <point x="60" y="535"/>
      <point x="60" y="634" type="curve" smooth="yes"/>
      <point x="60" y="706"/>
      <point x="103" y="750"/>
      <point x="183" y="750" type="curve" smooth="yes"/>
      <point x="247" y="750" type="line"/>
      <point x="247" y="698" type="line"/>
      <point x="183" y="698" type="line" smooth="yes"/>
      <point x="141" y="698"/>
      <point x="120" y="678"/>
      <point x="120" y="634" type="curve" smooth="yes"/>
      <point x="120" y="545"/>
      <point x="206" y="418"/>
      <point x="206" y="352" type="curve" smooth="yes"/>
      <point x="206" y="316"/>
      <point x="180" y="280"/>
    </contour>
    <contour>
      <point x="-12" y="-213" type="line"/>
      <point x="304" y="-213" type="line"/>
      <point x="304" y="917" type="line"/>
      <point x="-12" y="917" type="line"/>
    </contour>
  </outline>
</glyph>
<glyph name="bar" format="1">
  <advance width="230"/>
  <unicode hex="007C"/>
  <outline>
    <contour>
      <point x="83" y="730" type="line"/>
      <point x="83" y="-80" type="line"/>
      <point x="146" y="-80" type="line"/>
      <point x="146" y="730" type="line"/>
    </contour>
    <contour>
      <point x="-12" y="917" type="line"/>
      <point x="242" y="917" type="line"/>
      <point x="242" y="-213" type="line"/>
      <point x="-12" y="-213" type="line"/>
    </contour>
  </outline>
</glyph>
<glyph name="braceright" format="1">
  <advance width="292"/>
  <unicode hex="007D"/>
  <outline>
    <contour>
      <point x="184" y="270" type="curve"/>
      <point x="113" y="258"/>
      <point x="86" y="223"/>
      <point x="86" y="186" type="curve" smooth="yes"/>
      <point x="86" y="120"/>
      <point x="172" y="0"/>
      <point x="172" y="-88" type="curve" smooth="yes"/>
      <point x="172" y="-132"/>
      <point x="151" y="-152"/>
      <point x="109" y="-152" type="curve" smooth="yes"/>
      <point x="45" y="-152" type="line"/>
      <point x="45" y="-204" type="line"/>
      <point x="109" y="-204" type="line" smooth="yes"/>
      <point x="191" y="-204"/>
      <point x="232" y="-157"/>
      <point x="232" y="-88" type="curve" smooth="yes"/>
      <point x="232" y="11"/>
      <point x="147" y="128"/>
      <point x="147" y="188" type="curve" smooth="yes"/>
      <point x="147" y="240"/>
      <point x="214" y="250"/>
      <point x="245" y="250" type="curve" smooth="yes"/>
      <point x="264" y="250" type="line"/>
      <point x="264" y="289" type="line"/>
      <point x="245" y="289" type="line" smooth="yes"/>
      <point x="215" y="289"/>
      <point x="147" y="299"/>
      <point x="147" y="351" type="curve" smooth="yes"/>
      <point x="147" y="410"/>
      <point x="232" y="536"/>
      <point x="232" y="635" type="curve" smooth="yes"/>
      <point x="232" y="707"/>
      <point x="189" y="751"/>
      <point x="109" y="751" type="curve" smooth="yes"/>
      <point x="45" y="751" type="line"/>
      <point x="45" y="699" type="line"/>
      <point x="109" y="699" type="line" smooth="yes"/>
      <point x="151" y="699"/>
      <point x="172" y="679"/>
      <point x="172" y="635" type="curve" smooth="yes"/>
      <point x="172" y="546"/>
      <point x="86" y="419"/>
      <point x="86" y="353" type="curve" smooth="yes"/>
      <point x="86" y="317"/>
      <point x="112" y="281"/>
    </contour>
    <contour>
      <point x="304" y="-212" type="line"/>
      <point x="-12" y="-212" type="line"/>
      <point x="-12" y="918" type="line"/>
      <point x="304" y="918" type="line"/>
    </contour>
  </outline>
</glyph>
<glyph name="cent" format="1">
  <advance width="472"/>
  <unicode hex="00A2"/>
  <outline>
    <contour>
      <point x="428" y="150" type="curve"/>
      <point x="369" y="163" type="line"/>
      <point x="356" y="98"/>
      <point x="325" y="60"/>
      <point x="269" y="53" type="curve"/>
      <point x="269" y="392" type="line"/>
      <point x="297" y="389"/>
      <point x="320" y="381"/>
      <point x="340" y="368" type="curve"/>
      <point x="357" y="294" type="line"/>
      <point x="415" y="301" type="line"/>
      <point x="398" y="408" type="line"/>
      <point x="360" y="437"/>
      <point x="317" y="450"/>
      <point x="269" y="453" type="curve"/>
      <point x="269" y="529" type="line"/>
      <point x="223" y="529" type="line"/>
      <point x="223" y="453" type="line"/>
      <point x="99" y="441"/>
      <point x="38" y="331"/>
      <point x="38" y="216" type="curve" smooth="yes"/>
      <point x="38" y="80"/>
      <point x="109" y="-2"/>
      <point x="223" y="-9" type="curve"/>
      <point x="223" y="-84" type="line"/>
      <point x="269" y="-84" type="line"/>
      <point x="269" y="-8" type="line"/>
      <point x="370" y="3"/>
      <point x="417" y="78"/>
    </contour>
    <contour>
      <point x="114" y="220" type="curve" smooth="yes"/>
      <point x="114" y="306"/>
      <point x="143" y="380"/>
      <point x="223" y="391" type="curve"/>
      <point x="223" y="53" type="line"/>
      <point x="151" y="64"/>
      <point x="114" y="124"/>
    </contour>
    <contour>
      <point x="-12" y="917" type="line"/>
      <point x="484" y="917" type="line"/>
      <point x="484" y="-213" type="line"/>
      <point x="-12" y="-213" type="line"/>
    </contour>
  </outline>
</glyph>
<glyph name="yen" format="1">
  <advance width="584"/>
  <unicode hex="00A5"/>
  <outline>
    <contour>
      <point x="550" y="521" type="line"/>
      <point x="355" y="521" type="line"/>
      <point x="355" y="465" type="line"/>
      <point x="428" y="465" type="line"/>
      <point x="301" y="259" type="line"/>
      <point x="296" y="259" type="line"/>
      <point x="164" y="465" type="line"/>
      <point x="235" y="465" type="line"/>
      <point x="235" y="521" type="line"/>
      <point x="32" y="521" type="line"/>
      <point x="32" y="465" type="line"/>
      <point x="85" y="465" type="line"/>
      <point x="227" y="249" type="line"/>
      <point x="123" y="249" type="line"/>
      <point x="123" y="206" type="line"/>
      <point x="256" y="206" type="line"/>
      <point x="259" y="201" type="line"/>
      <point x="259" y="152" type="line"/>
      <point x="123" y="152" type="line"/>
      <point x="123" y="110" type="line"/>
      <point x="259" y="110" type="line"/>
      <point x="259" y="56" type="line"/>
      <point x="167" y="56" type="line"/>
      <point x="167" y="0" type="line"/>
      <point x="426" y="0" type="line"/>
      <point x="426" y="56" type="line"/>
      <point x="330" y="56" type="line"/>
      <point x="330" y="110" type="line"/>
      <point x="465" y="110" type="line"/>
      <point x="465" y="152" type="line"/>
      <point x="330" y="152" type="line"/>
      <point x="330" y="198" type="line"/>
      <point x="335" y="206" type="line"/>
      <point x="465" y="206" type="line"/>
      <point x="465" y="249" type="line"/>
      <point x="363" y="249" type="line"/>
      <point x="499" y="465" type="line"/>
      <point x="550" y="465" type="line"/>
    </contour>
    <contour>
      <point x="-12" y="917" type="line"/>
      <point x="596" y="917" type="line"/>
      <point x="596" y="-213" type="line"/>
      <point x="-12" y="-213" type="line"/>
    </contour>
  </outline>
</glyph>
<glyph name="section" format="1">
  <advance width="585"/>
  <unicode hex="00A7"/>
  <outline>
    <contour>
      <point x="501" y="137" type="curve" smooth="yes"/>
      <point x="501" y="164"/>
      <point x="493" y="186"/>
      <point x="478" y="202" type="curve"/>
      <point x="523" y="224"/>
      <point x="552" y="257"/>
      <point x="552" y="303" type="curve" smooth="yes"/>
      <point x="552" y="404"/>
      <point x="408" y="418"/>
      <point x="293" y="437" type="curve" smooth="yes"/>
      <point x="216" y="450"/>
      <point x="154" y="468"/>
      <point x="154" y="527" type="curve" smooth="yes"/>
      <point x="154" y="582"/>
      <point x="208" y="607"/>
      <point x="281" y="607" type="curve" smooth="yes"/>
      <point x="323" y="607"/>
      <point x="371" y="598"/>
      <point x="412" y="580" type="curve"/>
      <point x="423" y="487" type="line"/>
      <point x="481" y="493" type="line"/>
      <point x="473" y="620" type="line"/>
      <point x="415" y="647"/>
      <point x="353" y="660"/>
      <point x="277" y="660" type="curve" smooth="yes"/>
      <point x="166" y="660"/>
      <point x="83" y="611"/>
      <point x="83" y="522" type="curve" smooth="yes"/>
      <point x="83" y="487"/>
      <point x="96" y="462"/>
      <point x="117" y="443" type="curve"/>
      <point x="70" y="424"/>
      <point x="37" y="393"/>
      <point x="37" y="346" type="curve" smooth="yes"/>
      <point x="37" y="257"/>
      <point x="160" y="235"/>
      <point x="267" y="222" type="curve"/>
      <point x="366" y="207"/>
      <point x="430" y="197"/>
      <point x="430" y="132" type="curve" smooth="yes"/>
      <point x="430" y="68"/>
      <point x="368" y="44"/>
      <point x="300" y="44" type="curve" smooth="yes"/>
      <point x="248" y="44"/>
      <point x="189" y="53"/>
      <point x="143" y="75" type="curve"/>
      <point x="147" y="151" type="line"/>
      <point x="89" y="157" type="line"/>
      <point x="77" y="47" type="line"/>
      <point x="134" y="11"/>
      <point x="225" y="-10"/>
      <point x="299" y="-10" type="curve" smooth="yes"/>
      <point x="422" y="-10"/>
      <point x="501" y="44"/>
    </contour>
    <contour>
      <point x="484" y="293" type="curve" smooth="yes"/>
      <point x="484" y="269"/>
      <point x="468" y="252"/>
      <point x="436" y="239" type="curve"/>
      <point x="397" y="257"/>
      <point x="346" y="266"/>
      <point x="293" y="274" type="curve" smooth="yes"/>
      <point x="173" y="294"/>
      <point x="104" y="304"/>
      <point x="104" y="354" type="curve" smooth="yes"/>
      <point x="104" y="381"/>
      <point x="126" y="402"/>
      <point x="158" y="414" type="curve"/>
      <point x="191" y="399"/>
      <point x="230" y="391"/>
      <point x="267" y="385" type="curve" smooth="yes"/>
      <point x="361" y="369"/>
      <point x="484" y="358"/>
    </contour>
    <contour>
      <point x="-12" y="917" type="line"/>
      <point x="597" y="917" type="line"/>
      <point x="597" y="-213" type="line"/>
      <point x="-12" y="-213" type="line"/>
    </contour>
  </outline>
</glyph>
<glyph name="dieresis" format="1">
  <advance width="228"/>
  <unicode hex="00A8"/>
  <outline>
    <contour>
      <point x="-12" y="640" type="line"/>
      <point x="69" y="640" type="line"/>
      <point x="69" y="555" type="line"/>
      <point x="-12" y="555" type="line"/>
    </contour>
    <contour>
      <point x="159" y="640" type="line"/>
      <point x="240" y="640" type="line"/>
      <point x="240" y="555" type="line"/>
      <point x="159" y="555" type="line"/>
    </contour>
  </outline>
</glyph>
<glyph name="copyright" format="1">
  <advance width="620"/>
  <unicode hex="00A9"/>
  <outline>
    <contour>
      <point x="578" y="260" type="curve" smooth="yes"/>
      <point x="578" y="409"/>
      <point x="461" y="529"/>
      <point x="311" y="529" type="curve" smooth="yes"/>
      <point x="160" y="529"/>
      <point x="42" y="409"/>
      <point x="42" y="260" type="curve" smooth="yes"/>
      <point x="42" y="110"/>
      <point x="162" y="-7"/>
      <point x="310" y="-7" type="curve" smooth="yes"/>
      <point x="458" y="-7"/>
      <point x="578" y="111"/>
    </contour>
    <contour>
      <point x="535" y="260" type="curve" smooth="yes"/>
      <point x="535" y="135"/>
      <point x="438" y="34"/>
      <point x="310" y="34" type="curve" smooth="yes"/>
      <point x="180" y="34"/>
      <point x="85" y="134"/>
      <point x="85" y="260" type="curve" smooth="yes"/>
      <point x="85" y="386"/>
      <point x="178" y="487"/>
      <point x="311" y="487" type="curve" smooth="yes"/>
      <point x="443" y="487"/>
      <point x="535" y="386"/>
    </contour>
    <contour>
      <point x="427" y="122" type="curve"/>
      <point x="436" y="187" type="line"/>
      <point x="400" y="191" type="line"/>
      <point x="390" y="140" type="line"/>
      <point x="368" y="129"/>
      <point x="350" y="127"/>
      <point x="320" y="127" type="curve" smooth="yes"/>
      <point x="241" y="127"/>
      <point x="196" y="179"/>
      <point x="196" y="262" type="curve" smooth="yes"/>
      <point x="196" y="344"/>
      <point x="241" y="399"/>
      <point x="314" y="399" type="curve" smooth="yes"/>
      <point x="352" y="399"/>
      <point x="370" y="392"/>
      <point x="393" y="377" type="curve"/>
      <point x="402" y="327" type="line"/>
      <point x="438" y="331" type="line"/>
      <point x="429" y="396" type="line"/>
      <point x="402" y="419"/>
      <point x="365" y="434"/>
      <point x="309" y="434" type="curve" smooth="yes"/>
      <point x="216" y="434"/>
      <point x="151" y="358"/>
      <point x="151" y="261" type="curve" smooth="yes"/>
      <point x="151" y="161"/>
      <point x="218" y="91"/>
      <point x="314" y="91" type="curve" smooth="yes"/>
      <point x="362" y="91"/>
      <point x="400" y="101"/>
    </contour>
    <contour>
      <point x="-12" y="917" type="line"/>
      <point x="632" y="917" type="line"/>
      <point x="632" y="-213" type="line"/>
      <point x="-12" y="-213" type="line"/>
    </contour>
  </outline>
</glyph>
<glyph name="macron" format="1">
  <advance width="220"/>
  <unicode hex="00AF"/>
  <outline>
    <contour>
      <point x="-12" y="564" type="line"/>
      <point x="-12" y="621" type="line"/>
      <point x="232" y="621" type="line"/>
      <point x="232" y="564" type="line"/>
    </contour>
  </outline>
</glyph>
<glyph name="twosuperior" format="1">
  <advance width="344"/>
  <unicode hex="00B2"/>
  <outline>
    <contour>
      <point x="85" y="667" type="line"/>
      <point x="98" y="723" type="line"/>
      <point x="116" y="735"/>
      <point x="133" y="740"/>
      <point x="155" y="740" type="curve" smooth="yes"/>
      <point x="206" y="740"/>
      <point x="226" y="715"/>
      <point x="226" y="683" type="curve" smooth="yes"/>
      <point x="226" y="607"/>
      <point x="115" y="526"/>
      <point x="32" y="456" type="curve"/>
      <point x="37" y="415" type="line"/>
      <point x="309" y="415" type="line"/>
      <point x="319" y="509" type="line"/>
      <point x="272" y="514" type="line"/>
      <point x="262" y="460" type="line"/>
      <point x="106" y="460" type="line"/>
      <point x="157" y="502"/>
      <point x="290" y="592"/>
      <point x="290" y="688" type="curve" smooth="yes"/>
      <point x="290" y="737"/>
      <point x="255" y="785"/>
      <point x="170" y="785" type="curve" smooth="yes"/>
      <point x="127" y="785"/>
      <point x="80" y="773"/>
      <point x="51" y="748" type="curve"/>
      <point x="40" y="672" type="line"/>
    </contour>
    <contour>
      <point x="-12" y="917" type="line"/>
      <point x="356" y="917" type="line"/>
      <point x="356" y="-213" type="line"/>
      <point x="-12" y="-213" type="line"/>
    </contour>
  </outline>
</glyph>
<glyph name="acute" format="1">
  <advance width="170"/>
  <unicode hex="00B4"/>
  <outline>
    <contour>
      <point x="10" y="520" type="line"/>
      <point x="-12" y="551" type="line"/>
      <point x="142" y="683" type="line"/>
      <point x="182" y="624" type="line"/>
    </contour>
  </outline>
</glyph>
<glyph name="periodcentered" format="1">
  <advance width="215"/>
  <unicode hex="00B7"/>
  <outline>
    <contour>
      <point x="57" y="256" type="line"/>
      <point x="154" y="256" type="line"/>
      <point x="154" y="358" type="line"/>
      <point x="57" y="358" type="line"/>
    </contour>
    <contour>
      <point x="-12" y="917" type="line"/>
      <point x="227" y="917" type="line"/>
      <point x="227" y="-213" type="line"/>
      <point x="-12" y="-213" type="line"/>
    </contour>
  </outline>
</glyph>
<glyph name="ordmasculine" format="1">
  <advance width="375"/>
  <unicode hex="00BA"/>
  <outline>
    <contour>
      <point x="-12" y="917" type="line"/>
      <point x="387" y="917" type="line"/>
      <point x="387" y="-213" type="line"/>
      <point x="-12" y="-213" type="line"/>
    </contour>
    <contour>
      <point x="36" y="547" type="curve" smooth="yes"/>
      <point x="36" y="459"/>
      <point x="93" y="398"/>
      <point x="185" y="398" type="curve" smooth="yes"/>
      <point x="277" y="398"/>
      <point x="339" y="461"/>
      <point x="339" y="550" type="curve" smooth="yes"/>
      <point x="339" y="632"/>
      <point x="289" y="701"/>
      <point x="188" y="701" type="curve" smooth="yes"/>
      <point x="88" y="701"/>
      <point x="36" y="632"/>
    </contour>
    <contour>
      <point x="98" y="551" type="curve" smooth="yes"/>
      <point x="98" y="612"/>
      <point x="130" y="654"/>
      <point x="187" y="654" type="curve" smooth="yes"/>
      <point x="243" y="654"/>
      <point x="276" y="615"/>
      <point x="276" y="551" type="curve" smooth="yes"/>
      <point x="276" y="489"/>
      <point x="244" y="444"/>
      <point x="186" y="444" type="curve" smooth="yes"/>
      <point x="127" y="444"/>
      <point x="98" y="491"/>
    </contour>
    <contour>
      <point x="164" y="338" type="move" name="top"/>
    </contour>
  </outline>
</glyph>
<glyph name="onequarter" format="1">
  <advance width="706"/>
  <unicode hex="00BC"/>
  <outline>
    <contour>
      <point x="511" y="650" type="line"/>
      <point x="337" y="337" type="line"/>
      <point x="139" y="0" type="line"/>
      <point x="193" y="0" type="line"/>
      <point x="375" y="325" type="line"/>
      <point x="565" y="650" type="line"/>
    </contour>
    <contour>
      <point x="555" y="-1" type="line"/>
      <point x="612" y="-1" type="line"/>
      <point x="612" y="89" type="line"/>
      <point x="670" y="89" type="line"/>
      <point x="674" y="133" type="line"/>
      <point x="612" y="133" type="line"/>
      <point x="612" y="364" type="line"/>
      <point x="499" y="364" type="line"/>
      <point x="369" y="132" type="line"/>
      <point x="375" y="89" type="line"/>
      <point x="555" y="89" type="line"/>
    </contour>
    <contour>
      <point x="528" y="319" type="line"/>
      <point x="555" y="319" type="line"/>
      <point x="555" y="133" type="line"/>
      <point x="422" y="133" type="line"/>
    </contour>
    <contour>
      <point x="41" y="605" type="line"/>
      <point x="116" y="605" type="line"/>
      <point x="116" y="331" type="line"/>
      <point x="41" y="331" type="line"/>
      <point x="41" y="286" type="line"/>
      <point x="246" y="286" type="line"/>
      <point x="246" y="331" type="line"/>
      <point x="175" y="331" type="line"/>
      <point x="175" y="650" type="line"/>
      <point x="41" y="650" type="line"/>
    </contour>
    <contour>
      <point x="-12" y="917" type="line"/>
      <point x="718" y="917" type="line"/>
      <point x="718" y="-213" type="line"/>
      <point x="-12" y="-213" type="line"/>
    </contour>
  </outline>
</glyph>
<glyph name="onehalf" format="1">
  <advance width="746"/>
  <unicode hex="00BD"/>
  <outline>
    <contour>
      <point x="38" y="605" type="line"/>
      <point x="114" y="605" type="line"/>
      <point x="114" y="331" type="line"/>
      <point x="38" y="331" type="line"/>
      <point x="38" y="286" type="line"/>
      <point x="243" y="286" type="line"/>
      <point x="243" y="331" type="line"/>
      <point x="172" y="331" type="line"/>
      <point x="172" y="650" type="line"/>
      <point x="38" y="650" type="line"/>
    </contour>
    <contour>
      <point x="487" y="252" type="line"/>
      <point x="500" y="308" type="line"/>
      <point x="518" y="320"/>
      <point x="535" y="325"/>
      <point x="558" y="325" type="curve" smooth="yes"/>
      <point x="608" y="325"/>
      <point x="628" y="300"/>
      <point x="628" y="268" type="curve" smooth="yes"/>
      <point x="628" y="192"/>
      <point x="517" y="111"/>
      <point x="434" y="41" type="curve"/>
      <point x="439" y="0" type="line"/>
      <point x="711" y="0" type="line"/>
      <point x="721" y="94" type="line"/>
      <point x="674" y="99" type="line"/>
      <point x="664" y="45" type="line"/>
      <point x="508" y="45" type="line"/>
      <point x="559" y="87"/>
      <point x="692" y="177"/>
      <point x="692" y="273" type="curve" smooth="yes"/>
      <point x="692" y="322"/>
      <point x="657" y="370"/>
      <point x="572" y="370" type="curve" smooth="yes"/>
      <point x="529" y="370"/>
      <point x="482" y="358"/>
      <point x="453" y="333" type="curve"/>
      <point x="442" y="257" type="line"/>
    </contour>
    <contour>
      <point x="506" y="650" type="line"/>
      <point x="331" y="337" type="line"/>
      <point x="134" y="0" type="line"/>
      <point x="187" y="0" type="line"/>
      <point x="370" y="325" type="line"/>
      <point x="559" y="650" type="line"/>
    </contour>
    <contour>
      <point x="-12" y="917" type="line"/>
      <point x="758" y="917" type="line"/>
      <point x="758" y="-213" type="line"/>
      <point x="-12" y="-213" type="line"/>
    </contour>
  </outline>
</glyph>
<glyph name="Aring" format="1">
  <advance width="622"/>
  <unicode hex="00C5"/>
  <outline>
    <contour>
      <point x="-12" y="917" type="line"/>
      <point x="-12" y="64" type="line"/>
      <point x="67" y="64" type="line"/>
      <point x="260" y="586" type="line"/>
      <point x="156" y="586" type="line"/>
      <point x="156" y="650" type="line"/>
      <point x="342" y="650" type="line"/>
      <point x="555" y="64" type="line"/>
      <point x="634" y="64" type="line"/>
      <point x="634" y="917" type="line"/>
    </contour>
    <contour>
      <point x="316" y="544" type="line"/>
      <point x="311" y="544" type="line"/>
      <point x="203" y="246" type="line"/>
      <point x="422" y="246" type="line"/>
    </contour>
    <contour>
      <point x="634" y="-213" type="line"/>
      <point x="634" y="0" type="line"/>
      <point x="409" y="0" type="line"/>
      <point x="409" y="64" type="line"/>
      <point x="486" y="64" type="line"/>
      <point x="442" y="189" type="line"/>
      <point x="182" y="189" type="line"/>
      <point x="136" y="64" type="line"/>
      <point x="216" y="64" type="line"/>
      <point x="216" y="0" type="line"/>
      <point x="-12" y="0" type="line"/>
      <point x="-12" y="-213" type="line"/>
    </contour>
    <contour>
      <point x="406" y="784" type="curve" smooth="yes"/>
      <point x="406" y="729"/>
      <point x="373" y="690"/>
      <point x="307" y="690" type="curve" smooth="yes"/>
      <point x="242" y="690"/>
      <point x="209" y="725"/>
      <point x="209" y="782" type="curve" smooth="yes"/>
      <point x="209" y="837"/>
      <point x="245" y="874"/>
      <point x="308" y="874" type="curve" smooth="yes"/>
      <point x="376" y="874"/>
      <point x="406" y="836"/>
    </contour>
    <contour>
      <point x="357" y="784" type="curve" smooth="yes"/>
      <point x="357" y="811"/>
      <point x="344" y="834"/>
      <point x="307" y="834" type="curve" smooth="yes"/>
      <point x="273" y="834"/>
      <point x="258" y="812"/>
      <point x="258" y="782" type="curve" smooth="yes"/>
      <point x="258" y="751"/>
      <point x="273" y="730"/>
      <point x="307" y="730" type="curve" smooth="yes"/>
      <point x="342" y="730"/>
      <point x="357" y="753"/>
    </contour>
  </outline>
</glyph>
<glyph name="Ecircumflex" format="1">
  <advance width="584"/>
  <unicode hex="00CA"/>
  <outline>
    <contour>
      <point x="40" y="0" type="line"/>
      <point x="40" y="64" type="line"/>
      <point x="122" y="64" type="line"/>
      <point x="122" y="586" type="line"/>
      <point x="40" y="586" type="line"/>
      <point x="40" y="650" type="line"/>
      <point x="515" y="650" type="line"/>
      <point x="535" y="466" type="line"/>
      <point x="471" y="459" type="line"/>
      <point x="451" y="586" type="line"/>
      <point x="195" y="586" type="line"/>
      <point x="195" y="362" type="line"/>
      <point x="502" y="362" type="line"/>
      <point x="502" y="298" type="line"/>
      <point x="195" y="298" type="line"/>
      <point x="195" y="64" type="line"/>
      <point x="460" y="64" type="line"/>
      <point x="480" y="191" type="line"/>
      <point x="543" y="184" type="line"/>
      <point x="524" y="0" type="line"/>
    </contour>
    <contour>
      <point x="-12" y="-213" type="line"/>
      <point x="596" y="-213" type="line"/>
      <point x="596" y="917" type="line"/>
      <point x="-12" y="917" type="line"/>
    </contour>
    <contour>
      <point x="447" y="702" type="line"/>
      <point x="327" y="764" type="line"/>
      <point x="211" y="701" type="line"/>
      <point x="192" y="734" type="line"/>
      <point x="319" y="827" type="line"/>
      <point x="340" y="827" type="line"/>
      <point x="466" y="737" type="line"/>
    </contour>
  </outline>
</glyph>
<glyph name="Igrave" format="1">
  <advance width="318"/>
  <unicode hex="00CC"/>
  <outline>
    <contour>
      <point x="40" y="0" type="line"/>
      <point x="40" y="64" type="line"/>
      <point x="122" y="64" type="line"/>
      <point x="122" y="586" type="line"/>
      <point x="40" y="586" type="line"/>
      <point x="40" y="650" type="line"/>
      <point x="277" y="650" type="line"/>
      <point x="277" y="586" type="line"/>
      <point x="196" y="586" type="line"/>
      <point x="196" y="64" type="line"/>
      <point x="277" y="64" type="line"/>
      <point x="277" y="0" type="line"/>
    </contour>
    <contour>
      <point x="-12" y="-213" type="line"/>
      <point x="330" y="-213" type="line"/>
      <point x="330" y="917" type="line"/>
      <point x="-12" y="917" type="line"/>
    </contour>
    <contour>
      <point x="234" y="703" type="line"/>
      <point x="36" y="745" type="line"/>
      <point x="53" y="813" type="line"/>
      <point x="244" y="740" type="line"/>
    </contour>
  </outline>
</glyph>
<glyph name="Iacute" format="1">
  <advance width="318"/>
  <unicode hex="00CD"/>
  <outline>
    <contour>
      <point x="40" y="0" type="line"/>
      <point x="40" y="64" type="line"/>
      <point x="122" y="64" type="line"/>
      <point x="122" y="586" type="line"/>
      <point x="40" y="586" type="line"/>
      <point x="40" y="650" type="line"/>
      <point x="277" y="650" type="line"/>
      <point x="277" y="586" type="line"/>
      <point x="196" y="586" type="line"/>
      <point x="196" y="64" type="line"/>
      <point x="277" y="64" type="line"/>
      <point x="277" y="0" type="line"/>
    </contour>
    <contour>
      <point x="-12" y="-213" type="line"/>
      <point x="330" y="-213" type="line"/>
      <point x="330" y="917" type="line"/>
      <point x="-12" y="917" type="line"/>
    </contour>
    <contour>
      <point x="84" y="703" type="line"/>
      <point x="73" y="740" type="line"/>
      <point x="264" y="813" type="line"/>
      <point x="281" y="745" type="line"/>
    </contour>
  </outline>
</glyph>
<glyph name="Ocircumflex" format="1">
  <advance width="725"/>
  <unicode hex="00D4"/>
  <outline>
    <contour>
      <point x="688" y="325" type="curve" smooth="yes"/>
      <point x="688" y="141"/>
      <point x="556" y="-10"/>
      <point x="360" y="-10" type="curve" smooth="yes"/>
      <point x="164" y="-10"/>
      <point x="37" y="141"/>
      <point x="37" y="325" type="curve" smooth="yes"/>
      <point x="37" y="512"/>
      <point x="170" y="660"/>
      <point x="362" y="660" type="curve" smooth="yes"/>
      <point x="557" y="660"/>
      <point x="688" y="510"/>
    </contour>
    <contour>
      <point x="609" y="324" type="curve" smooth="yes"/>
      <point x="609" y="480"/>
      <point x="513" y="594"/>
      <point x="362" y="594" type="curve" smooth="yes"/>
      <point x="208" y="594"/>
      <point x="116" y="475"/>
      <point x="116" y="326" type="curve" smooth="yes"/>
      <point x="116" y="179"/>
      <point x="206" y="56"/>
      <point x="364" y="56" type="curve" smooth="yes"/>
      <point x="517" y="56"/>
      <point x="609" y="173"/>
    </contour>
    <contour>
      <point x="-12" y="-213" type="line"/>
      <point x="737" y="-213" type="line"/>
      <point x="737" y="917" type="line"/>
      <point x="-12" y="917" type="line"/>
    </contour>
    <contour>
      <point x="483" y="702" type="line"/>
      <point x="363" y="764" type="line"/>
      <point x="247" y="701" type="line"/>
      <point x="228" y="734" type="line"/>
      <point x="355" y="827" type="line"/>
      <point x="376" y="827" type="line"/>
      <point x="502" y="737" type="line"/>
    </contour>
  </outline>
</glyph>
<glyph name="Otilde" format="1">
  <advance width="725"/>
  <unicode hex="00D5"/>
  <outline>
    <contour>
      <point x="509" y="798" type="line"/>
      <point x="499" y="744"/>
      <point x="479" y="709"/>
      <point x="431" y="709" type="curve" smooth="yes"/>
      <point x="380" y="709"/>
      <point x="347" y="744"/>
      <point x="308" y="744" type="curve" smooth="yes"/>
      <point x="289" y="744"/>
      <point x="268" y="737"/>
      <point x="258" y="705" type="curve"/>
      <point x="225" y="718" type="line"/>
      <point x="230" y="752"/>
      <point x="256" y="800"/>
      <point x="307" y="800" type="curve" smooth="yes"/>
      <point x="351" y="800"/>
      <point x="378" y="765"/>
      <point x="426" y="765" type="curve" smooth="yes"/>
      <point x="444" y="765"/>
      <point x="462" y="770"/>
      <point x="473" y="807" type="curve"/>
    </contour>
    <contour>
      <point x="688" y="325" type="curve" smooth="yes"/>
      <point x="688" y="141"/>
      <point x="556" y="-10"/>
      <point x="360" y="-10" type="curve" smooth="yes"/>
      <point x="164" y="-10"/>
      <point x="37" y="141"/>
      <point x="37" y="325" type="curve" smooth="yes"/>
      <point x="37" y="512"/>
      <point x="170" y="660"/>
      <point x="362" y="660" type="curve" smooth="yes"/>
      <point x="557" y="660"/>
      <point x="688" y="510"/>
    </contour>
    <contour>
      <point x="609" y="324" type="curve" smooth="yes"/>
      <point x="609" y="480"/>
      <point x="513" y="594"/>
      <point x="362" y="594" type="curve" smooth="yes"/>
      <point x="208" y="594"/>
      <point x="116" y="475"/>
      <point x="116" y="326" type="curve" smooth="yes"/>
      <point x="116" y="179"/>
      <point x="206" y="56"/>
      <point x="364" y="56" type="curve" smooth="yes"/>
      <point x="517" y="56"/>
      <point x="609" y="173"/>
    </contour>
    <contour>
      <point x="-12" y="-213" type="line"/>
      <point x="737" y="-213" type="line"/>
      <point x="737" y="917" type="line"/>
      <point x="-12" y="917" type="line"/>
    </contour>
  </outline>
</glyph>
<glyph name="Odieresis" format="1">
  <advance width="725"/>
  <unicode hex="00D6"/>
  <outline>
    <contour>
      <point x="239" y="803" type="line"/>
      <point x="320" y="803" type="line"/>
      <point x="320" y="718" type="line"/>
      <point x="239" y="718" type="line"/>
    </contour>
    <contour>
      <point x="411" y="803" type="line"/>
      <point x="491" y="803" type="line"/>
      <point x="491" y="718" type="line"/>
      <point x="411" y="718" type="line"/>
    </contour>
    <contour>
      <point x="688" y="325" type="curve" smooth="yes"/>
      <point x="688" y="141"/>
      <point x="556" y="-10"/>
      <point x="360" y="-10" type="curve" smooth="yes"/>
      <point x="164" y="-10"/>
      <point x="37" y="141"/>
      <point x="37" y="325" type="curve" smooth="yes"/>
      <point x="37" y="512"/>
      <point x="170" y="660"/>
      <point x="362" y="660" type="curve" smooth="yes"/>
      <point x="557" y="660"/>
      <point x="688" y="510"/>
    </contour>
    <contour>
      <point x="609" y="324" type="curve" smooth="yes"/>
      <point x="609" y="480"/>
      <point x="513" y="594"/>
      <point x="362" y="594" type="curve" smooth="yes"/>
      <point x="208" y="594"/>
      <point x="116" y="475"/>
      <point x="116" y="326" type="curve" smooth="yes"/>
      <point x="116" y="179"/>
      <point x="206" y="56"/>
      <point x="364" y="56" type="curve" smooth="yes"/>
      <point x="517" y="56"/>
      <point x="609" y="173"/>
    </contour>
    <contour>
      <point x="-12" y="-213" type="line"/>
      <point x="737" y="-213" type="line"/>
      <point x="737" y="917" type="line"/>
      <point x="-12" y="917" type="line"/>
    </contour>
  </outline>
</glyph>
<glyph name="Thorn" format="1">
  <advance width="568"/>
  <unicode hex="00DE"/>
  <outline>
    <contour>
      <point x="-12" y="-213" type="line"/>
      <point x="580" y="-213" type="line"/>
      <point x="580" y="917" type="line"/>
      <point x="-12" y="917" type="line"/>
    </contour>
    <contour>
      <point x="40" y="0" type="line"/>
      <point x="40" y="64" type="line"/>
      <point x="122" y="64" type="line"/>
      <point x="122" y="586" type="line"/>
      <point x="40" y="586" type="line"/>
      <point x="40" y="650" type="line"/>
      <point x="277" y="650" type="line"/>
      <point x="277" y="586" type="line"/>
      <point x="196" y="586" type="line"/>
      <point x="196" y="525" type="line"/>
      <point x="321" y="525" type="line" smooth="yes"/>
      <point x="481" y="525"/>
      <point x="547" y="444"/>
      <point x="547" y="340" type="curve" smooth="yes"/>
      <point x="547" y="209"/>
      <point x="455" y="139"/>
      <point x="327" y="139" type="curve" smooth="yes"/>
      <point x="196" y="139" type="line"/>
      <point x="196" y="64" type="line"/>
      <point x="277" y="64" type="line"/>
      <point x="277" y="0" type="line"/>
    </contour>
    <contour>
      <point x="317" y="194" type="line" smooth="yes"/>
      <point x="416" y="194"/>
      <point x="469" y="246"/>
      <point x="469" y="338" type="curve" smooth="yes"/>
      <point x="469" y="421"/>
      <point x="421" y="471"/>
      <point x="315" y="471" type="curve" smooth="yes"/>
      <point x="196" y="471" type="line"/>
      <point x="196" y="194" type="line"/>
    </contour>
  </outline>
</glyph>
<glyph name="idieresis" format="1">
  <advance width="277"/>
  <unicode hex="00EF"/>
  <outline>
    <contour>
      <point x="4" y="638" type="line"/>
      <point x="84" y="638" type="line"/>
      <point x="84" y="554" type="line"/>
      <point x="4" y="554" type="line"/>
    </contour>
    <contour>
      <point x="172" y="638" type="line"/>
      <point x="252" y="638" type="line"/>
      <point x="252" y="554" type="line"/>
      <point x="172" y="554" type="line"/>
    </contour>
    <contour>
      <point x="32" y="0" type="line"/>
      <point x="32" y="57" type="line"/>
      <point x="110" y="57" type="line"/>
      <point x="110" y="388" type="line"/>
      <point x="30" y="388" type="line"/>
      <point x="30" y="445" type="line"/>
      <point x="180" y="445" type="line"/>
      <point x="180" y="57" type="line"/>
      <point x="258" y="57" type="line"/>
      <point x="258" y="0" type="line"/>
    </contour>
    <contour>
      <point x="-12" y="-213" type="line"/>
      <point x="289" y="-213" type="line"/>
      <point x="289" y="917" type="line"/>
      <point x="-12" y="917" type="line"/>
    </contour>
  </outline>
</glyph>
<glyph name="eth" format="1">
  <advance width="520"/>
  <unicode hex="00F0"/>
  <outline>
    <contour>
      <point x="195" y="498" type="line"/>
      <point x="155" y="526" type="line"/>
      <point x="212" y="595" type="line"/>
      <point x="191" y="611"/>
      <point x="156" y="632"/>
      <point x="132" y="646" type="curve"/>
      <point x="161" y="698" type="line"/>
      <point x="192" y="681"/>
      <point x="222" y="663"/>
      <point x="250" y="643" type="curve"/>
      <point x="299" y="701" type="line"/>
      <point x="338" y="674" type="line"/>
      <point x="290" y="614" type="line"/>
      <point x="397" y="527"/>
      <point x="473" y="408"/>
      <point x="473" y="257" type="curve" smooth="yes"/>
      <point x="473" y="223" type="line" smooth="yes"/>
      <point x="473" y="87"/>
      <point x="388" y="-10"/>
      <point x="251" y="-10" type="curve" smooth="yes"/>
      <point x="116" y="-10"/>
      <point x="35" y="85"/>
      <point x="35" y="219" type="curve" smooth="yes"/>
      <point x="35" y="354"/>
      <point x="119" y="454"/>
      <point x="246" y="454" type="curve" smooth="yes"/>
      <point x="303" y="454"/>
      <point x="344" y="431"/>
      <point x="372" y="403" type="curve"/>
      <point x="349" y="467"/>
      <point x="307" y="520"/>
      <point x="251" y="567" type="curve"/>
    </contour>
    <contour>
      <point x="254" y="51" type="curve" smooth="yes"/>
      <point x="158" y="51"/>
      <point x="110" y="127"/>
      <point x="110" y="223" type="curve" smooth="yes"/>
      <point x="110" y="322"/>
      <point x="160" y="393"/>
      <point x="250" y="393" type="curve" smooth="yes"/>
      <point x="341" y="393"/>
      <point x="395" y="318"/>
      <point x="398" y="262" type="curve"/>
      <point x="398" y="220" type="line" smooth="yes"/>
      <point x="398" y="123"/>
      <point x="347" y="51"/>
    </contour>
    <contour>
      <point x="-12" y="-213" type="line"/>
      <point x="532" y="-213" type="line"/>
      <point x="532" y="917" type="line"/>
      <point x="-12" y="917" type="line"/>
    </contour>
  </outline>
</glyph>
<glyph name="thorn" format="1">
  <advance width="520"/>
  <unicode hex="00FE"/>
  <outline>
    <contour>
      <point x="135" y="352" type="line"/>
      <point x="162" y="407"/>
      <point x="211" y="454"/>
      <point x="295" y="454" type="curve" smooth="yes"/>
      <point x="406" y="454"/>
      <point x="485" y="373"/>
      <point x="485" y="235" type="curve" smooth="yes"/>
      <point x="485" y="116"/>
      <point x="426" y="-10"/>
      <point x="282" y="-10" type="curve" smooth="yes"/>
      <point x="220" y="-10"/>
      <point x="164" y="16"/>
      <point x="135" y="65" type="curve"/>
      <point x="135" y="-156" type="line"/>
      <point x="239" y="-156" type="line"/>
      <point x="239" y="-213" type="line"/>
      <point x="532" y="-213" type="line"/>
      <point x="532" y="917" type="line"/>
      <point x="-12" y="917" type="line"/>
      <point x="-12" y="688" type="line"/>
      <point x="135" y="688" type="line"/>
    </contour>
    <contour>
      <point x="410" y="229" type="curve" smooth="yes"/>
      <point x="410" y="336"/>
      <point x="352" y="393"/>
      <point x="279" y="393" type="curve" smooth="yes"/>
      <point x="195" y="393"/>
      <point x="135" y="312"/>
      <point x="135" y="246" type="curve" smooth="yes"/>
      <point x="135" y="183" type="line" smooth="yes"/>
      <point x="135" y="108"/>
      <point x="193" y="51"/>
      <point x="270" y="51" type="curve" smooth="yes"/>
      <point x="365" y="51"/>
      <point x="410" y="134"/>
    </contour>
    <contour>
      <point x="64" y="-156" type="line"/>
      <point x="64" y="631" type="line"/>
      <point x="-12" y="631" type="line"/>
      <point x="-12" y="-156" type="line"/>
    </contour>
  </outline>
</glyph>
<glyph name="Aogonek" format="1">
  <advance width="622"/>
  <unicode hex="0104"/>
  <outline>
    <contour>
      <point x="47" y="64" type="line"/>
      <point x="260" y="586" type="line"/>
      <point x="156" y="586" type="line"/>
      <point x="156" y="650" type="line"/>
      <point x="342" y="650" type="line"/>
      <point x="575" y="64" type="line"/>
      <point x="634" y="64" type="line"/>
      <point x="634" y="917" type="line"/>
      <point x="-12" y="917" type="line"/>
      <point x="-12" y="64" type="line"/>
    </contour>
    <contour>
      <point x="-12" y="-213" type="line"/>
      <point x="634" y="-213" type="line"/>
      <point x="634" y="0" type="line"/>
      <point x="570" y="0" type="line"/>
      <point x="522" y="-30"/>
      <point x="506" y="-65"/>
      <point x="506" y="-99" type="curve" smooth="yes"/>
      <point x="506" y="-141"/>
      <point x="530" y="-158"/>
      <point x="564" y="-158" type="curve" smooth="yes"/>
      <point x="582" y="-158"/>
      <point x="600" y="-154"/>
      <point x="618" y="-143" type="curve"/>
      <point x="627" y="-192" type="line"/>
      <point x="605" y="-204"/>
      <point x="579" y="-212"/>
      <point x="548" y="-212" type="curve" smooth="yes"/>
      <point x="485" y="-212"/>
      <point x="443" y="-175"/>
      <point x="443" y="-118" type="curve" smooth="yes"/>
      <point x="443" y="-67"/>
      <point x="474" y="-25"/>
      <point x="515" y="0" type="curve"/>
      <point x="409" y="0" type="line"/>
      <point x="409" y="64" type="line"/>
      <point x="496" y="64" type="line"/>
      <point x="449" y="189" type="line"/>
      <point x="171" y="189" type="line"/>
      <point x="121" y="64" type="line"/>
      <point x="216" y="64" type="line"/>
      <point x="216" y="0" type="line"/>
      <point x="-12" y="0" type="line"/>
    </contour>
    <contour>
      <point x="316" y="544" type="line"/>
      <point x="311" y="544" type="line"/>
      <point x="193" y="246" type="line"/>
      <point x="428" y="246" type="line"/>
    </contour>
  </outline>
</glyph>
<glyph name="Ccaron" format="1">
  <advance width="642"/>
  <unicode hex="010C"/>
  <outline>
    <contour>
      <point x="573" y="50" type="line"/>
      <point x="521" y="10"/>
      <point x="448" y="-10"/>
      <point x="356" y="-10" type="curve" smooth="yes"/>
      <point x="167" y="-10"/>
      <point x="38" y="132"/>
      <point x="38" y="321" type="curve" smooth="yes"/>
      <point x="38" y="501"/>
      <point x="158" y="660"/>
      <point x="347" y="660" type="curve" smooth="yes"/>
      <point x="455" y="660"/>
      <point x="524" y="629"/>
      <point x="577" y="584" type="curve"/>
      <point x="595" y="459" type="line"/>
      <point x="532" y="453" type="line"/>
      <point x="514" y="548" type="line"/>
      <point x="472" y="576"/>
      <point x="426" y="594"/>
      <point x="353" y="594" type="curve" smooth="yes"/>
      <point x="211" y="594"/>
      <point x="115" y="482"/>
      <point x="115" y="324" type="curve" smooth="yes"/>
      <point x="115" y="163"/>
      <point x="211" y="56"/>
      <point x="366" y="56" type="curve" smooth="yes"/>
      <point x="424" y="56"/>
      <point x="467" y="64"/>
      <point x="509" y="85" type="curve"/>
      <point x="528" y="181" type="line"/>
      <point x="590" y="175" type="line"/>
    </contour>
    <contour>
      <point x="-12" y="-213" type="line"/>
      <point x="654" y="-213" type="line"/>
      <point x="654" y="917" type="line"/>
      <point x="-12" y="917" type="line"/>
    </contour>
    <contour>
      <point x="366" y="701" type="line"/>
      <point x="344" y="701" type="line"/>
      <point x="218" y="790" type="line"/>
      <point x="238" y="824" type="line"/>
      <point x="358" y="763" type="line"/>
      <point x="473" y="827" type="line"/>
      <point x="492" y="792" type="line"/>
    </contour>
  </outline>
</glyph>
<glyph name="ccaron" format="1">
  <advance width="457"/>
  <unicode hex="010D"/>
  <outline>
    <contour>
      <point x="252" y="519" type="line"/>
      <point x="230" y="519" type="line"/>
      <point x="109" y="636" type="line"/>
      <point x="135" y="670" type="line"/>
      <point x="245" y="586" type="line"/>
      <point x="347" y="671" type="line"/>
      <point x="373" y="638" type="line"/>
    </contour>
    <contour>
      <point x="426" y="150" type="line"/>
      <point x="414" y="72"/>
      <point x="361" y="-10"/>
      <point x="238" y="-10" type="curve" smooth="yes"/>
      <point x="115" y="-10"/>
      <point x="36" y="73"/>
      <point x="36" y="216" type="curve" smooth="yes"/>
      <point x="36" y="339"/>
      <point x="106" y="454"/>
      <point x="244" y="454" type="curve" smooth="yes"/>
      <point x="303" y="454"/>
      <point x="351" y="442"/>
      <point x="396" y="408" type="curve"/>
      <point x="413" y="301" type="line"/>
      <point x="355" y="294" type="line"/>
      <point x="338" y="369" type="line"/>
      <point x="311" y="386"/>
      <point x="281" y="394"/>
      <point x="243" y="394" type="curve" smooth="yes"/>
      <point x="148" y="394"/>
      <point x="110" y="316"/>
      <point x="110" y="220" type="curve" smooth="yes"/>
      <point x="110" y="113"/>
      <point x="158" y="50"/>
      <point x="246" y="50" type="curve" smooth="yes"/>
      <point x="315" y="50"/>
      <point x="353" y="90"/>
      <point x="366" y="163" type="curve"/>
    </contour>
    <contour>
      <point x="-12" y="-213" type="line"/>
      <point x="469" y="-213" type="line"/>
      <point x="469" y="917" type="line"/>
      <point x="-12" y="917" type="line"/>
    </contour>
  </outline>
</glyph>
<glyph name="Edotaccent" format="1">
  <advance width="584"/>
  <unicode hex="0116"/>
  <outline>
    <contour>
      <point x="279" y="803" type="line"/>
      <point x="360" y="803" type="line"/>
      <point x="360" y="718" type="line"/>
      <point x="279" y="718" type="line"/>
    </contour>
    <contour>
      <point x="40" y="0" type="line"/>
      <point x="40" y="64" type="line"/>
      <point x="122" y="64" type="line"/>
      <point x="122" y="586" type="line"/>
      <point x="40" y="586" type="line"/>
      <point x="40" y="650" type="line"/>
      <point x="515" y="650" type="line"/>
      <point x="535" y="466" type="line"/>
      <point x="471" y="459" type="line"/>
      <point x="451" y="586" type="line"/>
      <point x="195" y="586" type="line"/>
      <point x="195" y="362" type="line"/>
      <point x="502" y="362" type="line"/>
      <point x="502" y="298" type="line"/>
      <point x="195" y="298" type="line"/>
      <point x="195" y="64" type="line"/>
      <point x="460" y="64" type="line"/>
      <point x="480" y="191" type="line"/>
      <point x="543" y="184" type="line"/>
      <point x="524" y="0" type="line"/>
    </contour>
    <contour>
      <point x="-12" y="-213" type="line"/>
      <point x="596" y="-213" type="line"/>
      <point x="596" y="917" type="line"/>
      <point x="-12" y="917" type="line"/>
    </contour>
  </outline>
</glyph>
<glyph name="Eogonek" format="1">
  <advance width="584"/>
  <unicode hex="0118"/>
  <outline>
    <contour>
      <point x="-12" y="-213" type="line"/>
      <point x="596" y="-213" type="line"/>
      <point x="596" y="917" type="line"/>
      <point x="-12" y="917" type="line"/>
    </contour>
    <contour>
      <point x="40" y="0" type="line"/>
      <point x="40" y="64" type="line"/>
      <point x="122" y="64" type="line"/>
      <point x="122" y="586" type="line"/>
      <point x="40" y="586" type="line"/>
      <point x="40" y="650" type="line"/>
      <point x="515" y="650" type="line"/>
      <point x="535" y="466" type="line"/>
      <point x="471" y="459" type="line"/>
      <point x="451" y="586" type="line"/>
      <point x="195" y="586" type="line"/>
      <point x="195" y="362" type="line"/>
      <point x="502" y="362" type="line"/>
      <point x="502" y="298" type="line"/>
      <point x="195" y="298" type="line"/>
      <point x="195" y="64" type="line"/>
      <point x="460" y="64" type="line"/>
      <point x="480" y="191" type="line"/>
      <point x="543" y="184" type="line"/>
      <point x="524" y="0" type="line"/>
      <point x="486" y="0" type="line"/>
      <point x="438" y="-30"/>
      <point x="422" y="-65"/>
      <point x="422" y="-99" type="curve" smooth="yes"/>
      <point x="422" y="-141"/>
      <point x="446" y="-158"/>
      <point x="480" y="-158" type="curve" smooth="yes"/>
      <point x="498" y="-158"/>
      <point x="516" y="-154"/>
      <point x="534" y="-143" type="curve"/>
      <point x="543" y="-192" type="line"/>
      <point x="521" y="-204"/>
      <point x="495" y="-212"/>
      <point x="464" y="-212" type="curve" smooth="yes"/>
      <point x="401" y="-212"/>
      <point x="359" y="-175"/>
      <point x="359" y="-118" type="curve" smooth="yes"/>
      <point x="359" y="-67"/>
      <point x="390" y="-25"/>
      <point x="431" y="0" type="curve"/>
    </contour>
  </outline>
</glyph>
<glyph name="eogonek" format="1">
  <advance width="466"/>
  <unicode hex="0119"/>
  <outline>
    <contour>
      <point x="-12" y="-213" type="line"/>
      <point x="478" y="-213" type="line"/>
      <point x="478" y="917" type="line"/>
      <point x="-12" y="917" type="line"/>
    </contour>
    <contour>
      <point x="433" y="128" type="line"/>
      <point x="423" y="67"/>
      <point x="380" y="15"/>
      <point x="306" y="-3" type="curve"/>
      <point x="261" y="-32"/>
      <point x="247" y="-70"/>
      <point x="247" y="-102" type="curve" smooth="yes"/>
      <point x="247" y="-144"/>
      <point x="271" y="-158"/>
      <point x="305" y="-158" type="curve" smooth="yes"/>
      <point x="323" y="-158"/>
      <point x="341" y="-154"/>
      <point x="359" y="-143" type="curve"/>
      <point x="368" y="-192" type="line"/>
      <point x="346" y="-204"/>
      <point x="320" y="-212"/>
      <point x="289" y="-212" type="curve" smooth="yes"/>
      <point x="227" y="-212"/>
      <point x="185" y="-179"/>
      <point x="185" y="-121" type="curve" smooth="yes"/>
      <point x="185" y="-76"/>
      <point x="209" y="-35"/>
      <point x="242" y="-10" type="curve"/>
      <point x="118" y="-8"/>
      <point x="36" y="74"/>
      <point x="36" y="216" type="curve" smooth="yes"/>
      <point x="36" y="354"/>
      <point x="114" y="454"/>
      <point x="240" y="454" type="curve" smooth="yes"/>
      <point x="362" y="454"/>
      <point x="428" y="364"/>
      <point x="429" y="259" type="curve" smooth="yes"/>
      <point x="429" y="242"/>
      <point x="427" y="224"/>
      <point x="423" y="206" type="curve"/>
      <point x="110" y="206" type="line"/>
      <point x="114" y="107"/>
      <point x="163" y="50"/>
      <point x="251" y="50" type="curve" smooth="yes"/>
      <point x="321" y="50"/>
      <point x="360" y="86"/>
      <point x="374" y="141" type="curve"/>
    </contour>
    <contour>
      <point x="355" y="258" type="line"/>
      <point x="362" y="324"/>
      <point x="325" y="396"/>
      <point x="238" y="396" type="curve" smooth="yes"/>
      <point x="156" y="396"/>
      <point x="120" y="333"/>
      <point x="111" y="258" type="curve"/>
    </contour>
  </outline>
</glyph>
<glyph name="Gdotaccent" format="1">
  <advance width="688"/>
  <unicode hex="0120"/>
  <outline>
    <contour>
      <point x="313" y="803" type="line"/>
      <point x="394" y="803" type="line"/>
      <point x="394" y="718" type="line"/>
      <point x="313" y="718" type="line"/>
    </contour>
    <contour>
      <point x="611" y="270" type="line"/>
      <point x="611" y="0" type="line"/>
      <point x="555" y="0" type="line"/>
      <point x="546" y="90" type="line"/>
      <point x="507" y="33"/>
      <point x="434" y="-10"/>
      <point x="338" y="-10" type="curve" smooth="yes"/>
      <point x="160" y="-10"/>
      <point x="38" y="136"/>
      <point x="38" y="322" type="curve" smooth="yes"/>
      <point x="38" y="509"/>
      <point x="168" y="660"/>
      <point x="355" y="660" type="curve" smooth="yes"/>
      <point x="459" y="660"/>
      <point x="538" y="628"/>
      <point x="587" y="584" type="curve"/>
      <point x="605" y="462" type="line"/>
      <point x="543" y="455" type="line"/>
      <point x="523" y="547" type="line"/>
      <point x="487" y="571"/>
      <point x="439" y="594"/>
      <point x="359" y="594" type="curve" smooth="yes"/>
      <point x="213" y="594"/>
      <point x="116" y="483"/>
      <point x="116" y="325" type="curve" smooth="yes"/>
      <point x="116" y="164"/>
      <point x="209" y="56"/>
      <point x="351" y="56" type="curve" smooth="yes"/>
      <point x="469" y="56"/>
      <point x="538" y="133"/>
      <point x="538" y="212" type="curve" smooth="yes"/>
      <point x="538" y="270" type="line"/>
      <point x="383" y="270" type="line"/>
      <point x="383" y="335" type="line"/>
      <point x="662" y="335" type="line"/>
      <point x="662" y="270" type="line"/>
    </contour>
    <contour>
      <point x="-12" y="-213" type="line"/>
      <point x="700" y="-213" type="line"/>
      <point x="700" y="917" type="line"/>
      <point x="-12" y="917" type="line"/>
    </contour>
  </outline>
</glyph>
<glyph name="Hcircumflex" format="1">
  <advance width="752"/>
  <unicode hex="0124"/>
  <outline>
    <contour>
      <point x="474" y="0" type="line"/>
      <point x="474" y="64" type="line"/>
      <point x="556" y="64" type="line"/>
      <point x="556" y="300" type="line"/>
      <point x="195" y="300" type="line"/>
      <point x="195" y="64" type="line"/>
      <point x="277" y="64" type="line"/>
      <point x="277" y="0" type="line"/>
      <point x="40" y="0" type="line"/>
      <point x="40" y="64" type="line"/>
      <point x="122" y="64" type="line"/>
      <point x="122" y="586" type="line"/>
      <point x="40" y="586" type="line"/>
      <point x="40" y="650" type="line"/>
      <point x="277" y="650" type="line"/>
      <point x="277" y="586" type="line"/>
      <point x="195" y="586" type="line"/>
      <point x="195" y="362" type="line"/>
      <point x="556" y="362" type="line"/>
      <point x="556" y="586" type="line"/>
      <point x="474" y="586" type="line"/>
      <point x="474" y="650" type="line"/>
      <point x="711" y="650" type="line"/>
      <point x="711" y="586" type="line"/>
      <point x="629" y="586" type="line"/>
      <point x="629" y="64" type="line"/>
      <point x="711" y="64" type="line"/>
      <point x="711" y="0" type="line"/>
    </contour>
    <contour>
      <point x="-12" y="-213" type="line"/>
      <point x="764" y="-213" type="line"/>
      <point x="764" y="917" type="line"/>
      <point x="-12" y="917" type="line"/>
    </contour>
    <contour>
      <point x="497" y="702" type="line"/>
      <point x="377" y="764" type="line"/>
      <point x="261" y="701" type="line"/>
      <point x="242" y="734" type="line"/>
      <point x="369" y="827" type="line"/>
      <point x="390" y="827" type="line"/>
      <point x="516" y="737" type="line"/>
    </contour>
  </outline>
</glyph>
<glyph name="Itilde" format="1">
  <advance width="318"/>
  <unicode hex="0128"/>
  <outline>
    <contour>
      <point x="40" y="0" type="line"/>
      <point x="40" y="64" type="line"/>
      <point x="122" y="64" type="line"/>
      <point x="122" y="586" type="line"/>
      <point x="40" y="586" type="line"/>
      <point x="40" y="650" type="line"/>
      <point x="277" y="650" type="line"/>
      <point x="277" y="586" type="line"/>
      <point x="196" y="586" type="line"/>
      <point x="196" y="64" type="line"/>
      <point x="277" y="64" type="line"/>
      <point x="277" y="0" type="line"/>
    </contour>
    <contour>
      <point x="-12" y="-213" type="line"/>
      <point x="330" y="-213" type="line"/>
      <point x="330" y="917" type="line"/>
      <point x="-12" y="917" type="line"/>
    </contour>
    <contour>
      <point x="306" y="798" type="line"/>
      <point x="296" y="744"/>
      <point x="276" y="709"/>
      <point x="228" y="709" type="curve" smooth="yes"/>
      <point x="177" y="709"/>
      <point x="144" y="744"/>
      <point x="105" y="744" type="curve" smooth="yes"/>
      <point x="86" y="744"/>
      <point x="65" y="737"/>
      <point x="55" y="705" type="curve"/>
      <point x="22" y="718" type="line"/>
      <point x="27" y="752"/>
      <point x="53" y="800"/>
      <point x="104" y="800" type="curve" smooth="yes"/>
      <point x="148" y="800"/>
      <point x="175" y="765"/>
      <point x="223" y="765" type="curve" smooth="yes"/>
      <point x="241" y="765"/>
      <point x="259" y="770"/>
      <point x="270" y="807" type="curve"/>
    </contour>
  </outline>
</glyph>
<glyph name="itilde" format="1">
  <advance width="277"/>
  <unicode hex="0129"/>
  <outline>
    <contour>
      <point x="32" y="0" type="line"/>
      <point x="32" y="57" type="line"/>
      <point x="110" y="57" type="line"/>
      <point x="110" y="388" type="line"/>
      <point x="30" y="388" type="line"/>
      <point x="30" y="445" type="line"/>
      <point x="180" y="445" type="line"/>
      <point x="180" y="57" type="line"/>
      <point x="258" y="57" type="line"/>
      <point x="258" y="0" type="line"/>
    </contour>
    <contour>
      <point x="-12" y="-213" type="line"/>
      <point x="289" y="-213" type="line"/>
      <point x="289" y="917" type="line"/>
      <point x="-12" y="917" type="line"/>
    </contour>
    <contour>
      <point x="275" y="646" type="line"/>
      <point x="266" y="593"/>
      <point x="244" y="554"/>
      <point x="198" y="554" type="curve" smooth="yes"/>
      <point x="147" y="554"/>
      <point x="113" y="593"/>
      <point x="76" y="593" type="curve" smooth="yes"/>
      <point x="58" y="593"/>
      <point x="36" y="582"/>
      <point x="26" y="550" type="curve"/>
      <point x="-7" y="562" type="line"/>
      <point x="-2" y="597"/>
      <point x="23" y="649"/>
      <point x="73" y="649" type="curve" smooth="yes"/>
      <point x="118" y="649"/>
      <point x="145" y="613"/>
      <point x="192" y="613" type="curve" smooth="yes"/>
      <point x="210" y="613"/>
      <point x="228" y="620"/>
      <point x="239" y="655" type="curve"/>
    </contour>
  </outline>
</glyph>
<glyph name="ibreve" format="1">
  <advance width="277"/>
  <unicode hex="012D"/>
  <outline>
    <contour>
      <point x="32" y="0" type="line"/>
      <point x="32" y="57" type="line"/>
      <point x="110" y="57" type="line"/>
      <point x="110" y="388" type="line"/>
      <point x="30" y="388" type="line"/>
      <point x="30" y="445" type="line"/>
      <point x="180" y="445" type="line"/>
      <point x="180" y="57" type="line"/>
      <point x="258" y="57" type="line"/>
      <point x="258" y="0" type="line"/>
    </contour>
    <contour>
      <point x="-12" y="-213" type="line"/>
      <point x="289" y="-213" type="line"/>
      <point x="289" y="917" type="line"/>
      <point x="-12" y="917" type="line"/>
    </contour>
    <contour>
      <point x="263" y="655" type="line"/>
      <point x="263" y="572"/>
      <point x="220" y="532"/>
      <point x="140" y="532" type="curve" smooth="yes"/>
      <point x="59" y="532"/>
      <point x="18" y="574"/>
      <point x="18" y="655" type="curve"/>
      <point x="77" y="655" type="line"/>
      <point x="77" y="601"/>
      <point x="100" y="580"/>
      <point x="141" y="580" type="curve" smooth="yes"/>
      <point x="185" y="580"/>
      <point x="204" y="604"/>
      <point x="204" y="655" type="curve"/>
    </contour>
  </outline>
</glyph>
<glyph name="jcircumflex" format="1">
  <advance width="247"/>
  <unicode hex="0135"/>
  <outline>
    <contour>
      <point x="-12" y="917" type="line"/>
      <point x="259" y="917" type="line"/>
      <point x="259" y="-213" type="line"/>
      <point x="15" y="-213" type="line"/>
      <point x="108" y="-210"/>
      <point x="175" y="-157"/>
      <point x="175" y="-4" type="curve" smooth="yes"/>
      <point x="175" y="445" type="line"/>
      <point x="5" y="445" type="line"/>
      <point x="5" y="388" type="line"/>
      <point x="104" y="388" type="line"/>
      <point x="104" y="-4" type="line" smooth="yes"/>
      <point x="104" y="-148"/>
      <point x="43" y="-158"/>
      <point x="-12" y="-158" type="curve"/>
    </contour>
    <contour>
      <point x="249" y="554" type="line"/>
      <point x="134" y="668" type="line"/>
      <point x="115" y="668" type="line"/>
      <point x="-1" y="552" type="line"/>
      <point x="23" y="521" type="line"/>
      <point x="119" y="602" type="line"/>
      <point x="224" y="521" type="line"/>
    </contour>
  </outline>
</glyph>
<glyph name="lacute" format="1">
  <advance width="262"/>
  <unicode hex="013A"/>
  <outline>
    <contour>
      <point x="25" y="713" type="line"/>
      <point x="14" y="750" type="line"/>
      <point x="205" y="823" type="line"/>
      <point x="222" y="755" type="line"/>
    </contour>
    <contour>
      <point x="18" y="0" type="line"/>
      <point x="18" y="57" type="line"/>
      <point x="96" y="57" type="line"/>
      <point x="96" y="631" type="line"/>
      <point x="17" y="631" type="line"/>
      <point x="17" y="688" type="line"/>
      <point x="166" y="688" type="line"/>
      <point x="166" y="57" type="line"/>
      <point x="244" y="57" type="line"/>
      <point x="244" y="0" type="line"/>
    </contour>
    <contour>
      <point x="-12" y="-213" type="line"/>
      <point x="274" y="-213" type="line"/>
      <point x="274" y="917" type="line"/>
      <point x="-12" y="917" type="line"/>
    </contour>
  </outline>
</glyph>
<glyph name="lcaron" format="1">
  <advance width="317"/>
  <unicode hex="013E"/>
  <outline>
    <contour>
      <point x="290" y="457" type="line"/>
      <point x="233" y="457" type="line"/>
      <point x="246" y="681" type="line"/>
      <point x="312" y="681" type="line"/>
    </contour>
    <contour>
      <point x="18" y="0" type="line"/>
      <point x="18" y="57" type="line"/>
      <point x="96" y="57" type="line"/>
      <point x="96" y="631" type="line"/>
      <point x="17" y="631" type="line"/>
      <point x="17" y="688" type="line"/>
      <point x="166" y="688" type="line"/>
      <point x="166" y="57" type="line"/>
      <point x="244" y="57" type="line"/>
      <point x="244" y="0" type="line"/>
    </contour>
    <contour>
      <point x="-12" y="-213" type="line"/>
      <point x="329" y="-213" type="line"/>
      <point x="329" y="917" type="line"/>
      <point x="-12" y="917" type="line"/>
    </contour>
  </outline>
</glyph>
<glyph name="Eng" format="1">
  <advance width="733"/>
  <unicode hex="014A"/>
  <outline>
    <contour>
      <point x="-12" y="-213" type="line"/>
      <point x="745" y="-213" type="line"/>
      <point x="745" y="917" type="line"/>
      <point x="-12" y="917" type="line"/>
    </contour>
    <contour>
      <point x="620" y="586" type="line"/>
      <point x="620" y="-18" type="line" smooth="yes"/>
      <point x="620" y="-136"/>
      <point x="557" y="-194"/>
      <point x="452" y="-194" type="curve" smooth="yes"/>
      <point x="366" y="-194"/>
      <point x="318" y="-154"/>
      <point x="290" y="-96" type="curve"/>
      <point x="343" y="-56" type="line"/>
      <point x="371" y="-109"/>
      <point x="402" y="-126"/>
      <point x="446" y="-126" type="curve" smooth="yes"/>
      <point x="518" y="-126"/>
      <point x="546" y="-84"/>
      <point x="546" y="-18" type="curve" smooth="yes"/>
      <point x="546" y="35" type="line"/>
      <point x="196" y="512" type="line"/>
      <point x="192" y="512" type="line"/>
      <point x="192" y="64" type="line"/>
      <point x="295" y="64" type="line"/>
      <point x="295" y="0" type="line"/>
      <point x="47" y="0" type="line"/>
      <point x="47" y="64" type="line"/>
      <point x="122" y="64" type="line"/>
      <point x="122" y="586" type="line"/>
      <point x="36" y="586" type="line"/>
      <point x="36" y="650" type="line"/>
      <point x="176" y="650" type="line"/>
      <point x="546" y="149" type="line"/>
      <point x="550" y="149" type="line"/>
      <point x="550" y="586" type="line"/>
      <point x="452" y="586" type="line"/>
      <point x="452" y="650" type="line"/>
      <point x="701" y="650" type="line"/>
      <point x="701" y="586" type="line"/>
    </contour>
  </outline>
</glyph>
<glyph name="Omacron" format="1">
  <advance width="725"/>
  <unicode hex="014C"/>
  <outline>
    <contour>
      <point x="232" y="733" type="line"/>
      <point x="232" y="790" type="line"/>
      <point x="511" y="790" type="line"/>
      <point x="511" y="733" type="line"/>
    </contour>
    <contour>
      <point x="688" y="325" type="curve" smooth="yes"/>
      <point x="688" y="141"/>
      <point x="556" y="-10"/>
      <point x="360" y="-10" type="curve" smooth="yes"/>
      <point x="164" y="-10"/>
      <point x="37" y="141"/>
      <point x="37" y="325" type="curve" smooth="yes"/>
      <point x="37" y="512"/>
      <point x="170" y="660"/>
      <point x="362" y="660" type="curve" smooth="yes"/>
      <point x="557" y="660"/>
      <point x="688" y="510"/>
    </contour>
    <contour>
      <point x="609" y="324" type="curve" smooth="yes"/>
      <point x="609" y="480"/>
      <point x="513" y="594"/>
      <point x="362" y="594" type="curve" smooth="yes"/>
      <point x="208" y="594"/>
      <point x="116" y="475"/>
      <point x="116" y="326" type="curve" smooth="yes"/>
      <point x="116" y="179"/>
      <point x="206" y="56"/>
      <point x="364" y="56" type="curve" smooth="yes"/>
      <point x="517" y="56"/>
      <point x="609" y="173"/>
    </contour>
    <contour>
      <point x="-12" y="-213" type="line"/>
      <point x="737" y="-213" type="line"/>
      <point x="737" y="917" type="line"/>
      <point x="-12" y="917" type="line"/>
    </contour>
  </outline>
</glyph>
<glyph name="Obreve" format="1">
  <advance width="725"/>
  <unicode hex="014E"/>
  <outline>
    <contour>
      <point x="492" y="816" type="line"/>
      <point x="492" y="733"/>
      <point x="451" y="699"/>
      <point x="370" y="699" type="curve" smooth="yes"/>
      <point x="289" y="699"/>
      <point x="248" y="735"/>
      <point x="248" y="816" type="curve"/>
      <point x="306" y="816" type="line"/>
      <point x="306" y="763"/>
      <point x="329" y="747"/>
      <point x="370" y="747" type="curve" smooth="yes"/>
      <point x="415" y="747"/>
      <point x="434" y="765"/>
      <point x="434" y="816" type="curve"/>
    </contour>
    <contour>
      <point x="688" y="325" type="curve" smooth="yes"/>
      <point x="688" y="141"/>
      <point x="556" y="-10"/>
      <point x="360" y="-10" type="curve" smooth="yes"/>
      <point x="164" y="-10"/>
      <point x="37" y="141"/>
      <point x="37" y="325" type="curve" smooth="yes"/>
      <point x="37" y="512"/>
      <point x="170" y="660"/>
      <point x="362" y="660" type="curve" smooth="yes"/>
      <point x="557" y="660"/>
      <point x="688" y="510"/>
    </contour>
    <contour>
      <point x="609" y="324" type="curve" smooth="yes"/>
      <point x="609" y="480"/>
      <point x="513" y="594"/>
      <point x="362" y="594" type="curve" smooth="yes"/>
      <point x="208" y="594"/>
      <point x="116" y="475"/>
      <point x="116" y="326" type="curve" smooth="yes"/>
      <point x="116" y="179"/>
      <point x="206" y="56"/>
      <point x="364" y="56" type="curve" smooth="yes"/>
      <point x="517" y="56"/>
      <point x="609" y="173"/>
    </contour>
    <contour>
      <point x="-12" y="-213" type="line"/>
      <point x="737" y="-213" type="line"/>
      <point x="737" y="917" type="line"/>
      <point x="-12" y="917" type="line"/>
    </contour>
  </outline>
</glyph>
<glyph name="Ohungarumlaut" format="1">
  <advance width="725"/>
  <unicode hex="0150"/>
  <outline>
    <contour>
      <point x="688" y="325" type="curve" smooth="yes"/>
      <point x="688" y="141"/>
      <point x="556" y="-10"/>
      <point x="360" y="-10" type="curve" smooth="yes"/>
      <point x="164" y="-10"/>
      <point x="37" y="141"/>
      <point x="37" y="325" type="curve" smooth="yes"/>
      <point x="37" y="512"/>
      <point x="170" y="660"/>
      <point x="362" y="660" type="curve" smooth="yes"/>
      <point x="557" y="660"/>
      <point x="688" y="510"/>
    </contour>
    <contour>
      <point x="609" y="324" type="curve" smooth="yes"/>
      <point x="609" y="480"/>
      <point x="513" y="594"/>
      <point x="362" y="594" type="curve" smooth="yes"/>
      <point x="208" y="594"/>
      <point x="116" y="475"/>
      <point x="116" y="326" type="curve" smooth="yes"/>
      <point x="116" y="179"/>
      <point x="206" y="56"/>
      <point x="364" y="56" type="curve" smooth="yes"/>
      <point x="517" y="56"/>
      <point x="609" y="173"/>
    </contour>
    <contour>
      <point x="-12" y="-213" type="line"/>
      <point x="737" y="-213" type="line"/>
      <point x="737" y="917" type="line"/>
      <point x="-12" y="917" type="line"/>
    </contour>
    <contour>
      <point x="402" y="703" type="line"/>
      <point x="392" y="740" type="line"/>
      <point x="582" y="813" type="line"/>
      <point x="600" y="745" type="line"/>
    </contour>
    <contour>
      <point x="292" y="703" type="line"/>
      <point x="266" y="729" type="line"/>
      <point x="400" y="882" type="line"/>
      <point x="449" y="831" type="line"/>
    </contour>
  </outline>
</glyph>
<glyph name="oe" format="1">
  <advance width="830"/>
  <unicode hex="0153"/>
  <outline>
    <contour>
      <point x="-12" y="-213" type="line"/>
      <point x="842" y="-213" type="line"/>
      <point x="842" y="917" type="line"/>
      <point x="-12" y="917" type="line"/>
    </contour>
    <contour>
      <point x="255" y="455" type="curve" smooth="yes"/>
      <point x="341" y="455"/>
      <point x="402" y="416"/>
      <point x="437" y="358" type="curve"/>
      <point x="471" y="418"/>
      <point x="529" y="454"/>
      <point x="604" y="454" type="curve" smooth="yes"/>
      <point x="726" y="454"/>
      <point x="792" y="364"/>
      <point x="793" y="259" type="curve" smooth="yes"/>
      <point x="793" y="242"/>
      <point x="791" y="224"/>
      <point x="787" y="206" type="curve"/>
      <point x="474" y="206" type="line"/>
      <point x="475" y="105"/>
      <point x="529" y="50"/>
      <point x="616" y="50" type="curve" smooth="yes"/>
      <point x="685" y="50"/>
      <point x="724" y="86"/>
      <point x="738" y="141" type="curve"/>
      <point x="797" y="128" type="line"/>
      <point x="785" y="52"/>
      <point x="720" y="-10"/>
      <point x="610" y="-10" type="curve" smooth="yes"/>
      <point x="531" y="-10"/>
      <point x="468" y="23"/>
      <point x="434" y="84" type="curve"/>
      <point x="396" y="25"/>
      <point x="333" y="-10"/>
      <point x="251" y="-10" type="curve" smooth="yes"/>
      <point x="116" y="-10"/>
      <point x="35" y="85"/>
      <point x="35" y="219" type="curve" smooth="yes"/>
      <point x="35" y="349"/>
      <point x="111" y="455"/>
    </contour>
    <contour>
      <point x="253" y="50" type="curve" smooth="yes"/>
      <point x="348" y="50"/>
      <point x="400" y="124"/>
      <point x="400" y="227" type="curve"/>
      <point x="398" y="327"/>
      <point x="345" y="395"/>
      <point x="253" y="395" type="curve" smooth="yes"/>
      <point x="160" y="395"/>
      <point x="108" y="322"/>
      <point x="108" y="223" type="curve" smooth="yes"/>
      <point x="108" y="126"/>
      <point x="158" y="50"/>
    </contour>
    <contour>
      <point x="719" y="258" type="line"/>
      <point x="726" y="324"/>
      <point x="689" y="396"/>
      <point x="602" y="396" type="curve" smooth="yes"/>
      <point x="521" y="396"/>
      <point x="484" y="333"/>
      <point x="475" y="258" type="curve"/>
    </contour>
  </outline>
</glyph>
<glyph name="Racute" format="1">
  <advance width="613"/>
  <unicode hex="0154"/>
  <outline>
    <contour>
      <point x="475" y="0" type="line"/>
      <point x="335" y="272" type="line"/>
      <point x="196" y="272" type="line"/>
      <point x="196" y="64" type="line"/>
      <point x="283" y="64" type="line"/>
      <point x="283" y="0" type="line"/>
      <point x="40" y="0" type="line"/>
      <point x="40" y="64" type="line"/>
      <point x="122" y="64" type="line"/>
      <point x="122" y="586" type="line"/>
      <point x="40" y="586" type="line"/>
      <point x="40" y="650" type="line"/>
      <point x="321" y="650" type="line" smooth="yes"/>
      <point x="482" y="650"/>
      <point x="546" y="571"/>
      <point x="546" y="466" type="curve" smooth="yes"/>
      <point x="546" y="382"/>
      <point x="499" y="310"/>
      <point x="407" y="286" type="curve"/>
      <point x="523" y="64" type="line"/>
      <point x="605" y="64" type="line"/>
      <point x="605" y="0" type="line"/>
    </contour>
    <contour>
      <point x="469" y="463" type="curve" smooth="yes"/>
      <point x="469" y="548"/>
      <point x="423" y="586"/>
      <point x="312" y="586" type="curve" smooth="yes"/>
      <point x="196" y="586" type="line"/>
      <point x="196" y="333" type="line"/>
      <point x="314" y="333" type="line" smooth="yes"/>
      <point x="425" y="333"/>
      <point x="469" y="382"/>
    </contour>
    <contour>
      <point x="-12" y="-213" type="line"/>
      <point x="625" y="-213" type="line"/>
      <point x="625" y="917" type="line"/>
      <point x="-12" y="917" type="line"/>
    </contour>
    <contour>
      <point x="245" y="703" type="line"/>
      <point x="234" y="740" type="line"/>
      <point x="425" y="813" type="line"/>
      <point x="442" y="745" type="line"/>
    </contour>
  </outline>
</glyph>
<glyph name="rcommaaccent" format="1">
  <advance width="416"/>
  <unicode hex="0157"/>
  <outline>
    <contour>
      <point x="-12" y="-213" type="line"/>
      <point x="99" y="-213" type="line"/>
      <point x="107" y="-59" type="line"/>
      <point x="174" y="-59" type="line"/>
      <point x="156" y="-213" type="line"/>
      <point x="428" y="-213" type="line"/>
      <point x="428" y="917" type="line"/>
      <point x="-12" y="917" type="line"/>
    </contour>
    <contour>
      <point x="282" y="453" type="curve" smooth="yes"/>
      <point x="313" y="453"/>
      <point x="336" y="448"/>
      <point x="358" y="430" type="curve"/>
      <point x="375" y="318" type="line"/>
      <point x="318" y="311" type="line"/>
      <point x="301" y="387" type="line"/>
      <point x="290" y="391"/>
      <point x="279" y="393"/>
      <point x="267" y="393" type="curve" smooth="yes"/>
      <point x="215" y="393"/>
      <point x="176" y="345"/>
      <point x="176" y="276" type="curve" smooth="yes"/>
      <point x="176" y="57" type="line"/>
      <point x="279" y="57" type="line"/>
      <point x="279" y="0" type="line"/>
      <point x="28" y="0" type="line"/>
      <point x="28" y="57" type="line"/>
      <point x="106" y="57" type="line"/>
      <point x="106" y="388" type="line"/>
      <point x="26" y="388" type="line"/>
      <point x="26" y="445" type="line"/>
      <point x="172" y="445" type="line"/>
      <point x="172" y="365" type="line"/>
      <point x="189" y="415"/>
      <point x="231" y="453"/>
    </contour>
  </outline>
</glyph>
<glyph name="rcaron" format="1">
  <advance width="416"/>
  <unicode hex="0159"/>
  <outline>
    <contour>
      <point x="253" y="519" type="line"/>
      <point x="231" y="519" type="line"/>
      <point x="110" y="636" type="line"/>
      <point x="136" y="670" type="line"/>
      <point x="246" y="586" type="line"/>
      <point x="348" y="671" type="line"/>
      <point x="374" y="638" type="line"/>
    </contour>
    <contour>
      <point x="282" y="453" type="curve" smooth="yes"/>
      <point x="313" y="453"/>
      <point x="336" y="448"/>
      <point x="358" y="430" type="curve"/>
      <point x="375" y="318" type="line"/>
      <point x="318" y="311" type="line"/>
      <point x="301" y="387" type="line"/>
      <point x="290" y="391"/>
      <point x="279" y="393"/>
      <point x="267" y="393" type="curve" smooth="yes"/>
      <point x="215" y="393"/>
      <point x="176" y="345"/>
      <point x="176" y="276" type="curve" smooth="yes"/>
      <point x="176" y="57" type="line"/>
      <point x="279" y="57" type="line"/>
      <point x="279" y="0" type="line"/>
      <point x="28" y="0" type="line"/>
      <point x="28" y="57" type="line"/>
      <point x="106" y="57" type="line"/>
      <point x="106" y="388" type="line"/>
      <point x="26" y="388" type="line"/>
      <point x="26" y="445" type="line"/>
      <point x="172" y="445" type="line"/>
      <point x="172" y="365" type="line"/>
      <point x="189" y="415"/>
      <point x="231" y="453"/>
    </contour>
    <contour>
      <point x="-12" y="-213" type="line"/>
      <point x="428" y="-213" type="line"/>
      <point x="428" y="917" type="line"/>
      <point x="-12" y="917" type="line"/>
    </contour>
  </outline>
</glyph>
<glyph name="Tbar" format="1">
  <advance width="568"/>
  <unicode hex="0166"/>
  <outline>
    <contour>
      <point x="-12" y="-213" type="line"/>
      <point x="580" y="-213" type="line"/>
      <point x="580" y="917" type="line"/>
      <point x="-12" y="917" type="line"/>
    </contour>
    <contour>
      <point x="485" y="447" type="line"/>
      <point x="465" y="586" type="line"/>
      <point x="320" y="586" type="line"/>
      <point x="320" y="325" type="line"/>
      <point x="472" y="325" type="line"/>
      <point x="472" y="273" type="line"/>
      <point x="320" y="273" type="line"/>
      <point x="320" y="64" type="line"/>
      <point x="435" y="64" type="line"/>
      <point x="435" y="0" type="line"/>
      <point x="135" y="0" type="line"/>
      <point x="135" y="64" type="line"/>
      <point x="247" y="64" type="line"/>
      <point x="247" y="273" type="line"/>
      <point x="97" y="273" type="line"/>
      <point x="97" y="325" type="line"/>
      <point x="247" y="325" type="line"/>
      <point x="247" y="586" type="line"/>
      <point x="103" y="586" type="line"/>
      <point x="83" y="447" type="line"/>
      <point x="19" y="452" type="line"/>
      <point x="38" y="650" type="line"/>
      <point x="530" y="650" type="line"/>
      <point x="550" y="452" type="line"/>
    </contour>
  </outline>
</glyph>
<glyph name="tbar" format="1">
  <advance width="367"/>
  <unicode hex="0167"/>
  <outline>
    <contour>
      <point x="-12" y="-213" type="line"/>
      <point x="379" y="-213" type="line"/>
      <point x="379" y="917" type="line"/>
      <point x="-12" y="917" type="line"/>
    </contour>
    <contour>
      <point x="363" y="120" type="line"/>
      <point x="350" y="34"/>
      <point x="302" y="-10"/>
      <point x="222" y="-10" type="curve" smooth="yes"/>
      <point x="133" y="-10"/>
      <point x="85" y="44"/>
      <point x="85" y="131" type="curve" smooth="yes"/>
      <point x="85" y="230" type="line"/>
      <point x="19" y="230" type="line"/>
      <point x="19" y="283" type="line"/>
      <point x="85" y="283" type="line"/>
      <point x="85" y="389" type="line"/>
      <point x="13" y="389" type="line"/>
      <point x="13" y="445" type="line"/>
      <point x="85" y="445" type="line"/>
      <point x="85" y="588" type="line"/>
      <point x="155" y="588" type="line"/>
      <point x="155" y="445" type="line"/>
      <point x="329" y="445" type="line"/>
      <point x="329" y="389" type="line"/>
      <point x="155" y="389" type="line"/>
      <point x="155" y="283" type="line"/>
      <point x="318" y="283" type="line"/>
      <point x="318" y="230" type="line"/>
      <point x="155" y="230" type="line"/>
      <point x="155" y="140" type="line" smooth="yes"/>
      <point x="155" y="86"/>
      <point x="176" y="51"/>
      <point x="230" y="51" type="curve" smooth="yes"/>
      <point x="264" y="51"/>
      <point x="296" y="65"/>
      <point x="309" y="137" type="curve"/>
    </contour>
  </outline>
</glyph>
<glyph name="Utilde" format="1">
  <advance width="714"/>
  <unicode hex="0168"/>
  <outline>
    <contour>
      <point x="508" y="798" type="line"/>
      <point x="498" y="744"/>
      <point x="478" y="709"/>
      <point x="430" y="709" type="curve" smooth="yes"/>
      <point x="379" y="709"/>
      <point x="346" y="744"/>
      <point x="307" y="744" type="curve" smooth="yes"/>
      <point x="288" y="744"/>
      <point x="267" y="737"/>
      <point x="257" y="705" type="curve"/>
      <point x="224" y="718" type="line"/>
      <point x="229" y="752"/>
      <point x="255" y="800"/>
      <point x="306" y="800" type="curve" smooth="yes"/>
      <point x="350" y="800"/>
      <point x="377" y="765"/>
      <point x="425" y="765" type="curve" smooth="yes"/>
      <point x="443" y="765"/>
      <point x="461" y="770"/>
      <point x="472" y="807" type="curve"/>
    </contour>
    <contour>
      <point x="615" y="586" type="line"/>
      <point x="615" y="267" type="line" smooth="yes"/>
      <point x="615" y="129"/>
      <point x="555" y="-10"/>
      <point x="355" y="-10" type="curve" smooth="yes"/>
      <point x="162" y="-10"/>
      <point x="101" y="116"/>
      <point x="101" y="256" type="curve" smooth="yes"/>
      <point x="101" y="586" type="line"/>
      <point x="34" y="586" type="line"/>
      <point x="34" y="650" type="line"/>
      <point x="265" y="650" type="line"/>
      <point x="265" y="586" type="line"/>
      <point x="175" y="586" type="line"/>
      <point x="175" y="258" type="line" smooth="yes"/>
      <point x="175" y="130"/>
      <point x="234" y="56"/>
      <point x="359" y="56" type="curve" smooth="yes"/>
      <point x="480" y="56"/>
      <point x="546" y="128"/>
      <point x="546" y="267" type="curve" smooth="yes"/>
      <point x="546" y="586" type="line"/>
      <point x="453" y="586" type="line"/>
      <point x="453" y="650" type="line"/>
      <point x="678" y="650" type="line"/>
      <point x="678" y="586" type="line"/>
    </contour>
    <contour>
      <point x="-12" y="-213" type="line"/>
      <point x="726" y="-213" type="line"/>
      <point x="726" y="917" type="line"/>
      <point x="-12" y="917" type="line"/>
    </contour>
  </outline>
</glyph>
<glyph name="Ubreve" format="1">
  <advance width="714"/>
  <unicode hex="016C"/>
  <outline>
    <contour>
      <point x="481" y="816" type="line"/>
      <point x="481" y="733"/>
      <point x="440" y="699"/>
      <point x="359" y="699" type="curve" smooth="yes"/>
      <point x="278" y="699"/>
      <point x="237" y="735"/>
      <point x="237" y="816" type="curve"/>
      <point x="295" y="816" type="line"/>
      <point x="295" y="763"/>
      <point x="318" y="747"/>
      <point x="359" y="747" type="curve" smooth="yes"/>
      <point x="404" y="747"/>
      <point x="423" y="765"/>
      <point x="423" y="816" type="curve"/>
    </contour>
    <contour>
      <point x="615" y="586" type="line"/>
      <point x="615" y="267" type="line" smooth="yes"/>
      <point x="615" y="129"/>
      <point x="555" y="-10"/>
      <point x="355" y="-10" type="curve" smooth="yes"/>
      <point x="162" y="-10"/>
      <point x="101" y="116"/>
      <point x="101" y="256" type="curve" smooth="yes"/>
      <point x="101" y="586" type="line"/>
      <point x="34" y="586" type="line"/>
      <point x="34" y="650" type="line"/>
      <point x="265" y="650" type="line"/>
      <point x="265" y="586" type="line"/>
      <point x="175" y="586" type="line"/>
      <point x="175" y="258" type="line" smooth="yes"/>
      <point x="175" y="130"/>
      <point x="234" y="56"/>
      <point x="359" y="56" type="curve" smooth="yes"/>
      <point x="480" y="56"/>
      <point x="546" y="128"/>
      <point x="546" y="267" type="curve" smooth="yes"/>
      <point x="546" y="586" type="line"/>
      <point x="453" y="586" type="line"/>
      <point x="453" y="650" type="line"/>
      <point x="678" y="650" type="line"/>
      <point x="678" y="586" type="line"/>
    </contour>
    <contour>
      <point x="-12" y="-213" type="line"/>
      <point x="726" y="-213" type="line"/>
      <point x="726" y="917" type="line"/>
      <point x="-12" y="917" type="line"/>
    </contour>
  </outline>
</glyph>
<glyph name="Uogonek" format="1">
  <advance width="714"/>
  <unicode hex="0172"/>
  <outline>
    <contour>
      <point x="-12" y="-213" type="line"/>
      <point x="726" y="-213" type="line"/>
      <point x="726" y="917" type="line"/>
      <point x="-12" y="917" type="line"/>
    </contour>
    <contour>
      <point x="615" y="586" type="line"/>
      <point x="615" y="267" type="line" smooth="yes"/>
      <point x="615" y="143"/>
      <point x="567" y="20"/>
      <point x="414" y="-5" type="curve"/>
      <point x="372" y="-33"/>
      <point x="358" y="-67"/>
      <point x="358" y="-99" type="curve" smooth="yes"/>
      <point x="358" y="-141"/>
      <point x="382" y="-158"/>
      <point x="416" y="-158" type="curve" smooth="yes"/>
      <point x="435" y="-158"/>
      <point x="453" y="-154"/>
      <point x="470" y="-143" type="curve"/>
      <point x="479" y="-192" type="line"/>
      <point x="457" y="-204"/>
      <point x="431" y="-212"/>
      <point x="400" y="-212" type="curve" smooth="yes"/>
      <point x="338" y="-212"/>
      <point x="296" y="-175"/>
      <point x="296" y="-118" type="curve" smooth="yes"/>
      <point x="296" y="-73"/>
      <point x="320" y="-35"/>
      <point x="354" y="-10" type="curve"/>
      <point x="161" y="-9"/>
      <point x="101" y="116"/>
      <point x="101" y="256" type="curve" smooth="yes"/>
      <point x="101" y="586" type="line"/>
      <point x="34" y="586" type="line"/>
      <point x="34" y="650" type="line"/>
      <point x="265" y="650" type="line"/>
      <point x="265" y="586" type="line"/>
      <point x="175" y="586" type="line"/>
      <point x="175" y="258" type="line" smooth="yes"/>
      <point x="175" y="130"/>
      <point x="234" y="56"/>
      <point x="359" y="56" type="curve" smooth="yes"/>
      <point x="480" y="56"/>
      <point x="546" y="128"/>
      <point x="546" y="267" type="curve" smooth="yes"/>
      <point x="546" y="586" type="line"/>
      <point x="453" y="586" type="line"/>
      <point x="453" y="650" type="line"/>
      <point x="678" y="650" type="line"/>
      <point x="678" y="586" type="line"/>
    </contour>
  </outline>
</glyph>
<glyph name="uogonek" format="1">
  <advance width="558"/>
  <unicode hex="0173"/>
  <outline>
    <contour>
      <point x="-12" y="-213" type="line"/>
      <point x="570" y="-213" type="line"/>
      <point x="570" y="917" type="line"/>
      <point x="-12" y="917" type="line"/>
    </contour>
    <contour>
      <point x="394" y="0" type="line"/>
      <point x="394" y="84" type="line"/>
      <point x="366" y="28"/>
      <point x="310" y="-10"/>
      <point x="239" y="-10" type="curve" smooth="yes"/>
      <point x="152" y="-10"/>
      <point x="85" y="41"/>
      <point x="85" y="160" type="curve" smooth="yes"/>
      <point x="85" y="388" type="line"/>
      <point x="7" y="388" type="line"/>
      <point x="7" y="445" type="line"/>
      <point x="155" y="445" type="line"/>
      <point x="155" y="180" type="line" smooth="yes"/>
      <point x="155" y="84"/>
      <point x="199" y="50"/>
      <point x="262" y="50" type="curve" smooth="yes"/>
      <point x="338" y="50"/>
      <point x="392" y="120"/>
      <point x="394" y="184" type="curve"/>
      <point x="394" y="388" type="line"/>
      <point x="301" y="388" type="line"/>
      <point x="301" y="445" type="line"/>
      <point x="464" y="445" type="line"/>
      <point x="464" y="57" type="line"/>
      <point x="544" y="57" type="line"/>
      <point x="544" y="0" type="line"/>
      <point x="496" y="0" type="line"/>
      <point x="447" y="-30"/>
      <point x="431" y="-69"/>
      <point x="431" y="-102" type="curve" smooth="yes"/>
      <point x="431" y="-144"/>
      <point x="455" y="-158"/>
      <point x="489" y="-158" type="curve" smooth="yes"/>
      <point x="508" y="-158"/>
      <point x="526" y="-154"/>
      <point x="543" y="-143" type="curve"/>
      <point x="552" y="-192" type="line"/>
      <point x="530" y="-204"/>
      <point x="504" y="-212"/>
      <point x="473" y="-212" type="curve" smooth="yes"/>
      <point x="411" y="-212"/>
      <point x="369" y="-179"/>
      <point x="369" y="-121" type="curve" smooth="yes"/>
      <point x="369" y="-70"/>
      <point x="400" y="-25"/>
      <point x="441" y="0" type="curve"/>
    </contour>
  </outline>
</glyph>
<glyph name="wcircumflex" format="1">
  <advance width="762"/>
  <unicode hex="0175"/>
  <outline>
    <contour>
      <point x="492" y="519" type="line"/>
      <point x="381" y="603" type="line"/>
      <point x="280" y="519" type="line"/>
      <point x="255" y="551" type="line"/>
      <point x="376" y="671" type="line"/>
      <point x="398" y="671" type="line"/>
      <point x="519" y="553" type="line"/>
    </contour>
    <contour>
      <point x="693" y="388" type="line"/>
      <point x="572" y="0" type="line"/>
      <point x="518" y="0" type="line"/>
      <point x="382" y="340" type="line"/>
      <point x="377" y="340" type="line"/>
      <point x="244" y="0" type="line"/>
      <point x="192" y="0" type="line"/>
      <point x="66" y="388" type="line"/>
      <point x="7" y="388" type="line"/>
      <point x="7" y="445" type="line"/>
      <point x="217" y="445" type="line"/>
      <point x="217" y="388" type="line"/>
      <point x="142" y="388" type="line"/>
      <point x="225" y="107" type="line"/>
      <point x="230" y="107" type="line"/>
      <point x="362" y="445" type="line"/>
      <point x="409" y="445" type="line"/>
      <point x="548" y="107" type="line"/>
      <point x="553" y="107" type="line"/>
      <point x="625" y="388" type="line"/>
      <point x="554" y="388" type="line"/>
      <point x="554" y="445" type="line"/>
      <point x="754" y="445" type="line"/>
      <point x="754" y="388" type="line"/>
    </contour>
    <contour>
      <point x="-12" y="-213" type="line"/>
      <point x="774" y="-213" type="line"/>
      <point x="774" y="917" type="line"/>
      <point x="-12" y="917" type="line"/>
    </contour>
  </outline>
</glyph>
<glyph name="Zacute" format="1">
  <advance width="574"/>
  <unicode hex="0179"/>
  <outline>
    <contour>
      <point x="32" y="0" type="line"/>
      <point x="30" y="44" type="line"/>
      <point x="414" y="583" type="line"/>
      <point x="414" y="586" type="line"/>
      <point x="134" y="586" type="line"/>
      <point x="106" y="453" type="line"/>
      <point x="44" y="462" type="line"/>
      <point x="69" y="650" type="line"/>
      <point x="517" y="650" type="line"/>
      <point x="519" y="610" type="line"/>
      <point x="133" y="67" type="line"/>
      <point x="133" y="64" type="line"/>
      <point x="447" y="64" type="line"/>
      <point x="475" y="202" type="line"/>
      <point x="538" y="193" type="line"/>
      <point x="512" y="0" type="line"/>
    </contour>
    <contour>
      <point x="-12" y="-213" type="line"/>
      <point x="586" y="-213" type="line"/>
      <point x="586" y="917" type="line"/>
      <point x="-12" y="917" type="line"/>
    </contour>
    <contour>
      <point x="235" y="703" type="line"/>
      <point x="224" y="740" type="line"/>
      <point x="415" y="813" type="line"/>
      <point x="432" y="745" type="line"/>
    </contour>
  </outline>
</glyph>
<glyph name="Zcaron" format="1">
  <advance width="574"/>
  <unicode hex="017D"/>
  <outline>
    <contour>
      <point x="302" y="701" type="line"/>
      <point x="280" y="701" type="line"/>
      <point x="154" y="790" type="line"/>
      <point x="174" y="824" type="line"/>
      <point x="294" y="763" type="line"/>
      <point x="409" y="827" type="line"/>
      <point x="428" y="792" type="line"/>
    </contour>
    <contour>
      <point x="32" y="0" type="line"/>
      <point x="30" y="44" type="line"/>
      <point x="414" y="583" type="line"/>
      <point x="414" y="586" type="line"/>
      <point x="134" y="586" type="line"/>
      <point x="106" y="453" type="line"/>
      <point x="44" y="462" type="line"/>
      <point x="69" y="650" type="line"/>
      <point x="517" y="650" type="line"/>
      <point x="519" y="610" type="line"/>
      <point x="133" y="67" type="line"/>
      <point x="133" y="64" type="line"/>
      <point x="447" y="64" type="line"/>
      <point x="475" y="202" type="line"/>
      <point x="538" y="193" type="line"/>
      <point x="512" y="0" type="line"/>
    </contour>
    <contour>
      <point x="-12" y="-213" type="line"/>
      <point x="586" y="-213" type="line"/>
      <point x="586" y="917" type="line"/>
      <point x="-12" y="917" type="line"/>
    </contour>
  </outline>
</glyph>
<glyph name="uni018F" format="1">
  <advance width="681"/>
  <unicode hex="018F"/>
  <outline>
    <contour>
      <point x="120" y="435" type="line"/>
      <point x="133" y="541" type="line"/>
      <point x="187" y="575"/>
      <point x="258" y="594"/>
      <point x="331" y="594" type="curve" smooth="yes"/>
      <point x="473" y="594"/>
      <point x="552" y="497"/>
      <point x="562" y="346" type="curve"/>
      <point x="42" y="346" type="line"/>
      <point x="42" y="282" type="line" smooth="yes"/>
      <point x="42" y="102"/>
      <point x="155" y="-10"/>
      <point x="332" y="-10" type="curve" smooth="yes"/>
      <point x="540" y="-10"/>
      <point x="641" y="144"/>
      <point x="641" y="323" type="curve" smooth="yes"/>
      <point x="641" y="511"/>
      <point x="537" y="660"/>
      <point x="335" y="660" type="curve" smooth="yes"/>
      <point x="225" y="660"/>
      <point x="134" y="626"/>
      <point x="70" y="578" type="curve"/>
      <point x="61" y="442" type="line"/>
    </contour>
    <contour>
      <point x="563" y="288" type="line"/>
      <point x="555" y="162"/>
      <point x="491" y="56"/>
      <point x="335" y="56" type="curve" smooth="yes"/>
      <point x="177" y="56"/>
      <point x="121" y="165"/>
      <point x="121" y="282" type="curve" smooth="yes"/>
      <point x="121" y="288" type="line"/>
    </contour>
    <contour>
      <point x="-12" y="917" type="line"/>
      <point x="693" y="917" type="line"/>
      <point x="693" y="-213" type="line"/>
      <point x="-12" y="-213" type="line"/>
    </contour>
  </outline>
</glyph>
<glyph name="florin" format="1">
  <advance width="382"/>
  <unicode hex="0192"/>
  <outline>
    <contour>
      <point x="51" y="226" type="line"/>
      <point x="129" y="226" type="line"/>
      <point x="118" y="29" type="line" smooth="yes"/>
      <point x="114" y="-41"/>
      <point x="102" y="-62"/>
      <point x="60" y="-62" type="curve" smooth="yes"/>
      <point x="48" y="-62"/>
      <point x="32" y="-62"/>
      <point x="16" y="-58" type="curve"/>
      <point x="16" y="-108" type="line"/>
      <point x="38" y="-111"/>
      <point x="49" y="-112"/>
      <point x="60" y="-112" type="curve" smooth="yes"/>
      <point x="163" y="-112"/>
      <point x="183" y="-47"/>
      <point x="187" y="18" type="curve" smooth="yes"/>
      <point x="198" y="226" type="line"/>
      <point x="318" y="226" type="line"/>
      <point x="318" y="272" type="line"/>
      <point x="200" y="272" type="line"/>
      <point x="207" y="379" type="line" smooth="yes"/>
      <point x="212" y="456"/>
      <point x="241" y="479"/>
      <point x="300" y="479" type="curve" smooth="yes"/>
      <point x="319" y="479"/>
      <point x="340" y="476"/>
      <point x="365" y="473" type="curve"/>
      <point x="365" y="525" type="line"/>
      <point x="344" y="528"/>
      <point x="315" y="529"/>
      <point x="299" y="529" type="curve" smooth="yes"/>
      <point x="202" y="529"/>
      <point x="144" y="478"/>
      <point x="138" y="381" type="curve" smooth="yes"/>
      <point x="131" y="272" type="line"/>
      <point x="51" y="272" type="line"/>
    </contour>
    <contour>
      <point x="-12" y="917" type="line"/>
      <point x="394" y="917" type="line"/>
      <point x="394" y="-213" type="line"/>
      <point x="-12" y="-213" type="line"/>
    </contour>
  </outline>
</glyph>
<glyph name="uni01C4" format="1">
  <advance width="1278"/>
  <unicode hex="01C4"/>
  <outline>
    <contour>
      <point x="663" y="326" type="curve" smooth="yes"/>
      <point x="663" y="135"/>
      <point x="539" y="0"/>
      <point x="334" y="0" type="curve" smooth="yes"/>
      <point x="40" y="0" type="line"/>
      <point x="40" y="63" type="line"/>
      <point x="122" y="63" type="line"/>
      <point x="122" y="587" type="line"/>
      <point x="40" y="587" type="line"/>
      <point x="40" y="650" type="line"/>
      <point x="331" y="650" type="line" smooth="yes"/>
      <point x="543" y="650"/>
      <point x="663" y="514"/>
    </contour>
    <contour>
      <point x="585" y="325" type="curve" smooth="yes"/>
      <point x="585" y="482"/>
      <point x="495" y="587"/>
      <point x="330" y="587" type="curve" smooth="yes"/>
      <point x="195" y="587" type="line"/>
      <point x="195" y="63" type="line"/>
      <point x="330" y="63" type="line" smooth="yes"/>
      <point x="495" y="63"/>
      <point x="585" y="164"/>
    </contour>
    <contour>
      <point x="1006" y="701" type="line"/>
      <point x="983" y="701" type="line"/>
      <point x="858" y="790" type="line"/>
      <point x="878" y="824" type="line"/>
      <point x="998" y="763" type="line"/>
      <point x="1112" y="827" type="line"/>
      <point x="1132" y="792" type="line"/>
    </contour>
    <contour>
      <point x="737" y="0" type="line"/>
      <point x="734" y="44" type="line"/>
      <point x="1118" y="583" type="line"/>
      <point x="1118" y="586" type="line"/>
      <point x="838" y="586" type="line"/>
      <point x="810" y="453" type="line"/>
      <point x="748" y="462" type="line"/>
      <point x="774" y="650" type="line"/>
      <point x="1222" y="650" type="line"/>
      <point x="1223" y="610" type="line"/>
      <point x="837" y="67" type="line"/>
      <point x="837" y="64" type="line"/>
      <point x="1151" y="64" type="line"/>
      <point x="1179" y="202" type="line"/>
      <point x="1242" y="193" type="line"/>
      <point x="1216" y="0" type="line"/>
    </contour>
    <contour>
      <point x="-12" y="-213" type="line"/>
      <point x="1290" y="-213" type="line"/>
      <point x="1290" y="917" type="line"/>
      <point x="-12" y="917" type="line"/>
    </contour>
  </outline>
</glyph>
<glyph name="uni01C8" format="1">
  <advance width="774"/>
  <unicode hex="01C8"/>
  <outline>
    <contour>
      <point x="-12" y="-213" type="line"/>
      <point x="515" y="-213" type="line"/>
      <point x="515" y="-158" type="line"/>
      <point x="570" y="-158"/>
      <point x="632" y="-148"/>
      <point x="632" y="-4" type="curve" smooth="yes"/>
      <point x="632" y="388" type="line"/>
      <point x="533" y="388" type="line"/>
      <point x="533" y="445" type="line"/>
      <point x="702" y="445" type="line"/>
      <point x="702" y="-4" type="line" smooth="yes"/>
      <point x="702" y="-157"/>
      <point x="636" y="-210"/>
      <point x="542" y="-213" type="curve"/>
      <point x="786" y="-213" type="line"/>
      <point x="786" y="917" type="line"/>
      <point x="-12" y="917" type="line"/>
    </contour>
    <contour>
      <point x="40" y="0" type="line"/>
      <point x="40" y="64" type="line"/>
      <point x="122" y="64" type="line"/>
      <point x="122" y="586" type="line"/>
      <point x="40" y="586" type="line"/>
      <point x="40" y="650" type="line"/>
      <point x="304" y="650" type="line"/>
      <point x="304" y="586" type="line"/>
      <point x="195" y="586" type="line"/>
      <point x="195" y="64" type="line"/>
      <point x="444" y="64" type="line"/>
      <point x="464" y="213" type="line"/>
      <point x="529" y="208" type="line"/>
      <point x="509" y="0" type="line"/>
    </contour>
    <contour>
      <point x="626" y="651" type="line"/>
      <point x="702" y="651" type="line"/>
      <point x="702" y="560" type="line"/>
      <point x="626" y="560" type="line"/>
    </contour>
  </outline>
</glyph>
<glyph name="uni01C9" format="1">
  <advance width="513"/>
  <unicode hex="01C9"/>
  <outline>
    <contour>
      <point x="-12" y="-213" type="line"/>
      <point x="254" y="-213" type="line"/>
      <point x="254" y="-158" type="line"/>
      <point x="309" y="-158"/>
      <point x="371" y="-148"/>
      <point x="371" y="-4" type="curve" smooth="yes"/>
      <point x="371" y="388" type="line"/>
      <point x="271" y="388" type="line"/>
      <point x="271" y="445" type="line"/>
      <point x="441" y="445" type="line"/>
      <point x="441" y="-4" type="line" smooth="yes"/>
      <point x="441" y="-157"/>
      <point x="374" y="-210"/>
      <point x="281" y="-213" type="curve"/>
      <point x="525" y="-213" type="line"/>
      <point x="525" y="917" type="line"/>
      <point x="-12" y="917" type="line"/>
    </contour>
    <contour>
      <point x="18" y="0" type="line"/>
      <point x="18" y="57" type="line"/>
      <point x="96" y="57" type="line"/>
      <point x="96" y="631" type="line"/>
      <point x="17" y="631" type="line"/>
      <point x="17" y="688" type="line"/>
      <point x="166" y="688" type="line"/>
      <point x="166" y="57" type="line"/>
      <point x="244" y="57" type="line"/>
      <point x="244" y="0" type="line"/>
    </contour>
    <contour>
      <point x="365" y="651" type="line"/>
      <point x="441" y="651" type="line"/>
      <point x="441" y="560" type="line"/>
      <point x="365" y="560" type="line"/>
    </contour>
  </outline>
</glyph>
<glyph name="uni01CB" format="1">
  <advance width="969"/>
  <unicode hex="01CB"/>
  <outline>
    <contour>
      <point x="-12" y="-213" type="line"/>
      <point x="710" y="-213" type="line"/>
      <point x="710" y="-158" type="line"/>
      <point x="765" y="-158"/>
      <point x="827" y="-148"/>
      <point x="827" y="-4" type="curve" smooth="yes"/>
      <point x="827" y="388" type="line"/>
      <point x="728" y="388" type="line"/>
      <point x="728" y="445" type="line"/>
      <point x="897" y="445" type="line"/>
      <point x="897" y="-4" type="line" smooth="yes"/>
      <point x="897" y="-157"/>
      <point x="831" y="-210"/>
      <point x="737" y="-213" type="curve"/>
      <point x="981" y="-213" type="line"/>
      <point x="981" y="917" type="line"/>
      <point x="-12" y="917" type="line"/>
    </contour>
    <contour>
      <point x="620" y="586" type="line"/>
      <point x="620" y="0" type="line"/>
      <point x="573" y="0" type="line"/>
      <point x="196" y="512" type="line"/>
      <point x="192" y="512" type="line"/>
      <point x="192" y="64" type="line"/>
      <point x="295" y="64" type="line"/>
      <point x="295" y="0" type="line"/>
      <point x="47" y="0" type="line"/>
      <point x="47" y="64" type="line"/>
      <point x="122" y="64" type="line"/>
      <point x="122" y="586" type="line"/>
      <point x="36" y="586" type="line"/>
      <point x="36" y="650" type="line"/>
      <point x="176" y="650" type="line"/>
      <point x="546" y="149" type="line"/>
      <point x="550" y="149" type="line"/>
      <point x="550" y="586" type="line"/>
      <point x="452" y="586" type="line"/>
      <point x="452" y="650" type="line"/>
      <point x="701" y="650" type="line"/>
      <point x="701" y="586" type="line"/>
    </contour>
    <contour>
      <point x="821" y="651" type="line"/>
      <point x="897" y="651" type="line"/>
      <point x="897" y="560" type="line"/>
      <point x="821" y="560" type="line"/>
    </contour>
  </outline>
</glyph>
<glyph name="uni01F2" format="1">
  <advance width="1165"/>
  <unicode hex="01F2"/>
  <outline>
    <contour>
      <point x="663" y="326" type="curve" smooth="yes"/>
      <point x="663" y="135"/>
      <point x="539" y="0"/>
      <point x="334" y="0" type="curve" smooth="yes"/>
      <point x="40" y="0" type="line"/>
      <point x="40" y="63" type="line"/>
      <point x="122" y="63" type="line"/>
      <point x="122" y="587" type="line"/>
      <point x="40" y="587" type="line"/>
      <point x="40" y="650" type="line"/>
      <point x="331" y="650" type="line" smooth="yes"/>
      <point x="543" y="650"/>
      <point x="663" y="514"/>
    </contour>
    <contour>
      <point x="585" y="325" type="curve" smooth="yes"/>
      <point x="585" y="482"/>
      <point x="495" y="587"/>
      <point x="330" y="587" type="curve" smooth="yes"/>
      <point x="195" y="587" type="line"/>
      <point x="195" y="63" type="line"/>
      <point x="330" y="63" type="line" smooth="yes"/>
      <point x="495" y="63"/>
      <point x="585" y="164"/>
    </contour>
    <contour>
      <point x="741" y="0" type="line"/>
      <point x="738" y="43" type="line"/>
      <point x="1019" y="388" type="line"/>
      <point x="808" y="388" type="line"/>
      <point x="795" y="299" type="line"/>
      <point x="739" y="306" type="line"/>
      <point x="751" y="445" type="line"/>
      <point x="1109" y="445" type="line"/>
      <point x="1112" y="403" type="line"/>
      <point x="831" y="57" type="line"/>
      <point x="1059" y="57" type="line"/>
      <point x="1083" y="147" type="line"/>
      <point x="1139" y="138" type="line"/>
      <point x="1116" y="0" type="line"/>
    </contour>
    <contour>
      <point x="-12" y="-213" type="line"/>
      <point x="1177" y="-213" type="line"/>
      <point x="1177" y="917" type="line"/>
      <point x="-12" y="917" type="line"/>
    </contour>
  </outline>
</glyph>
<glyph name="AEacute" format="1">
  <advance width="912"/>
  <unicode hex="01FC"/>
  <outline>
    <contour>
      <point x="602" y="703" type="line"/>
      <point x="591" y="740" type="line"/>
      <point x="782" y="813" type="line"/>
      <point x="799" y="745" type="line"/>
    </contour>
    <contour>
      <point x="312" y="586" type="line"/>
      <point x="215" y="586" type="line"/>
      <point x="215" y="650" type="line"/>
      <point x="841" y="650" type="line"/>
      <point x="860" y="467" type="line"/>
      <point x="796" y="459" type="line"/>
      <point x="776" y="586" type="line"/>
      <point x="522" y="586" type="line"/>
      <point x="522" y="362" type="line"/>
      <point x="828" y="362" type="line"/>
      <point x="828" y="298" type="line"/>
      <point x="522" y="298" type="line"/>
      <point x="522" y="64" type="line"/>
      <point x="785" y="64" type="line"/>
      <point x="805" y="191" type="line"/>
      <point x="869" y="184" type="line"/>
      <point x="850" y="0" type="line"/>
      <point x="367" y="0" type="line"/>
      <point x="367" y="64" type="line"/>
      <point x="448" y="64" type="line"/>
      <point x="448" y="189" type="line"/>
      <point x="189" y="189" type="line"/>
      <point x="127" y="64" type="line"/>
      <point x="217" y="64" type="line"/>
      <point x="217" y="0" type="line"/>
      <point x="-12" y="0" type="line"/>
      <point x="-12" y="-213" type="line"/>
      <point x="924" y="-213" type="line"/>
      <point x="924" y="917" type="line"/>
      <point x="-12" y="917" type="line"/>
      <point x="-12" y="64" type="line"/>
      <point x="54" y="64" type="line"/>
    </contour>
    <contour>
      <point x="448" y="586" type="line"/>
      <point x="382" y="586" type="line"/>
      <point x="216" y="246" type="line"/>
      <point x="448" y="246" type="line"/>
    </contour>
  </outline>
</glyph>
<glyph name="uni021B" format="1">
  <advance width="367"/>
  <unicode hex="021B"/>
  <outline>
    <contour>
      <point x="245" y="-213" type="line"/>
      <point x="188" y="-213" type="line"/>
      <point x="196" y="-59" type="line"/>
      <point x="263" y="-59" type="line"/>
    </contour>
    <contour>
      <point x="353" y="120" type="line"/>
      <point x="340" y="34"/>
      <point x="299" y="-10"/>
      <point x="219" y="-10" type="curve" smooth="yes"/>
      <point x="130" y="-10"/>
      <point x="85" y="44"/>
      <point x="85" y="131" type="curve" smooth="yes"/>
      <point x="85" y="389" type="line"/>
      <point x="13" y="389" type="line"/>
      <point x="13" y="445" type="line"/>
      <point x="85" y="445" type="line"/>
      <point x="85" y="588" type="line"/>
      <point x="155" y="588" type="line"/>
      <point x="155" y="445" type="line"/>
      <point x="329" y="445" type="line"/>
      <point x="329" y="389" type="line"/>
      <point x="155" y="389" type="line"/>
      <point x="155" y="140" type="line" smooth="yes"/>
      <point x="155" y="86"/>
      <point x="173" y="51"/>
      <point x="227" y="51" type="curve" smooth="yes"/>
      <point x="261" y="51"/>
      <point x="286" y="65"/>
      <point x="299" y="137" type="curve"/>
    </contour>
    <contour>
      <point x="-12" y="-213" type="line"/>
      <point x="379" y="-213" type="line"/>
      <point x="379" y="917" type="line"/>
      <point x="-12" y="917" type="line"/>
    </contour>
  </outline>
</glyph>
<glyph name="caron" format="1">
  <advance width="240"/>
  <unicode hex="02C7"/>
  <outline>
    <contour>
      <point x="131" y="519" type="line"/>
      <point x="109" y="519" type="line"/>
      <point x="-12" y="636" type="line"/>
      <point x="14" y="670" type="line"/>
      <point x="124" y="586" type="line"/>
      <point x="226" y="671" type="line"/>
      <point x="252" y="638" type="line"/>
    </contour>
  </outline>
</glyph>
<glyph name="dotaccent" format="1">
  <advance width="53"/>
  <unicode hex="02D9"/>
  <outline>
    <contour>
      <point x="-12" y="644" type="line"/>
      <point x="65" y="644" type="line"/>
      <point x="65" y="553" type="line"/>
      <point x="-12" y="553" type="line"/>
    </contour>
  </outline>
</glyph>
<glyph name="hungarumlaut" format="1">
  <advance width="289"/>
  <unicode hex="02DD"/>
  <outline>
    <contour>
      <point x="128" y="520" type="line"/>
      <point x="107" y="551" type="line"/>
      <point x="261" y="683" type="line"/>
      <point x="301" y="624" type="line"/>
    </contour>
    <contour>
      <point x="19" y="519" type="line"/>
      <point x="-12" y="541" type="line"/>
      <point x="88" y="718" type="line"/>
      <point x="145" y="678" type="line"/>
    </contour>
  </outline>
</glyph>
<glyph name="pi" format="1">
  <advance width="579"/>
  <unicode hex="03C0"/>
  <outline>
    <contour>
      <point x="324" y="0" type="line"/>
      <point x="550" y="0" type="line"/>
      <point x="550" y="57" type="line"/>
      <point x="473" y="57" type="line"/>
      <point x="473" y="388" type="line"/>
      <point x="553" y="388" type="line"/>
      <point x="553" y="445" type="line"/>
      <point x="27" y="445" type="line"/>
      <point x="27" y="388" type="line"/>
      <point x="106" y="388" type="line"/>
      <point x="106" y="57" type="line"/>
      <point x="29" y="57" type="line"/>
      <point x="29" y="0" type="line"/>
      <point x="254" y="0" type="line"/>
      <point x="254" y="57" type="line"/>
      <point x="177" y="57" type="line"/>
      <point x="177" y="388" type="line"/>
      <point x="402" y="388" type="line"/>
      <point x="402" y="57" type="line"/>
      <point x="324" y="57" type="line"/>
    </contour>
    <contour>
      <point x="-12" y="917" type="line"/>
      <point x="591" y="917" type="line"/>
      <point x="591" y="-213" type="line"/>
      <point x="-12" y="-213" type="line"/>
    </contour>
  </outline>
</glyph>
<glyph name="uni1E46" format="1">
  <advance width="733"/>
  <unicode hex="1E46"/>
  <outline>
    <contour>
      <point x="333" y="-83" type="line"/>
      <point x="410" y="-83" type="line"/>
      <point x="410" y="-174" type="line"/>
      <point x="333" y="-174" type="line"/>
    </contour>
    <contour>
      <point x="620" y="586" type="line"/>
      <point x="620" y="0" type="line"/>
      <point x="573" y="0" type="line"/>
      <point x="196" y="512" type="line"/>
      <point x="192" y="512" type="line"/>
      <point x="192" y="64" type="line"/>
      <point x="295" y="64" type="line"/>
      <point x="295" y="0" type="line"/>
      <point x="47" y="0" type="line"/>
      <point x="47" y="64" type="line"/>
      <point x="122" y="64" type="line"/>
      <point x="122" y="586" type="line"/>
      <point x="36" y="586" type="line"/>
      <point x="36" y="650" type="line"/>
      <point x="176" y="650" type="line"/>
      <point x="546" y="149" type="line"/>
      <point x="550" y="149" type="line"/>
      <point x="550" y="586" type="line"/>
      <point x="452" y="586" type="line"/>
      <point x="452" y="650" type="line"/>
      <point x="701" y="650" type="line"/>
      <point x="701" y="586" type="line"/>
    </contour>
    <contour>
      <point x="-12" y="-213" type="line"/>
      <point x="745" y="-213" type="line"/>
      <point x="745" y="917" type="line"/>
      <point x="-12" y="917" type="line"/>
    </contour>
  </outline>
</glyph>
<glyph name="uni1E63" format="1">
  <advance width="433"/>
  <unicode hex="1E63"/>
  <outline>
    <contour>
      <point x="178" y="-83" type="line"/>
      <point x="255" y="-83" type="line"/>
      <point x="255" y="-174" type="line"/>
      <point x="178" y="-174" type="line"/>
    </contour>
    <contour>
      <point x="397" y="129" type="curve" smooth="yes"/>
      <point x="397" y="42"/>
      <point x="315" y="-10"/>
      <point x="208" y="-10" type="curve" smooth="yes"/>
      <point x="145" y="-10"/>
      <point x="77" y="9"/>
      <point x="39" y="34" type="curve"/>
      <point x="53" y="135" type="line"/>
      <point x="109" y="129" type="line"/>
      <point x="106" y="70" type="line"/>
      <point x="135" y="56"/>
      <point x="168" y="48"/>
      <point x="205" y="48" type="curve" smooth="yes"/>
      <point x="267" y="48"/>
      <point x="325" y="72"/>
      <point x="325" y="123" type="curve" smooth="yes"/>
      <point x="325" y="245"/>
      <point x="46" y="152"/>
      <point x="46" y="325" type="curve" smooth="yes"/>
      <point x="46" y="419"/>
      <point x="130" y="454"/>
      <point x="211" y="454" type="curve" smooth="yes"/>
      <point x="272" y="454"/>
      <point x="329" y="435"/>
      <point x="366" y="413" type="curve"/>
      <point x="377" y="309" type="line"/>
      <point x="319" y="302" type="line"/>
      <point x="308" y="374" type="line"/>
      <point x="281" y="388"/>
      <point x="253" y="396"/>
      <point x="217" y="396" type="curve" smooth="yes"/>
      <point x="161" y="396"/>
      <point x="121" y="376"/>
      <point x="121" y="330" type="curve" smooth="yes"/>
      <point x="121" y="214"/>
      <point x="397" y="306"/>
    </contour>
    <contour>
      <point x="-12" y="-213" type="line"/>
      <point x="445" y="-213" type="line"/>
      <point x="445" y="917" type="line"/>
      <point x="-12" y="917" type="line"/>
    </contour>
  </outline>
</glyph>
<glyph name="wdieresis" format="1">
  <advance width="762"/>
  <unicode hex="1E85"/>
  <outline>
    <contour>
      <point x="262" y="640" type="line"/>
      <point x="343" y="640" type="line"/>
      <point x="343" y="555" type="line"/>
      <point x="262" y="555" type="line"/>
    </contour>
    <contour>
      <point x="433" y="640" type="line"/>
      <point x="514" y="640" type="line"/>
      <point x="514" y="555" type="line"/>
      <point x="433" y="555" type="line"/>
    </contour>
    <contour>
      <point x="693" y="388" type="line"/>
      <point x="572" y="0" type="line"/>
      <point x="518" y="0" type="line"/>
      <point x="382" y="340" type="line"/>
      <point x="377" y="340" type="line"/>
      <point x="244" y="0" type="line"/>
      <point x="192" y="0" type="line"/>
      <point x="66" y="388" type="line"/>
      <point x="7" y="388" type="line"/>
      <point x="7" y="445" type="line"/>
      <point x="217" y="445" type="line"/>
      <point x="217" y="388" type="line"/>
      <point x="142" y="388" type="line"/>
      <point x="225" y="107" type="line"/>
      <point x="230" y="107" type="line"/>
      <point x="362" y="445" type="line"/>
      <point x="409" y="445" type="line"/>
      <point x="548" y="107" type="line"/>
      <point x="553" y="107" type="line"/>
      <point x="625" y="388" type="line"/>
      <point x="554" y="388" type="line"/>
      <point x="554" y="445" type="line"/>
      <point x="754" y="445" type="line"/>
      <point x="754" y="388" type="line"/>
    </contour>
    <contour>
      <point x="-12" y="-213" type="line"/>
      <point x="774" y="-213" type="line"/>
      <point x="774" y="917" type="line"/>
      <point x="-12" y="917" type="line"/>
    </contour>
  </outline>
</glyph>
<glyph name="uni2012" format="1">
  <advance width="323"/>
  <unicode hex="2012"/>
  <outline>
    <contour>
      <point x="-12" y="917" type="line"/>
      <point x="335" y="917" type="line"/>
      <point x="335" y="281" type="line"/>
      <point x="-12" y="281" type="line"/>
    </contour>
    <contour>
      <point x="335" y="221" type="line"/>
      <point x="335" y="-213" type="line"/>
      <point x="-12" y="-213" type="line"/>
      <point x="-12" y="221" type="line"/>
    </contour>
  </outline>
</glyph>
<glyph name="endash" format="1">
  <advance width="619"/>
  <unicode hex="2013"/>
  <outline>
    <contour>
      <point x="59" y="206" type="line"/>
      <point x="561" y="206" type="line"/>
      <point x="561" y="257" type="line"/>
      <point x="59" y="257" type="line"/>
    </contour>
    <contour>
      <point x="-12" y="917" type="line"/>
      <point x="631" y="917" type="line"/>
      <point x="631" y="-213" type="line"/>
      <point x="-12" y="-213" type="line"/>
    </contour>
  </outline>
</glyph>
<glyph name="emdash" format="1">
  <advance width="1075"/>
  <unicode hex="2014"/>
  <outline>
    <contour>
      <point x="72" y="206" type="line"/>
      <point x="1012" y="206" type="line"/>
      <point x="1012" y="257" type="line"/>
      <point x="72" y="257" type="line"/>
    </contour>
    <contour>
      <point x="-12" y="917" type="line"/>
      <point x="1087" y="917" type="line"/>
      <point x="1087" y="-213" type="line"/>
      <point x="-12" y="-213" type="line"/>
    </contour>
  </outline>
</glyph>
<glyph name="quoteleft" format="1">
  <advance width="199"/>
  <unicode hex="2018"/>
  <outline>
    <contour>
      <point x="-12" y="-213" type="line"/>
      <point x="211" y="-213" type="line"/>
      <point x="211" y="917" type="line"/>
      <point x="-12" y="917" type="line"/>
    </contour>
    <contour>
      <point x="112" y="440" type="line"/>
      <point x="43" y="440" type="line"/>
      <point x="96" y="656" type="line"/>
      <point x="165" y="656" type="line"/>
    </contour>
  </outline>
</glyph>
<glyph name="quotedblright" format="1">
  <advance width="360"/>
  <unicode hex="201D"/>
  <outline>
    <contour>
      <point x="89" y="670" type="line"/>
      <point x="158" y="670" type="line"/>
      <point x="105" y="453" type="line"/>
      <point x="36" y="453" type="line"/>
    </contour>
    <contour>
      <point x="253" y="670" type="line"/>
      <point x="322" y="670" type="line"/>
      <point x="269" y="453" type="line"/>
      <point x="200" y="453" type="line"/>
    </contour>
    <contour>
      <point x="-12" y="-213" type="line"/>
      <point x="372" y="-213" type="line"/>
      <point x="372" y="917" type="line"/>
      <point x="-12" y="917" type="line"/>
    </contour>
  </outline>
</glyph>
<glyph name="quotedblbase" format="1">
  <advance width="363"/>
  <unicode hex="201E"/>
  <outline>
    <contour>
      <point x="74" y="114" type="line"/>
      <point x="144" y="114" type="line"/>
      <point x="91" y="-102" type="line"/>
      <point x="22" y="-102" type="line"/>
    </contour>
    <contour>
      <point x="241" y="114" type="line"/>
      <point x="310" y="114" type="line"/>
      <point x="257" y="-102" type="line"/>
      <point x="188" y="-102" type="line"/>
    </contour>
    <contour>
      <point x="-12" y="-213" type="line"/>
      <point x="375" y="-213" type="line"/>
      <point x="375" y="917" type="line"/>
      <point x="-12" y="917" type="line"/>
    </contour>
  </outline>
</glyph>
<glyph name="bullet" format="1">
  <advance width="353"/>
  <unicode hex="2022"/>
  <outline>
    <contour>
      <point x="67" y="244" type="curve" smooth="yes"/>
      <point x="67" y="182"/>
      <point x="114" y="134"/>
      <point x="175" y="134" type="curve" smooth="yes"/>
      <point x="238" y="134"/>
      <point x="287" y="182"/>
      <point x="287" y="244" type="curve" smooth="yes"/>
      <point x="287" y="305"/>
      <point x="238" y="355"/>
      <point x="175" y="355" type="curve" smooth="yes"/>
      <point x="114" y="355"/>
      <point x="67" y="305"/>
    </contour>
    <contour>
      <point x="-12" y="917" type="line"/>
      <point x="365" y="917" type="line"/>
      <point x="365" y="-213" type="line"/>
      <point x="-12" y="-213" type="line"/>
    </contour>
  </outline>
</glyph>
<glyph name="ellipsis" format="1">
  <advance width="581"/>
  <unicode hex="2026"/>
  <outline>
    <contour>
      <point x="55" y="0" type="line"/>
      <point x="152" y="0" type="line"/>
      <point x="152" y="108" type="line"/>
      <point x="55" y="108" type="line"/>
    </contour>
    <contour>
      <point x="241" y="0" type="line"/>
      <point x="338" y="0" type="line"/>
      <point x="338" y="108" type="line"/>
      <point x="241" y="108" type="line"/>
    </contour>
    <contour>
      <point x="428" y="0" type="line"/>
      <point x="526" y="0" type="line"/>
      <point x="526" y="108" type="line"/>
      <point x="428" y="108" type="line"/>
    </contour>
    <contour>
      <point x="-12" y="917" type="line"/>
      <point x="593" y="917" type="line"/>
      <point x="593" y="-213" type="line"/>
      <point x="-12" y="-213" type="line"/>
    </contour>
  </outline>
</glyph>
<glyph name="guilsinglright" format="1">
  <advance width="283"/>
  <unicode hex="203A"/>
  <outline>
    <contour>
      <point x="106" y="25" type="line"/>
      <point x="244" y="271" type="line"/>
      <point x="106" y="511" type="line"/>
      <point x="46" y="511" type="line"/>
      <point x="174" y="271" type="line"/>
      <point x="46" y="25" type="line"/>
    </contour>
    <contour>
      <point x="-12" y="917" type="line"/>
      <point x="295" y="917" type="line"/>
      <point x="295" y="-213" type="line"/>
      <point x="-12" y="-213" type="line"/>
    </contour>
  </outline>
</glyph>
<glyph name="uni203D" format="1">
  <advance width="637"/>
  <unicode hex="203D"/>
  <outline>
    <contour>
      <point x="242" y="204" type="line"/>
      <point x="105" y="644" type="line"/>
      <point x="28" y="612" type="line"/>
      <point x="193" y="183" type="line"/>
    </contour>
    <contour>
      <point x="213" y="0" type="line"/>
      <point x="302" y="0" type="line"/>
      <point x="302" y="97" type="line"/>
      <point x="213" y="97" type="line"/>
    </contour>
    <contour>
      <point x="291" y="466" type="line"/>
      <point x="319" y="564" type="line"/>
      <point x="342" y="580"/>
      <point x="366" y="589"/>
      <point x="395" y="589" type="curve" smooth="yes"/>
      <point x="445" y="589"/>
      <point x="527" y="561"/>
      <point x="527" y="491" type="curve" smooth="yes"/>
      <point x="527" y="366"/>
      <point x="269" y="385"/>
      <point x="264" y="205" type="curve"/>
      <point x="314" y="191" type="line"/>
      <point x="328" y="351"/>
      <point x="607" y="330"/>
      <point x="607" y="494" type="curve" smooth="yes"/>
      <point x="607" y="591"/>
      <point x="511" y="648"/>
      <point x="410" y="648" type="curve" smooth="yes"/>
      <point x="350" y="648"/>
      <point x="292" y="625"/>
      <point x="259" y="596" type="curve"/>
      <point x="235" y="478" type="line"/>
    </contour>
    <contour>
      <point x="-12" y="917" type="line"/>
      <point x="649" y="917" type="line"/>
      <point x="649" y="-213" type="line"/>
      <point x="-12" y="-213" type="line"/>
    </contour>
  </outline>
</glyph>
<glyph name="i.superior" format="1">
  <advance width="202"/>
  <unicode hex="2071"/>
  <outline>
    <contour>
      <point x="25" y="662" type="line"/>
      <point x="76" y="662" type="line"/>
      <point x="76" y="458" type="line"/>
      <point x="27" y="458" type="line"/>
      <point x="27" y="415" type="line"/>
      <point x="182" y="415" type="line"/>
      <point x="182" y="458" type="line"/>
      <point x="134" y="458" type="line"/>
      <point x="134" y="705" type="line"/>
      <point x="25" y="705" type="line"/>
    </contour>
    <contour>
      <point x="72" y="781" type="line"/>
      <point x="133" y="781" type="line"/>
      <point x="133" y="844" type="line"/>
      <point x="72" y="844" type="line"/>
    </contour>
    <contour>
      <point x="-12" y="917" type="line"/>
      <point x="214" y="917" type="line"/>
      <point x="214" y="-213" type="line"/>
      <point x="-12" y="-213" type="line"/>
    </contour>
  </outline>
</glyph>
<glyph name="fivesuperior" format="1">
  <advance width="331"/>
  <unicode hex="2075"/>
  <outline>
    <contour>
      <point x="300" y="524" type="curve" smooth="yes"/>
      <point x="300" y="619"/>
      <point x="221" y="639"/>
      <point x="137" y="639" type="curve" smooth="yes"/>
      <point x="110" y="639" type="line"/>
      <point x="110" y="734" type="line"/>
      <point x="233" y="734" type="line"/>
      <point x="239" y="684" type="line"/>
      <point x="285" y="689" type="line"/>
      <point x="280" y="779" type="line"/>
      <point x="55" y="779" type="line"/>
      <point x="55" y="610" type="line"/>
      <point x="75" y="594" type="line"/>
      <point x="92" y="595"/>
      <point x="110" y="597"/>
      <point x="130" y="597" type="curve" smooth="yes"/>
      <point x="185" y="597"/>
      <point x="238" y="586"/>
      <point x="238" y="524" type="curve" smooth="yes"/>
      <point x="238" y="481"/>
      <point x="209" y="454"/>
      <point x="158" y="454" type="curve" smooth="yes"/>
      <point x="106" y="454"/>
      <point x="83" y="485"/>
      <point x="75" y="517" type="curve"/>
      <point x="33" y="505" type="line"/>
      <point x="41" y="445"/>
      <point x="89" y="408"/>
      <point x="157" y="408" type="curve" smooth="yes"/>
      <point x="235" y="408"/>
      <point x="300" y="444"/>
    </contour>
    <contour>
      <point x="-12" y="917" type="line"/>
      <point x="343" y="917" type="line"/>
      <point x="343" y="-213" type="line"/>
      <point x="-12" y="-213" type="line"/>
    </contour>
  </outline>
</glyph>
<glyph name="eightsuperior" format="1">
  <advance width="349"/>
  <unicode hex="2078"/>
  <outline>
    <contour>
      <point x="170" y="409" type="curve" smooth="yes"/>
      <point x="253" y="409"/>
      <point x="314" y="446"/>
      <point x="314" y="509" type="curve" smooth="yes"/>
      <point x="314" y="563"/>
      <point x="269" y="590"/>
      <point x="221" y="611" type="curve"/>
      <point x="264" y="628"/>
      <point x="301" y="649"/>
      <point x="301" y="695" type="curve" smooth="yes"/>
      <point x="301" y="749"/>
      <point x="247" y="785"/>
      <point x="174" y="785" type="curve" smooth="yes"/>
      <point x="97" y="785"/>
      <point x="45" y="746"/>
      <point x="45" y="689" type="curve" smooth="yes"/>
      <point x="45" y="643"/>
      <point x="82" y="618"/>
      <point x="124" y="598" type="curve"/>
      <point x="78" y="580"/>
      <point x="35" y="557"/>
      <point x="35" y="504" type="curve" smooth="yes"/>
      <point x="35" y="442"/>
      <point x="93" y="409"/>
    </contour>
    <contour>
      <point x="108" y="695" type="curve" smooth="yes"/>
      <point x="108" y="723"/>
      <point x="134" y="742"/>
      <point x="174" y="742" type="curve" smooth="yes"/>
      <point x="209" y="742"/>
      <point x="241" y="727"/>
      <point x="241" y="688" type="curve" smooth="yes"/>
      <point x="241" y="656"/>
      <point x="216" y="641"/>
      <point x="186" y="627" type="curve"/>
      <point x="144" y="645"/>
      <point x="108" y="661"/>
    </contour>
    <contour>
      <point x="173" y="452" type="curve" smooth="yes"/>
      <point x="124" y="452"/>
      <point x="94" y="476"/>
      <point x="94" y="514" type="curve" smooth="yes"/>
      <point x="94" y="550"/>
      <point x="124" y="567"/>
      <point x="158" y="583" type="curve"/>
      <point x="206" y="563"/>
      <point x="251" y="545"/>
      <point x="251" y="505" type="curve" smooth="yes"/>
      <point x="251" y="473"/>
      <point x="218" y="452"/>
    </contour>
    <contour>
      <point x="-12" y="917" type="line"/>
      <point x="361" y="917" type="line"/>
      <point x="361" y="-213" type="line"/>
      <point x="-12" y="-213" type="line"/>
    </contour>
  </outline>
</glyph>
<glyph name="plussuperior" format="1">
  <advance width="286"/>
  <unicode hex="207A"/>
  <outline>
    <contour>
      <point x="27" y="578" type="line"/>
      <point x="125" y="578" type="line"/>
      <point x="125" y="485" type="line"/>
      <point x="166" y="485" type="line"/>
      <point x="166" y="578" type="line"/>
      <point x="259" y="578" type="line"/>
      <point x="259" y="617" type="line"/>
      <point x="166" y="617" type="line"/>
      <point x="166" y="711" type="line"/>
      <point x="125" y="711" type="line"/>
      <point x="125" y="617" type="line"/>
      <point x="27" y="617" type="line"/>
    </contour>
    <contour>
      <point x="-12" y="917" type="line"/>
      <point x="298" y="917" type="line"/>
      <point x="298" y="-213" type="line"/>
      <point x="-12" y="-213" type="line"/>
    </contour>
  </outline>
</glyph>
<glyph name="minussuperior" format="1">
  <advance width="323"/>
  <unicode hex="207B"/>
  <outline>
    <contour>
      <point x="47" y="578" type="line"/>
      <point x="279" y="578" type="line"/>
      <point x="279" y="617" type="line"/>
      <point x="47" y="617" type="line"/>
    </contour>
    <contour>
      <point x="-12" y="917" type="line"/>
      <point x="335" y="917" type="line"/>
      <point x="335" y="-213" type="line"/>
      <point x="-12" y="-213" type="line"/>
    </contour>
  </outline>
</glyph>
<glyph name="equalsuperior" format="1">
  <advance width="390"/>
  <unicode hex="207C"/>
  <outline>
    <contour>
      <point x="47" y="645" type="line"/>
      <point x="344" y="645" type="line"/>
      <point x="344" y="685" type="line"/>
      <point x="47" y="685" type="line"/>
    </contour>
    <contour>
      <point x="47" y="510" type="line"/>
      <point x="344" y="510" type="line"/>
      <point x="344" y="549" type="line"/>
      <point x="47" y="549" type="line"/>
    </contour>
    <contour>
      <point x="-12" y="917" type="line"/>
      <point x="402" y="917" type="line"/>
      <point x="402" y="-213" type="line"/>
      <point x="-12" y="-213" type="line"/>
    </contour>
  </outline>
</glyph>
<glyph name="n.superior" format="1">
  <advance width="402"/>
  <unicode hex="207F"/>
  <outline>
    <contour>
      <point x="232" y="415" type="line"/>
      <point x="387" y="415" type="line"/>
      <point x="387" y="458" type="line"/>
      <point x="340" y="458" type="line"/>
      <point x="340" y="602" type="line" smooth="yes"/>
      <point x="340" y="678"/>
      <point x="293" y="711"/>
      <point x="235" y="711" type="curve" smooth="yes"/>
      <point x="189" y="711"/>
      <point x="153" y="690"/>
      <point x="134" y="655" type="curve"/>
      <point x="134" y="705" type="line"/>
      <point x="24" y="705" type="line"/>
      <point x="24" y="662" type="line"/>
      <point x="75" y="662" type="line"/>
      <point x="75" y="458" type="line"/>
      <point x="27" y="458" type="line"/>
      <point x="27" y="415" type="line"/>
      <point x="181" y="415" type="line"/>
      <point x="181" y="458" type="line"/>
      <point x="134" y="458" type="line"/>
      <point x="134" y="591" type="line"/>
      <point x="135" y="634"/>
      <point x="166" y="668"/>
      <point x="216" y="668" type="curve" smooth="yes"/>
      <point x="256" y="668"/>
      <point x="281" y="646"/>
      <point x="281" y="585" type="curve" smooth="yes"/>
      <point x="281" y="458" type="line"/>
      <point x="232" y="458" type="line"/>
    </contour>
    <contour>
      <point x="-12" y="917" type="line"/>
      <point x="414" y="917" type="line"/>
      <point x="414" y="-213" type="line"/>
      <point x="-12" y="-213" type="line"/>
    </contour>
  </outline>
</glyph>
<glyph name="zeroinferior" format="1">
  <advance width="375"/>
  <unicode hex="2080"/>
  <outline>
    <contour>
      <point x="37" y="178" type="curve" smooth="yes"/>
      <point x="37" y="77"/>
      <point x="71" y="-6"/>
      <point x="185" y="-6" type="curve" smooth="yes"/>
      <point x="300" y="-6"/>
      <point x="338" y="77"/>
      <point x="338" y="183" type="curve" smooth="yes"/>
      <point x="338" y="272"/>
      <point x="310" y="370"/>
      <point x="188" y="370" type="curve" smooth="yes"/>
      <point x="67" y="370"/>
      <point x="37" y="275"/>
    </contour>
    <contour>
      <point x="100" y="184" type="curve" smooth="yes"/>
      <point x="100" y="259"/>
      <point x="114" y="323"/>
      <point x="187" y="323" type="curve" smooth="yes"/>
      <point x="263" y="323"/>
      <point x="275" y="258"/>
      <point x="275" y="186" type="curve" smooth="yes"/>
      <point x="275" y="101"/>
      <point x="257" y="41"/>
      <point x="186" y="41" type="curve" smooth="yes"/>
      <point x="115" y="41"/>
      <point x="100" y="104"/>
    </contour>
    <contour>
      <point x="-12" y="917" type="line"/>
      <point x="387" y="917" type="line"/>
      <point x="387" y="-213" type="line"/>
      <point x="-12" y="-213" type="line"/>
    </contour>
  </outline>
</glyph>
<glyph name="oneinferior" format="1">
  <advance width="256"/>
  <unicode hex="2081"/>
  <outline>
    <contour>
      <point x="33" y="319" type="line"/>
      <point x="108" y="319" type="line"/>
      <point x="108" y="45" type="line"/>
      <point x="33" y="45" type="line"/>
      <point x="33" y="0" type="line"/>
      <point x="238" y="0" type="line"/>
      <point x="238" y="45" type="line"/>
      <point x="166" y="45" type="line"/>
      <point x="166" y="364" type="line"/>
      <point x="33" y="364" type="line"/>
    </contour>
    <contour>
      <point x="-12" y="917" type="line"/>
      <point x="268" y="917" type="line"/>
      <point x="268" y="-213" type="line"/>
      <point x="-12" y="-213" type="line"/>
    </contour>
  </outline>
</glyph>
<glyph name="twoinferior" format="1">
  <advance width="344"/>
  <unicode hex="2082"/>
  <outline>
    <contour>
      <point x="85" y="252" type="line"/>
      <point x="98" y="308" type="line"/>
      <point x="116" y="320"/>
      <point x="133" y="325"/>
      <point x="155" y="325" type="curve" smooth="yes"/>
      <point x="206" y="325"/>
      <point x="226" y="300"/>
      <point x="226" y="268" type="curve" smooth="yes"/>
      <point x="226" y="192"/>
      <point x="115" y="111"/>
      <point x="32" y="41" type="curve"/>
      <point x="37" y="0" type="line"/>
      <point x="309" y="0" type="line"/>
      <point x="319" y="94" type="line"/>
      <point x="272" y="99" type="line"/>
      <point x="262" y="45" type="line"/>
      <point x="106" y="45" type="line"/>
      <point x="157" y="87"/>
      <point x="290" y="177"/>
      <point x="290" y="273" type="curve" smooth="yes"/>
      <point x="290" y="322"/>
      <point x="255" y="370"/>
      <point x="170" y="370" type="curve" smooth="yes"/>
      <point x="127" y="370"/>
      <point x="80" y="358"/>
      <point x="51" y="333" type="curve"/>
      <point x="40" y="257" type="line"/>
    </contour>
    <contour>
      <point x="-12" y="917" type="line"/>
      <point x="356" y="917" type="line"/>
      <point x="356" y="-213" type="line"/>
      <point x="-12" y="-213" type="line"/>
    </contour>
  </outline>
</glyph>
<glyph name="threeinferior" format="1">
  <advance width="338"/>
  <unicode hex="2083"/>
  <outline>
    <contour>
      <point x="91" y="258" type="line"/>
      <point x="102" y="308" type="line"/>
      <point x="121" y="319"/>
      <point x="139" y="324"/>
      <point x="162" y="324" type="curve"/>
      <point x="202" y="324"/>
      <point x="225" y="304"/>
      <point x="225" y="272" type="curve" smooth="yes"/>
      <point x="225" y="234"/>
      <point x="196" y="211"/>
      <point x="136" y="208" type="curve"/>
      <point x="136" y="170" type="line"/>
      <point x="213" y="168"/>
      <point x="240" y="144"/>
      <point x="240" y="107" type="curve" smooth="yes"/>
      <point x="240" y="68"/>
      <point x="211" y="39"/>
      <point x="161" y="39" type="curve" smooth="yes"/>
      <point x="109" y="39"/>
      <point x="85" y="70"/>
      <point x="77" y="102" type="curve"/>
      <point x="35" y="90" type="line"/>
      <point x="43" y="30"/>
      <point x="91" y="-7"/>
      <point x="159" y="-7" type="curve" smooth="yes"/>
      <point x="237" y="-7"/>
      <point x="303" y="29"/>
      <point x="303" y="101" type="curve" smooth="yes"/>
      <point x="303" y="142"/>
      <point x="281" y="182"/>
      <point x="213" y="192" type="curve"/>
      <point x="213" y="194" type="line"/>
      <point x="267" y="210"/>
      <point x="287" y="244"/>
      <point x="287" y="280" type="curve" smooth="yes"/>
      <point x="287" y="334"/>
      <point x="243" y="369"/>
      <point x="176" y="369" type="curve" smooth="yes"/>
      <point x="137" y="369"/>
      <point x="85" y="358"/>
      <point x="55" y="332" type="curve"/>
      <point x="46" y="263" type="line"/>
    </contour>
    <contour>
      <point x="-12" y="917" type="line"/>
      <point x="350" y="917" type="line"/>
      <point x="350" y="-213" type="line"/>
      <point x="-12" y="-213" type="line"/>
    </contour>
  </outline>
</glyph>
<glyph name="sixinferior" format="1">
  <advance width="344"/>
  <unicode hex="2086"/>
  <outline>
    <contour>
      <point x="193" y="325" type="curve" smooth="yes"/>
      <point x="213" y="325"/>
      <point x="238" y="320"/>
      <point x="266" y="287" type="curve"/>
      <point x="298" y="321" type="line"/>
      <point x="261" y="360"/>
      <point x="219" y="370"/>
      <point x="186" y="370" type="curve" smooth="yes"/>
      <point x="86" y="370"/>
      <point x="37" y="283"/>
      <point x="37" y="168" type="curve" smooth="yes"/>
      <point x="37" y="69"/>
      <point x="73" y="-6"/>
      <point x="175" y="-6" type="curve" smooth="yes"/>
      <point x="263" y="-6"/>
      <point x="306" y="48"/>
      <point x="306" y="118" type="curve" smooth="yes"/>
      <point x="306" y="175"/>
      <point x="278" y="229"/>
      <point x="198" y="229" type="curve" smooth="yes"/>
      <point x="141" y="229"/>
      <point x="111" y="202"/>
      <point x="99" y="174" type="curve"/>
      <point x="100" y="279"/>
      <point x="128" y="325"/>
    </contour>
    <contour>
      <point x="181" y="185" type="curve" smooth="yes"/>
      <point x="228" y="185"/>
      <point x="247" y="159"/>
      <point x="247" y="115" type="curve" smooth="yes"/>
      <point x="247" y="70"/>
      <point x="228" y="41"/>
      <point x="177" y="41" type="curve" smooth="yes"/>
      <point x="124" y="41"/>
      <point x="106" y="72"/>
      <point x="101" y="119" type="curve"/>
      <point x="103" y="149"/>
      <point x="123" y="185"/>
    </contour>
    <contour>
      <point x="-12" y="917" type="line"/>
      <point x="356" y="917" type="line"/>
      <point x="356" y="-213" type="line"/>
      <point x="-12" y="-213" type="line"/>
    </contour>
  </outline>
</glyph>
<glyph name="seveninferior" format="1">
  <advance width="304"/>
  <unicode hex="2087"/>
  <outline>
    <contour>
      <point x="27" y="364" type="line"/>
      <point x="27" y="257" type="line"/>
      <point x="78" y="257" type="line"/>
      <point x="78" y="319" type="line"/>
      <point x="227" y="319" type="line"/>
      <point x="88" y="0" type="line"/>
      <point x="146" y="0" type="line"/>
      <point x="290" y="337" type="line"/>
      <point x="282" y="364" type="line"/>
    </contour>
    <contour>
      <point x="-12" y="917" type="line"/>
      <point x="316" y="917" type="line"/>
      <point x="316" y="-213" type="line"/>
      <point x="-12" y="-213" type="line"/>
    </contour>
  </outline>
</glyph>
<glyph name="nineinferior" format="1">
  <advance width="343"/>
  <unicode hex="2089"/>
  <outline>
    <contour>
      <point x="154" y="39" type="curve" smooth="yes"/>
      <point x="135" y="39"/>
      <point x="105" y="44"/>
      <point x="78" y="77" type="curve"/>
      <point x="46" y="43" type="line"/>
      <point x="82" y="4"/>
      <point x="127" y="-6"/>
      <point x="161" y="-6" type="curve" smooth="yes"/>
      <point x="260" y="-6"/>
      <point x="307" y="79"/>
      <point x="307" y="194" type="curve" smooth="yes"/>
      <point x="307" y="295"/>
      <point x="271" y="370"/>
      <point x="168" y="370" type="curve" smooth="yes"/>
      <point x="81" y="370"/>
      <point x="37" y="316"/>
      <point x="37" y="246" type="curve" smooth="yes"/>
      <point x="37" y="189"/>
      <point x="65" y="135"/>
      <point x="146" y="135" type="curve" smooth="yes"/>
      <point x="202" y="135"/>
      <point x="231" y="161"/>
      <point x="244" y="189" type="curve"/>
      <point x="243" y="84"/>
      <point x="219" y="39"/>
    </contour>
    <contour>
      <point x="162" y="179" type="curve" smooth="yes"/>
      <point x="115" y="179"/>
      <point x="96" y="205"/>
      <point x="96" y="249" type="curve" smooth="yes"/>
      <point x="96" y="294"/>
      <point x="116" y="323"/>
      <point x="167" y="323" type="curve" smooth="yes"/>
      <point x="219" y="323"/>
      <point x="237" y="292"/>
      <point x="243" y="244" type="curve"/>
      <point x="240" y="214"/>
      <point x="219" y="179"/>
    </contour>
    <contour>
      <point x="-12" y="917" type="line"/>
      <point x="355" y="917" type="line"/>
      <point x="355" y="-213" type="line"/>
      <point x="-12" y="-213" type="line"/>
    </contour>
  </outline>
</glyph>
<glyph name="equal.inferior" format="1">
  <advance width="390"/>
  <unicode hex="208C"/>
  <outline>
    <contour>
      <point x="47" y="230" type="line"/>
      <point x="344" y="230" type="line"/>
      <point x="344" y="270" type="line"/>
      <point x="47" y="270" type="line"/>
    </contour>
    <contour>
      <point x="47" y="95" type="line"/>
      <point x="344" y="95" type="line"/>
      <point x="344" y="134" type="line"/>
      <point x="47" y="134" type="line"/>
    </contour>
    <contour>
      <point x="-12" y="917" type="line"/>
      <point x="402" y="917" type="line"/>
      <point x="402" y="-213" type="line"/>
      <point x="-12" y="-213" type="line"/>
    </contour>
  </outline>
</glyph>
<glyph name="parenleft.inferior" format="1">
  <advance width="214"/>
  <unicode hex="208D"/>
  <outline>
    <contour>
      <point x="141" y="440" type="line"/>
      <point x="70" y="353"/>
      <point x="37" y="260"/>
      <point x="37" y="166" type="curve" smooth="yes"/>
      <point x="37" y="72"/>
      <point x="68" y="-22"/>
      <point x="140" y="-111" type="curve"/>
      <point x="192" y="-111" type="line"/>
      <point x="121" y="-27"/>
      <point x="86" y="70"/>
      <point x="86" y="166" type="curve" smooth="yes"/>
      <point x="86" y="262"/>
      <point x="121" y="354"/>
      <point x="192" y="440" type="curve"/>
    </contour>
    <contour>
      <point x="-12" y="917" type="line"/>
      <point x="226" y="917" type="line"/>
      <point x="226" y="-213" type="line"/>
      <point x="-12" y="-213" type="line"/>
    </contour>
  </outline>
</glyph>
<glyph name="parenright.inferior" format="1">
  <advance width="214"/>
  <unicode hex="208E"/>
  <outline>
    <contour>
      <point x="74" y="-112" type="line"/>
      <point x="144" y="-26"/>
      <point x="178" y="67"/>
      <point x="178" y="161" type="curve" smooth="yes"/>
      <point x="178" y="254"/>
      <point x="146" y="349"/>
      <point x="75" y="439" type="curve"/>
      <point x="22" y="439" type="line"/>
      <point x="93" y="354"/>
      <point x="129" y="256"/>
      <point x="129" y="161" type="curve" smooth="yes"/>
      <point x="129" y="65"/>
      <point x="93" y="-27"/>
      <point x="22" y="-112" type="curve"/>
    </contour>
    <contour>
      <point x="-12" y="917" type="line"/>
      <point x="226" y="917" type="line"/>
      <point x="226" y="-213" type="line"/>
      <point x="-12" y="-213" type="line"/>
    </contour>
  </outline>
</glyph>
<glyph name="o.inferior" format="1">
  <advance width="361"/>
  <unicode hex="2092"/>
  <outline>
    <contour>
      <point x="29" y="142" type="curve" smooth="yes"/>
      <point x="29" y="54"/>
      <point x="86" y="-7"/>
      <point x="177" y="-7" type="curve" smooth="yes"/>
      <point x="270" y="-7"/>
      <point x="331" y="56"/>
      <point x="331" y="145" type="curve" smooth="yes"/>
      <point x="331" y="227"/>
      <point x="281" y="296"/>
      <point x="181" y="296" type="curve" smooth="yes"/>
      <point x="81" y="296"/>
      <point x="29" y="227"/>
    </contour>
    <contour>
      <point x="91" y="146" type="curve" smooth="yes"/>
      <point x="91" y="207"/>
      <point x="123" y="249"/>
      <point x="180" y="249" type="curve" smooth="yes"/>
      <point x="236" y="249"/>
      <point x="269" y="210"/>
      <point x="269" y="146" type="curve" smooth="yes"/>
      <point x="269" y="84"/>
      <point x="236" y="39"/>
      <point x="179" y="39" type="curve" smooth="yes"/>
      <point x="120" y="39"/>
      <point x="91" y="86"/>
    </contour>
    <contour>
      <point x="-12" y="917" type="line"/>
      <point x="373" y="917" type="line"/>
      <point x="373" y="-213" type="line"/>
      <point x="-12" y="-213" type="line"/>
    </contour>
  </outline>
</glyph>
<glyph name="x.inferior" format="1">
  <advance width="357"/>
  <unicode hex="2093"/>
  <outline>
    <contour>
      <point x="214" y="247" type="line"/>
      <point x="247" y="247" type="line"/>
      <point x="183" y="173" type="line"/>
      <point x="120" y="247" type="line"/>
      <point x="159" y="247" type="line"/>
      <point x="159" y="290" type="line"/>
      <point x="18" y="290" type="line"/>
      <point x="18" y="247" type="line"/>
      <point x="54" y="247" type="line"/>
      <point x="149" y="145" type="line"/>
      <point x="56" y="43" type="line"/>
      <point x="17" y="43" type="line"/>
      <point x="17" y="0" type="line"/>
      <point x="145" y="0" type="line"/>
      <point x="145" y="43" type="line"/>
      <point x="110" y="43" type="line"/>
      <point x="176" y="118" type="line"/>
      <point x="242" y="43" type="line"/>
      <point x="206" y="43" type="line"/>
      <point x="206" y="0" type="line"/>
      <point x="343" y="0" type="line"/>
      <point x="343" y="43" type="line"/>
      <point x="306" y="43" type="line"/>
      <point x="210" y="149" type="line"/>
      <point x="300" y="247" type="line"/>
      <point x="336" y="247" type="line"/>
      <point x="336" y="290" type="line"/>
      <point x="214" y="290" type="line"/>
    </contour>
    <contour>
      <point x="-12" y="917" type="line"/>
      <point x="369" y="917" type="line"/>
      <point x="369" y="-213" type="line"/>
      <point x="-12" y="-213" type="line"/>
    </contour>
  </outline>
</glyph>
<glyph name="m.inferior" format="1">
  <advance width="596"/>
  <unicode hex="2098"/>
  <outline>
    <contour>
      <point x="226" y="0" type="line"/>
      <point x="381" y="0" type="line"/>
      <point x="381" y="43" type="line"/>
      <point x="333" y="43" type="line"/>
      <point x="333" y="175" type="line"/>
      <point x="335" y="212"/>
      <point x="361" y="253"/>
      <point x="411" y="253" type="curve" smooth="yes"/>
      <point x="448" y="253"/>
      <point x="474" y="230"/>
      <point x="474" y="170" type="curve" smooth="yes"/>
      <point x="474" y="43" type="line"/>
      <point x="425" y="43" type="line"/>
      <point x="425" y="0" type="line"/>
      <point x="580" y="0" type="line"/>
      <point x="580" y="43" type="line"/>
      <point x="532" y="43" type="line"/>
      <point x="532" y="187" type="line" smooth="yes"/>
      <point x="532" y="263"/>
      <point x="487" y="296"/>
      <point x="431" y="296" type="curve" smooth="yes"/>
      <point x="379" y="296"/>
      <point x="346" y="267"/>
      <point x="327" y="227" type="curve"/>
      <point x="314" y="274"/>
      <point x="275" y="296"/>
      <point x="231" y="296" type="curve" smooth="yes"/>
      <point x="184" y="296"/>
      <point x="153" y="273"/>
      <point x="134" y="239" type="curve"/>
      <point x="134" y="290" type="line"/>
      <point x="25" y="290" type="line"/>
      <point x="25" y="247" type="line"/>
      <point x="76" y="247" type="line"/>
      <point x="76" y="43" type="line"/>
      <point x="27" y="43" type="line"/>
      <point x="27" y="0" type="line"/>
      <point x="180" y="0" type="line"/>
      <point x="180" y="43" type="line"/>
      <point x="134" y="43" type="line"/>
      <point x="134" y="178" type="line"/>
      <point x="136" y="214"/>
      <point x="162" y="253"/>
      <point x="212" y="253" type="curve" smooth="yes"/>
      <point x="250" y="253"/>
      <point x="275" y="231"/>
      <point x="275" y="170" type="curve" smooth="yes"/>
      <point x="275" y="43" type="line"/>
      <point x="226" y="43" type="line"/>
    </contour>
    <contour>
      <point x="-12" y="917" type="line"/>
      <point x="608" y="917" type="line"/>
      <point x="608" y="-213" type="line"/>
      <point x="-12" y="-213" type="line"/>
    </contour>
    <contour>
      <point x="206" y="368" type="move" name="top"/>
    </contour>
  </outline>
</glyph>
<glyph name="n.inferior" format="1">
  <advance width="403"/>
  <unicode hex="2099"/>
  <outline>
    <contour>
      <point x="232" y="0" type="line"/>
      <point x="388" y="0" type="line"/>
      <point x="388" y="43" type="line"/>
      <point x="340" y="43" type="line"/>
      <point x="340" y="187" type="line" smooth="yes"/>
      <point x="340" y="263"/>
      <point x="293" y="296"/>
      <point x="236" y="296" type="curve" smooth="yes"/>
      <point x="189" y="296"/>
      <point x="153" y="275"/>
      <point x="134" y="240" type="curve"/>
      <point x="134" y="290" type="line"/>
      <point x="25" y="290" type="line"/>
      <point x="25" y="247" type="line"/>
      <point x="76" y="247" type="line"/>
      <point x="76" y="43" type="line"/>
      <point x="27" y="43" type="line"/>
      <point x="27" y="0" type="line"/>
      <point x="182" y="0" type="line"/>
      <point x="182" y="43" type="line"/>
      <point x="134" y="43" type="line"/>
      <point x="134" y="176" type="line"/>
      <point x="135" y="219"/>
      <point x="167" y="253"/>
      <point x="216" y="253" type="curve" smooth="yes"/>
      <point x="256" y="253"/>
      <point x="281" y="231"/>
      <point x="281" y="170" type="curve" smooth="yes"/>
      <point x="281" y="43" type="line"/>
      <point x="232" y="43" type="line"/>
    </contour>
    <contour>
      <point x="-12" y="917" type="line"/>
      <point x="415" y="917" type="line"/>
      <point x="415" y="-213" type="line"/>
      <point x="-12" y="-213" type="line"/>
    </contour>
    <contour>
      <point x="206" y="368" type="move" name="top"/>
    </contour>
  </outline>
</glyph>
